<?xml version="1.0" encoding="UTF-8"?><svg version="1.1" width="48px" height="48px" viewBox="0 0 48.0 48.0" xmlns="http://www.w3.org/2000/svg" xmlns:xlink="http://www.w3.org/1999/xlink"><defs><clipPath id="i0"><path d="M1920,0 L1920,1080 L0,1080 L0,0 L1920,0 Z"></path></clipPath><clipPath id="i1"><path d="M15,0 C16.6502674,0 18.0002057,1.34993829 18.0002057,3.0002057 L18.0002057,11.9997943 L26.9997943,11.9997943 C28.6500617,11.9997943 30,13.3497326 30,15 C30,16.6502674 28.6500617,18.0002057 26.9997943,18.0002057 L18.0002057,18.0002057 L18.0002057,26.9997943 C18.0002057,28.6500617 16.6502674,30 15,30 C13.3497326,30 11.9997943,28.6500617 11.9997943,26.9997943 L11.9997943,18.0002057 L3.0002057,18.0002057 C1.3509411,18.0002057 0.00100461122,16.6502674 0,15 C0,13.3497326 1.34993829,11.9997943 3.0002057,11.9997943 L11.9997943,11.9997943 L11.9997943,3.0002057 C11.9997943,1.34993829 13.3497326,0 15,0 Z"></path></clipPath></defs><g transform="translate(-1208.0 -68.0)"><g clip-path="url(#i0)"><g transform="translate(1210.0 70.78679656440363)"><g transform="translate(22.0 -5.684341886080802e-14) rotate(44.99999999999999)"><g clip-path="url(#i1)"><polygon points="-2.27373675e-13,2.27373675e-13 30,2.27373675e-13 30,30 -2.27373675e-13,30 -2.27373675e-13,2.27373675e-13" stroke="none" fill="#FFFFFF"></polygon></g><path d="M3.0002057,18.0002057 L11.9997943,18.0002057 L11.9997943,26.9997943 C11.9997943,28.6500617 13.3497326,30 15,30 C16.6502674,30 18.0002057,28.6500617 18.0002057,26.9997943 L18.0002057,18.0002057 L26.9997943,18.0002057 C28.6500617,18.0002057 30,16.6502674 30,15 C30,13.3497326 28.6500617,11.9997943 26.9997943,11.9997943 L18.0002057,11.9997943 L18.0002057,3.0002057 C18.0002057,1.34993829 16.6502674,0 15,0 C13.3497326,0 11.9997943,1.34993829 11.9997943,3.0002057 L11.9997943,11.9997943 L3.0002057,11.9997943 C1.34993829,11.9997943 0,13.3497326 0,15 C0.00100461122,16.6502674 1.3509411,18.0002057 3.0002057,18.0002057 Z" stroke="#0A0A5E" stroke-width="3" fill="none" stroke-miterlimit="10"></path></g></g></g></g></svg>