<?xml version="1.0" encoding="UTF-8"?><svg version="1.1" width="22px" height="22px" viewBox="0 0 22.0 22.0" xmlns="http://www.w3.org/2000/svg" xmlns:xlink="http://www.w3.org/1999/xlink"><defs><clipPath id="i0"><path d="M1920,0 L1920,1653 L0,1653 L0,0 L1920,0 Z"></path></clipPath><clipPath id="i1"><path d="M8.5,0 C13.1872606,0 17,3.65136646 17,8.13952932 C17,12.2723036 10.0991769,18.7930211 9.10781472,19.7104211 L9.02372458,19.7878888 L9.00041632,19.8092312 C8.85956703,19.9349061 8.67988343,20 8.50016653,20 C8.32044963,20 8.14074938,19.9347466 7.99991674,19.8092312 C7.99397772,19.8040966 7.98618707,19.7969657 7.97628873,19.7878864 L7.89222246,19.7104144 C6.90106268,18.7929781 0,12.2723036 0,8.13952932 C0,3.651207 3.81307244,0 8.5,0 Z M8.50016653,1.39572377 C4.61448793,1.39612243 1.4572856,4.4191142 1.4572856,8.13992799 C1.4572856,11.0422042 6.14941715,16.0932412 8.50016653,18.3305852 C10.8511241,16.0932811 15.5430475,11.0375797 15.5430475,8.13992799 C15.5430475,4.418875 12.3857619,1.39572377 8.50016653,1.39572377 Z"></path></clipPath><clipPath id="i2"><path d="M3.5,0 C5.43204,0 7,1.56796 7,3.5 C7,5.43204 5.43204,7 3.5,7 C1.56796,7 0,5.43204 0,3.5 C0,1.56796 1.56796,0 3.5,0 Z M3.5,1.4 C2.34264,1.4 1.4,2.34264 1.4,3.5 C1.4,4.65736 2.34264,5.6 3.5,5.6 C4.65736,5.6 5.6,4.65736 5.6,3.5 C5.6,2.34264 4.65736,1.4 3.5,1.4 Z"></path></clipPath></defs><g transform="translate(-423.0 -393.0)"><g clip-path="url(#i0)"><g transform="translate(423.0 393.0)"><g transform="translate(3.0 1.0)"><g clip-path="url(#i1)"><polygon points="0,0 17,0 17,20 0,20 0,0" stroke="none" fill="#0A0A5E"></polygon></g><g transform="translate(5.0 4.0)"><g clip-path="url(#i2)"><polygon points="0,0 7,0 7,7 0,7 0,0" stroke="none" fill="#0A0A5E"></polygon></g></g></g></g></g></g></svg>