<?xml version="1.0" encoding="UTF-8"?><svg version="1.1" width="42px" height="42px" viewBox="0 0 42.0 42.0" xmlns="http://www.w3.org/2000/svg" xmlns:xlink="http://www.w3.org/1999/xlink"><defs><clipPath id="i0"><path d="M1920,0 L1920,3029 L0,3029 L0,0 L1920,0 Z"></path></clipPath><clipPath id="i1"><path d="M36.2916929,0 C37.7849374,0 39,1.31498768 39,2.93103448 L39,14.0689655 C39,15.6850123 37.7845596,17 36.2913151,17 L2.7083071,17 C1.21506263,17 0,15.6850123 0,14.0689655 L0,2.93103448 C0,1.31498768 1.21506263,0 2.7083071,0 Z M33.0413466,14.6551724 L5.95827561,14.6551724 L5.95827561,15.8274815 L33.0413466,15.8274815 L33.0413466,14.6551724 Z M37.9165895,12.3100308 L1.08361301,12.3100308 L1.08361301,14.0687562 C1.08361301,15.03829 1.81285372,15.8274815 2.708694,15.8274815 L4.87514622,15.8274815 L4.87514622,13.4828633 L34.1248629,13.4828633 L34.1248629,15.8274815 L36.2915085,15.8274815 C37.1873682,15.8274815 37.9162117,15.0386773 37.9165895,14.0687562 L37.9165895,12.3100308 Z M36.2913151,1.17230911 L2.70811365,1.17230911 C1.81226369,1.17230911 1.08341956,1.96152155 1.08341956,2.93103448 L1.08341956,11.1377217 L37.9163961,11.1377217 L37.9163961,2.93103448 C37.9163961,1.96150062 37.1871554,1.17230911 36.2913151,1.17230911 Z"></path></clipPath><clipPath id="i2"><path d="M5,0 L5,2 L0,2 L0,0 L5,0 Z"></path></clipPath><clipPath id="i3"><path d="M2,0 L2,2 L0,2 L0,0 L2,0 Z"></path></clipPath><clipPath id="i4"><path d="M2,0 C2,0.877674975 1.65580013,1.33604753 1.37959388,1.70473938 C1.15116886,2.0092599 1.00016516,2.21015119 1.00016516,2.66572792 C1.00016516,3.12131485 1.15116886,3.32299184 1.37994206,3.62751235 C1.65648756,3.9961736 2,4.45497471 2,5.33265989 C2,6.21035527 1.6557912,6.66952371 1.37994206,7.03821557 C1.15082068,7.34273608 0.999816981,7.54442327 0.999816981,8 L0,8 C0,7.12150873 0.344208802,6.66273823 0.620057941,6.29444432 C0.849179318,5.9899238 1.00018302,5.78823661 1.00018302,5.33265989 C1.00018302,4.87707295 0.849179318,4.67579391 0.620406123,4.37087546 C0.34386062,4.00221421 0,3.54381105 0,2.66572792 C0,1.78805295 0.344199874,1.32928245 0.620754304,0.960988539 C0.849179318,0.656070079 1.00018302,0.454780836 1.00018302,0 Z"></path></clipPath><clipPath id="i5"><path d="M1.99965182,0 C1.99965182,0.877674975 1.65580013,1.33604753 1.3792457,1.70473938 C1.15082068,2.0092599 0.999816981,2.21015119 0.999816981,2.66572792 C0.999816981,3.12131485 1.15082068,3.32299184 1.37994206,3.62751235 C1.65648756,3.9961736 2,4.45497471 2,5.33265989 C2,6.21035527 1.6557912,6.66952371 1.37994206,7.03821557 C1.15082068,7.34273608 0.999816981,7.54442327 0.999816981,8 L0,8 C0,7.12150873 0.34386062,6.66273823 0.619709759,6.29444432 C0.848831136,5.9899238 0.999834837,5.78823661 0.999834837,5.33265989 C0.999834837,4.87707295 0.848831136,4.67579391 0.620406123,4.37087546 C0.34386062,4.00221421 0,3.54381105 0,2.66572792 C0,1.78805295 0.343851692,1.32928245 0.620406123,0.960988539 C0.848831136,0.656070079 0.999834837,0.454780836 0.999834837,0 Z"></path></clipPath><clipPath id="i6"><path d="M2,0 C2,0.877674975 1.65580013,1.33604753 1.3792457,1.70473938 C1.15082068,2.0092599 0.999816981,2.21015119 0.999816981,2.66572792 C0.999816981,3.12131485 1.15082068,3.32299184 1.37994206,3.62751235 C1.65648756,3.9961736 2,4.45497471 2,5.33265989 C2,6.21035527 1.6557912,6.66952371 1.37994206,7.03821557 C1.15082068,7.34273608 0.999816981,7.54442327 0.999816981,8 L0,8 C0,7.12150873 0.344208802,6.66273823 0.619709759,6.29444432 C0.848831136,5.9899238 0.999834837,5.78823661 0.999834837,5.33265989 C0.999834837,4.87707295 0.848831136,4.67579391 0.620406123,4.37087546 C0.34386062,4.00221421 0,3.54381105 0,2.66572792 C0,1.78805295 0.344199874,1.32928245 0.620754304,0.960988539 C0.849179318,0.656070079 1.00018302,0.454780836 1.00018302,0 Z"></path></clipPath></defs><g transform="translate(-376.0 -1499.0)"><g clip-path="url(#i0)"><g transform="translate(376.0 1499.0)"><g transform="translate(2.0 8.0)"><g transform="translate(0.0 9.0)"><g clip-path="url(#i1)"><polygon points="0,0 39,0 39,17 0,17 0,0" stroke="none" fill="#0A0A5E"></polygon></g></g><g transform="translate(3.0 16.0)"><g clip-path="url(#i2)"><polygon points="0,0 5,0 5,2 0,2 0,0" stroke="none" fill="#0A0A5E"></polygon></g></g><g transform="translate(7.0 16.0)"><g clip-path="url(#i3)"><polygon points="0,0 2,0 2,2 0,2 0,0" stroke="none" fill="#0A0A5E"></polygon></g></g><g transform="translate(6.0 0.0)"><g clip-path="url(#i4)"><polygon points="0,0 2,0 2,8 0,8 0,0" stroke="none" fill="#0A0A5E"></polygon></g></g><g transform="translate(12.0 0.0)"><g clip-path="url(#i5)"><polygon points="0,0 2,0 2,8 0,8 0,0" stroke="none" fill="#0A0A5E"></polygon></g></g><g transform="translate(19.0 0.0)"><g clip-path="url(#i5)"><polygon points="0,0 2,0 2,8 0,8 0,0" stroke="none" fill="#0A0A5E"></polygon></g></g><g transform="translate(25.0 0.0)"><g clip-path="url(#i5)"><polygon points="0,0 2,0 2,8 0,8 0,0" stroke="none" fill="#0A0A5E"></polygon></g></g><g transform="translate(31.0 0.0)"><g clip-path="url(#i6)"><polygon points="0,0 2,0 2,8 0,8 0,0" stroke="none" fill="#0A0A5E"></polygon></g></g></g></g></g></g></svg>