<?xml version="1.0" encoding="UTF-8"?><svg version="1.1" width="44px" height="44px" viewBox="0 0 44.0 44.0" xmlns="http://www.w3.org/2000/svg" xmlns:xlink="http://www.w3.org/1999/xlink"><defs><clipPath id="i0"><path d="M1920,0 L1920,1080 L0,1080 L0,0 L1920,0 Z"></path></clipPath><clipPath id="i1"><path d="M15,0 C23.2842712,0 30,6.71572875 30,15 C30,23.2842712 23.2842712,30 15,30 C6.71572875,30 0,23.2842712 0,15 C0,6.71572875 6.71572875,0 15,0 Z"></path></clipPath></defs><g transform="translate(-684.0 -771.0)"><g clip-path="url(#i0)"><g transform="translate(684.0 771.0)"><g transform="translate(7.0 7.0)"><g transform="translate(9.0 8.950000000000001)"><g transform="translate(0.0 0.05000000000001137)"><path d="M7,14 L0.770970095,8.00151 L0.770970095,7.49767208 L2.62095794,7.49767208 C4.61390712,7.49767208 6.24264527,5.80999119 6.24264527,3.74883604 C6.24264527,1.68591921 4.6122052,0 2.62095794,0 L0,0" stroke="#0A0A5E" stroke-width="1.5" fill="none" stroke-miterlimit="10"></path></g><path d="M0,0.05 L11,0.05" stroke="#0A0A5E" stroke-width="1.5" fill="none" stroke-miterlimit="10"></path><g transform="translate(0.0 4.0)"><path d="M0,0.05 L11,0.05" stroke="#0A0A5E" stroke-width="1.5" fill="none" stroke-miterlimit="10"></path></g></g><g clip-path="url(#i1)"><path d="M15,30 C23.2842712,30 30,23.2842712 30,15 C30,6.71572875 23.2842712,0 15,0 C6.71572875,0 0,6.71572875 0,15 C0,23.2842712 6.71572875,30 15,30 Z" stroke="#0A0A5E" stroke-width="2.6" fill="none" stroke-miterlimit="5"></path></g></g></g></g></g></svg>