<?xml version="1.0" encoding="UTF-8"?><svg version="1.1" width="42px" height="42px" viewBox="0 0 42.0 42.0" xmlns="http://www.w3.org/2000/svg" xmlns:xlink="http://www.w3.org/1999/xlink"><defs><clipPath id="i0"><path d="M1920,0 L1920,3029 L0,3029 L0,0 L1920,0 Z"></path></clipPath></defs><g transform="translate(-376.0 -2075.0)"><g clip-path="url(#i0)"><g transform="translate(376.0 2075.0)"><g transform="translate(7.0 3.0)"><path d="M28.1571061,18.3282418 C27.1382089,17.7218928 26.9647084,17.2567866 26.8703957,16.5478911 C26.6451432,14.8461844 25.8262661,10.583462 25.5555442,8.78661265 C25.9801914,8.86663837 26.3005928,8.92679 26.6195981,8.98667352 C26.1790407,6.37760531 25.3754993,5.65736691 22.2168599,5.23039348 C19.7777456,4.90036385 17.3161621,4.66727801 14.8725395,4.35121731 C14.3993181,4.2897231 13.817866,4.14068661 13.5323829,3.87242411 C10.8035679,1.29559716 7.0518564,0.386310802 3.00237269,0.0659604241 C0.690220679,-0.116103082 0,-0.0288316651 0,1.74862484 L0,29.5153032 C0,30.3646441 0.570937282,30.9777095 1.7872149,30.9777095 C3.12082713,30.9777095 4.68051353,30.9680426 4.94556351,30.9626716 C5.41395662,30.9527359 5.90992367,30.9610604 6.49790559,30.9610604 L7.91957694,30.9669682 C7.91020312,30.830283 7.90537477,30.6935979 7.90537477,30.5542318 C7.90537477,27.2488483 10.7424639,24.5691793 14.2395965,24.5691793 C17.7359293,24.5691793 20.5724367,27.2488483 20.5724367,30.5542318 C20.5724367,30.705147 20.5610748,30.852302 20.5488607,31 C22.5014319,30.9624049 24.5442437,30.8364632 25.3552457,30.6202954 C26.324696,30.3603579 27.0092448,29.8622474 27.2169219,29.5381161 C27.5682858,28.9886946 27.8301799,27.509322 27.9605888,26.6720801 C28.0909687,25.8347695 28.8769564,21.007653 28.9842853,20.0994666 C29.0907997,19.1910051 28.6383169,18.6147182 28.1571403,18.3284652 L28.1571061,18.3282418 Z M13.0005099,12.6656456 L13.0005099,7.8475115 C13.0005099,7.11452841 13.2580069,6.91601637 14.1565223,7.02991451 C16.743438,7.35859295 19.1723679,7.63402671 21.7477023,8.01093643 C22.6385115,8.14166963 22.8983247,8.39496478 22.9415905,8.96166198 C23.0226811,10.0220347 24,16 24,16 C23.8028274,15.9565102 15.1932528,13.3991218 15.1932528,13.3991218 L13.0005099,12.6656456 Z" stroke="#0A0A5E" stroke-width="1.5" fill="none" stroke-miterlimit="10"></path><g transform="translate(8.0 25.0)"><path d="M6,0 C2.68749363,0 0,2.68580384 0,6.00015289 C0,9.31366104 2.68718785,12 6,12 C9.31342371,12 12,9.31419616 12,6.00015289 C12,2.68633896 9.31334726,0 6,0 L6,0 Z M6.1,8.5 C4.71996207,8.5 3.6,7.38126177 3.6,6.00010016 C3.6,4.61920565 4.71949467,3.5 6.1,3.5 C7.48050533,3.5 8.6,4.61873823 8.6,6.00010016 C8.6,7.38099467 7.48003793,8.5 6.1,8.5 Z" stroke="#0A0A5E" stroke-width="1.5" fill="none" stroke-miterlimit="10"></path></g></g></g></g></g></svg>