<?xml version="1.0" encoding="UTF-8"?>
<svg width="20px" height="20px" viewBox="0 0 20 20" version="1.1" xmlns="http://www.w3.org/2000/svg" xmlns:xlink="http://www.w3.org/1999/xlink">
    <title>F252EEB3-B49B-4758-B8A4-07F96B778777</title>
    <g id="Desktop" stroke="none" stroke-width="1" fill="none" fill-rule="evenodd">
        <g id="Blogs" transform="translate(-874.000000, -300.000000)">
            <g id="Group-2" transform="translate(874.000000, 300.000000)">
                <rect id="Rectangle" stroke="#979797" fill="#D8D8D8" opacity="0" x="0.5" y="0.5" width="19" height="19"></rect>
                <path d="M4.16666667,17 C3.85555556,17 3.58333333,16.8875 3.35,16.6625 C3.11666667,16.4375 3,16.175 3,15.875 L3,4.25 C3,3.95 3.11666667,3.6875 3.35,3.4625 C3.58333333,3.2375 3.85555556,3.125 4.16666667,3.125 L5.43055556,3.125 L5.43055556,2 L6.69444444,2 L6.69444444,3.125 L13.3055556,3.125 L13.3055556,2 L14.5694444,2 L14.5694444,3.125 L15.8333333,3.125 C16.1444444,3.125 16.4166667,3.2375 16.65,3.4625 C16.8833333,3.6875 17,3.95 17,4.25 L17,15.875 C17,16.175 16.8833333,16.4375 16.65,16.6625 C16.4166667,16.8875 16.1444444,17 15.8333333,17 L4.16666667,17 Z M4.16666667,15.875 L15.8333333,15.875 L15.8333333,7.8125 L4.16666667,7.8125 L4.16666667,15.875 Z M4.16666667,6.6875 L15.8333333,6.6875 L15.8333333,4.25 L4.16666667,4.25 L4.16666667,6.6875 Z M4.16666667,6.6875 L4.16666667,4.25 L4.16666667,6.6875 Z M10,11 C9.77962963,11 9.59490741,10.928125 9.44583333,10.784375 C9.29675926,10.640625 9.22222222,10.4625 9.22222222,10.25 C9.22222222,10.0375 9.29675926,9.859375 9.44583333,9.715625 C9.59490741,9.571875 9.77962963,9.5 10,9.5 C10.2203704,9.5 10.4050926,9.571875 10.5541667,9.715625 C10.7032407,9.859375 10.7777778,10.0375 10.7777778,10.25 C10.7777778,10.4625 10.7032407,10.640625 10.5541667,10.784375 C10.4050926,10.928125 10.2203704,11 10,11 Z M6.88888889,11 C6.66851852,11 6.4837963,10.928125 6.33472222,10.784375 C6.18564815,10.640625 6.11111111,10.4625 6.11111111,10.25 C6.11111111,10.0375 6.18564815,9.859375 6.33472222,9.715625 C6.4837963,9.571875 6.66851852,9.5 6.88888889,9.5 C7.10925926,9.5 7.29398148,9.571875 7.44305556,9.715625 C7.59212963,9.859375 7.66666667,10.0375 7.66666667,10.25 C7.66666667,10.4625 7.59212963,10.640625 7.44305556,10.784375 C7.29398148,10.928125 7.10925926,11 6.88888889,11 Z M13.1111111,11 C12.8907407,11 12.7060185,10.928125 12.5569444,10.784375 C12.4078704,10.640625 12.3333333,10.4625 12.3333333,10.25 C12.3333333,10.0375 12.4078704,9.859375 12.5569444,9.715625 C12.7060185,9.571875 12.8907407,9.5 13.1111111,9.5 C13.3314815,9.5 13.5162037,9.571875 13.6652778,9.715625 C13.8143519,9.859375 13.8888889,10.0375 13.8888889,10.25 C13.8888889,10.4625 13.8143519,10.640625 13.6652778,10.784375 C13.5162037,10.928125 13.3314815,11 13.1111111,11 Z M10,14 C9.77962963,14 9.59490741,13.928125 9.44583333,13.784375 C9.29675926,13.640625 9.22222222,13.4625 9.22222222,13.25 C9.22222222,13.0375 9.29675926,12.859375 9.44583333,12.715625 C9.59490741,12.571875 9.77962963,12.5 10,12.5 C10.2203704,12.5 10.4050926,12.571875 10.5541667,12.715625 C10.7032407,12.859375 10.7777778,13.0375 10.7777778,13.25 C10.7777778,13.4625 10.7032407,13.640625 10.5541667,13.784375 C10.4050926,13.928125 10.2203704,14 10,14 Z M6.88888889,14 C6.66851852,14 6.4837963,13.928125 6.33472222,13.784375 C6.18564815,13.640625 6.11111111,13.4625 6.11111111,13.25 C6.11111111,13.0375 6.18564815,12.859375 6.33472222,12.715625 C6.4837963,12.571875 6.66851852,12.5 6.88888889,12.5 C7.10925926,12.5 7.29398148,12.571875 7.44305556,12.715625 C7.59212963,12.859375 7.66666667,13.0375 7.66666667,13.25 C7.66666667,13.4625 7.59212963,13.640625 7.44305556,13.784375 C7.29398148,13.928125 7.10925926,14 6.88888889,14 Z M13.1111111,14 C12.8907407,14 12.7060185,13.928125 12.5569444,13.784375 C12.4078704,13.640625 12.3333333,13.4625 12.3333333,13.25 C12.3333333,13.0375 12.4078704,12.859375 12.5569444,12.715625 C12.7060185,12.571875 12.8907407,12.5 13.1111111,12.5 C13.3314815,12.5 13.5162037,12.571875 13.6652778,12.715625 C13.8143519,12.859375 13.8888889,13.0375 13.8888889,13.25 C13.8888889,13.4625 13.8143519,13.640625 13.6652778,13.784375 C13.5162037,13.928125 13.3314815,14 13.1111111,14 Z" id="Shape" fill="#0096C5" fill-rule="nonzero"></path>
            </g>
        </g>
    </g>
</svg>