<?xml version="1.0" encoding="UTF-8"?>
<svg width="22px" height="22px" viewBox="0 0 22 22" version="1.1" xmlns="http://www.w3.org/2000/svg" xmlns:xlink="http://www.w3.org/1999/xlink">
    <title>0246B309-B302-48C4-93F2-D6EAE9AA466F</title>
    <g id="Desktop" stroke="none" stroke-width="1" fill="none" fill-rule="evenodd">
        <g id="Booking-Guide" transform="translate(-689.000000, -842.000000)">
            <g id="Group-7" transform="translate(689.000000, 842.000000)">
                <rect id="Rectangle" stroke="#979797" fill="#D8D8D8" opacity="0" x="0.5" y="0.5" width="21" height="21"></rect>
                <g id="Group-5" transform="translate(2.000000, 2.000000)" fill="#FFFFFF" fill-rule="nonzero">
                    <path d="M9,0 C4.03067485,0 0,4.03067485 0,9 C0,13.9693252 4.03067485,18 9,18 C13.9693252,18 18,13.9693252 18,9 C18,4.03067485 13.9693252,0 9,0 L9,0 Z M9,16.4723926 C4.87730061,16.4723926 1.50920245,13.1226994 1.50920245,8.98159509 C1.50920245,4.85889571 4.87730061,1.50920245 9,1.50920245 C13.1226994,1.50920245 16.4907975,4.85889571 16.4907975,9 C16.4723105,13.1226994 13.1226994,16.4723926 9,16.4723926 Z" id="Shape"></path>
                    <path d="M13,12.4811025 L11.0552628,10.6533795 C11.0552628,10.6533795 10.0508578,11.7797669 9.60215737,11.6097082 C9.60215737,11.6097082 8.19167813,10.7808571 7.12316215,8.50675374 C6.9093979,8.08173984 8.38397284,7.29528004 8.38397284,7.29528004 L7.0162724,5 C7.0162724,5 4.85790829,6.08384429 5.00742421,7.31649468 C5.15708895,8.57035972 6.14005114,11.9708125 10.0294493,13.8622933 C11.3758176,14.542604 13,12.4810645 13,12.4810645 L13,12.4811025 Z" id="Path"></path>
                </g>
            </g>
        </g>
    </g>
</svg>