<?xml version="1.0" encoding="UTF-8"?><svg version="1.1" width="32px" height="32px" viewBox="0 0 32.0 32.0" xmlns="http://www.w3.org/2000/svg" xmlns:xlink="http://www.w3.org/1999/xlink"><defs><clipPath id="i0"><path d="M1920,0 L1920,1080 L0,1080 L0,0 L1920,0 Z"></path></clipPath><clipPath id="i1"><path d="M13,0 C20.1779141,0 26,5.82208589 26,13 C26,20.1779141 20.1779141,26 13,26 C5.82208589,26 0,20.1779141 0,13 C0,5.82208589 5.82208589,0 13,0 Z M13,2.1799591 C7.04498978,2.1799591 2.1799591,7.01840491 2.1799591,12.9734151 C2.1799591,18.9550102 7.04498978,23.793456 13,23.793456 C18.9550102,23.793456 23.7933374,18.9550102 23.8200409,13 C23.8200409,7.01840491 18.9550102,2.1799591 13,2.1799591 Z"></path></clipPath><clipPath id="i2"><path d="M3.02440859,0 L5.07595926,3.3154045 C5.07595926,3.3154045 2.86409685,4.45140198 3.18474323,5.06531096 C4.4758667,7.7114127 6.09985025,9.00283829 6.68258378,9.40501384 L6.7878413,9.47568678 C6.80275775,9.48540175 6.81632342,9.49409751 6.82848195,9.50179315 L6.8840968,9.53611819 C6.89670606,9.54366117 6.90323606,9.54735632 6.90323606,9.54735632 C7.57628663,9.79299666 9.08289415,8.16599259 9.08289415,8.16599259 L12,10.806 C11.8686715,10.9639118 9.64051442,13.5992935 7.71337343,12.8739606 L7.54417391,12.8010904 C1.71007671,10.0689515 0.235633426,5.15718626 0.0111363118,3.34604788 C-0.190710171,1.74360237 2.41151756,0.315259994 2.93398158,0.0456159752 L3.0138649,0.00516848693 L3.02440859,0 Z"></path></clipPath></defs><g transform="translate(-843.0 -718.0)"><g clip-path="url(#i0)"><g transform="translate(570.0 263.0)"><g transform="translate(71.0 64.0)"><g transform="translate(202.0 391.0)"><g transform="translate(3.0 3.0)"><g clip-path="url(#i1)"><polygon points="0,0 26,0 26,26 0,26 0,0" stroke="none" fill="#0A0A5E"></polygon></g><path d="M13,0 C5.82208589,0 0,5.82208589 0,13 C0,20.1779141 5.82208589,26 13,26 C20.1779141,26 26,20.1779141 26,13 C26,5.82208589 20.1779141,0 13,0 L13,0 Z M13,23.793456 C7.04498978,23.793456 2.1799591,18.9550102 2.1799591,12.9734151 C2.1799591,7.01840491 7.04498978,2.1799591 13,2.1799591 C18.9550102,2.1799591 23.8200409,7.01840491 23.8200409,13 C23.7933374,18.9550102 18.9550102,23.793456 13,23.793456 Z" stroke="#FFFFFF" stroke-width="0.5" fill="none" stroke-miterlimit="10"></path></g><g transform="translate(10.0 10.0)"><g clip-path="url(#i2)"><polygon points="8.8817842e-16,0 12,0 12,13 8.8817842e-16,13 8.8817842e-16,0" stroke="none" fill="#0A0A5E"></polygon></g><path d="M12,10.8060369 L9.08289415,8.16599259 C9.08289415,8.16599259 7.57628663,9.79299666 6.90323606,9.54735632 C6.90323606,9.54735632 4.78751719,8.35012691 3.18474323,5.06531096 C2.86409685,4.45140198 5.07595926,3.3154045 5.07595926,3.3154045 L3.02440859,0 C3.02440859,0 -0.213137558,1.56555286 0.0111363118,3.34604788 C0.235633426,5.15718626 1.71007671,10.0689515 7.54417391,12.8010904 C9.56372634,13.7837613 12,10.8059821 12,10.8059821 L12,10.8060369 Z" stroke="#FFFFFF" stroke-width="0.5" fill="none" stroke-miterlimit="10"></path></g></g></g></g></g></g></svg>