<?xml version="1.0" encoding="UTF-8"?><svg version="1.1" width="22px" height="22px" viewBox="0 0 22.0 22.0" xmlns="http://www.w3.org/2000/svg" xmlns:xlink="http://www.w3.org/1999/xlink"><defs><clipPath id="i0"><path d="M1920,0 L1920,1653 L0,1653 L0,0 L1920,0 Z"></path></clipPath><clipPath id="i1"><path d="M9,0 C13.9693252,0 18,4.03067485 18,9 C18,13.9693252 13.9693252,18 9,18 C4.03067485,18 0,13.9693252 0,9 C0,4.03067485 4.03067485,0 9,0 Z M9,1.50920245 C4.87730061,1.50920245 1.50920245,4.85889571 1.50920245,8.98159509 C1.50920245,13.1226994 4.87730061,16.4723926 9,16.4723926 C13.1226994,16.4723926 16.4723105,13.1226994 16.4907975,9 C16.4907975,4.85889571 13.1226994,1.50920245 9,1.50920245 Z"></path></clipPath><clipPath id="i2"><path d="M2.0162724,0 L3.38397284,2.29528004 C3.38397284,2.29528004 1.9093979,3.08173984 2.12316215,3.50675374 C3.11798737,5.62402238 4.40923497,6.48850996 4.58260646,6.59767938 L4.60215737,6.60970822 C5.05085776,6.77976692 6.05526277,5.65337949 6.05526277,5.65337949 L8,7.48106453 C8,7.48106453 7.96909998,7.52028526 7.91229103,7.58612198 L7.80826979,7.70326345 C7.33981667,8.21674721 6.09725861,9.40185007 5.02944928,8.86229332 C1.14005114,6.97081255 0.15708895,3.57035972 0.00742420785,2.31649468 C-0.142091706,1.08384429 2.0162724,0 2.0162724,0 Z"></path></clipPath></defs><g transform="translate(-423.0 -361.0)"><g clip-path="url(#i0)"><g transform="translate(423.0 361.0)"><g transform="translate(2.0 2.0)"><g clip-path="url(#i1)"><polygon points="0,0 18,0 18,18 0,18 0,0" stroke="none" fill="#0A0A5E"></polygon></g></g><g transform="translate(7.0 7.0)"><g clip-path="url(#i2)"><polygon points="8.8817842e-16,0 8,0 8,9 8.8817842e-16,9 8.8817842e-16,0" stroke="none" fill="#0A0A5E"></polygon></g></g></g></g></g></svg>