<?xml version="1.0" encoding="UTF-8"?><svg version="1.1" width="78px" height="66px" viewBox="0 0 78.0 66.0" xmlns="http://www.w3.org/2000/svg" xmlns:xlink="http://www.w3.org/1999/xlink"><defs><clipPath id="i0"><path d="M1920,0 L1920,2095 L0,2095 L0,0 L1920,0 Z"></path></clipPath><clipPath id="i1"><path d="M4.33651762,0 C6.72748759,0 8.67303525,1.94858515 8.67303525,4.34328803 C8.67303525,6.73799091 6.72748759,8.68657607 4.33651762,8.68657607 C1.94554766,8.68657607 0,6.73799091 0,4.34328803 C0,1.94858515 1.94554766,0 4.33651762,0 Z M4.33651762,1.7371601 C2.90207503,1.7371601 1.73445217,2.90660591 1.73445217,4.34328803 C1.73445217,5.77997016 2.90210601,6.94941597 4.33651762,6.94941597 C5.77096021,6.94941597 6.93858307,5.77997016 6.93858307,4.34328803 C6.93858307,2.90660591 5.77096021,1.7371601 4.33651762,1.7371601 Z"></path></clipPath><clipPath id="i2"><path d="M30.7268503,6.06098089 C33.2714569,-2.02032696 44.7310145,-2.02032696 47.2737626,6.06098089 L60.7056613,6.06098089 C61.4975404,5.01275935 62.7414395,4.3238208 64.1522635,4.3238208 C67.5075511,4.3238208 69.5928895,8.0011897 67.8777968,10.8672945 L75.9446488,30.3841695 L77.1304076,30.3841695 C77.6398091,30.3841695 78.031838,30.8210577 77.997959,31.3294241 C77.513508,38.5648766 71.4992227,44.2829704 64.1523874,44.2829704 C56.8055522,44.2829704 50.7926143,38.5642561 50.3068159,31.3294241 C50.2729446,30.8204372 50.6661893,30.3841695 51.1743673,30.3841695 L52.358887,30.3841695 L60.2581636,11.2737021 L47.2727714,11.2737021 C46.6164085,13.3586355 45.191088,15.1001389 43.3361426,16.1792908 L43.3361426,50.36407 L52.0097974,50.36407 C55.5628766,50.36407 57.6306986,54.436523 55.4563996,57.313486 L61.5498264,57.313486 C63.9407964,57.313486 65.886344,59.2620711 65.886344,61.656774 L65.886344,65.1310942 C65.886344,65.6109965 65.4973274,66 65.0187927,66 L12.9805812,66 C12.501427,66 12.1130299,65.610376 12.1130299,65.1310942 L12.1130299,61.656774 C12.1130299,59.2620711 14.0585776,57.313486 16.4495475,57.313486 L22.5435938,57.313486 C20.3668168,54.4334207 22.4401369,50.36407 25.990196,50.36407 L34.6632313,50.36407 L34.6632313,16.1792908 C32.8082859,15.1001389 31.3830119,13.3586355 30.7266025,11.2737021 L17.7412103,11.2737021 L25.6404869,30.3841695 L26.8262457,30.3841695 C27.3356471,30.3841695 27.727676,30.8210577 27.693797,31.3294241 C27.209346,38.5648766 21.1950607,44.2829704 13.8482255,44.2829704 C6.50139024,44.2829704 0.487832839,38.5642561 0.00203445232,31.3294241 C-0.0318368478,30.8204372 0.361407863,30.3841695 0.869585778,30.3841695 L2.05596407,30.3841695 L10.1234356,10.8672945 C8.40586488,7.997622 10.4973054,4.3238208 13.8483494,4.3238208 C15.2586469,4.3238208 16.5024221,5.01272833 17.2949516,6.06098089 Z M61.5514991,59.0497154 L16.4517158,59.0497154 C15.0172732,59.0497154 13.8496503,60.2191922 13.8496503,61.6558433 L13.8496503,64.2619712 L64.1532548,64.2619712 L64.1532548,61.6558433 C64.1532548,60.2191612 62.9859107,59.0497154 61.5514991,59.0497154 Z M52.0113152,52.1002994 L25.9922094,52.1002994 C22.5522668,52.1002994 22.5541253,57.3125553 25.9922094,57.3125553 L52.0113152,57.3125553 C55.4512578,57.3125553 55.4493993,52.1002994 52.0113152,52.1002994 Z M41.6038277,16.9539473 C39.9097981,17.4883734 38.0173728,17.464144 36.3996968,16.9539473 L36.3996968,50.3631393 L41.6038277,50.3631393 Z M25.8690833,32.12195 L1.83083686,32.12195 C2.6764578,38.035802 7.78983158,42.5456862 13.8499601,42.5456862 C19.9105532,42.5456862 25.023323,38.0351816 25.8690833,32.12195 Z M76.1716036,32.12195 L52.1333572,32.12195 C52.9789781,38.035802 58.0917324,42.5456862 64.1524804,42.5456862 L64.152,42.545 L64.4591936,42.5418141 C70.2823819,42.3949611 75.1684325,38.0873811 76.1249074,32.4213988 L76.1716036,32.12195 Z M13.8498733,6.06206671 C11.718557,6.06206671 10.4662435,8.5057867 11.7929701,10.2417059 C11.9811192,10.4871171 12.0240724,10.8149113 11.9054966,11.1015218 L3.93482228,30.3841695 L5.81206979,30.3841695 L13.0477043,12.8776163 C13.3423862,12.163828 14.3557374,12.163828 14.6503573,12.8776163 L21.8872309,30.3841695 L23.7649244,30.3851002 L15.7942501,11.1009013 C15.6750672,10.8155007 15.7186337,10.4870861 15.9067766,10.2410854 C17.2583762,8.47181599 15.9165337,6.06206671 13.8498733,6.06206671 Z M64.1524804,15.480797 L57.992612,30.3841695 L70.3129683,30.3841695 L64.1524804,15.480797 Z M13.8499601,15.480797 L7.68947217,30.3841695 L20.0098285,30.3841695 L13.8499601,15.480797 Z M64.1533229,6.06098089 C62.0843198,6.06098089 60.74609,8.4719711 62.0964197,10.24062 C62.2845688,10.4860313 62.327522,10.8138255 62.2089461,11.100436 L54.2393374,30.3840143 L56.1159654,30.3840143 L63.3522194,12.8774612 C63.6469013,12.1636729 64.6602525,12.1636729 64.9548724,12.8774612 L72.191746,30.3840143 L74.068374,30.3840143 L66.0976997,11.0998155 C65.9785167,10.8144149 66.0220832,10.4860003 66.2102261,10.2399996 C67.5364261,8.50470088 66.2834823,6.06098089 64.1533229,6.06098089 Z M45.7630128,7.12973998 C44.132637,-0.0619694132 33.8679449,-0.0486293142 32.2398923,7.12973998 C31.5181719,10.336948 33.1183469,13.5004283 35.9460661,14.8970902 C41.140285,17.4590096 47.0467923,12.8338732 45.7630128,7.12973998 Z M30.3726536,7.79922681 L18.09876,7.79922681 C18.2064474,8.3257419 18.2288315,8.9098521 18.0963401,9.53638691 L30.3726536,9.53638691 C30.3139697,8.9468476 30.3145753,8.38454692 30.3726536,7.79922681 Z M59.9045516,7.79876146 L47.630658,7.79876146 C47.6893419,8.38830076 47.6887363,8.95060144 47.630658,9.53592155 L59.9069715,9.53592155 C59.7744809,8.91003824 59.796865,8.32530757 59.9045516,7.79876146 Z"></path></clipPath></defs><g transform="translate(-459.0 -317.0)"><g clip-path="url(#i0)"><g transform="translate(459.0 317.0)"><g transform="translate(34.66462516473952 4.324286148413062)"><g clip-path="url(#i1)"><polygon points="0,0 8.67303525,0 8.67303525,8.68657607 0,8.68657607 0,0" stroke="none" fill="#FFFFFF"></polygon></g></g><g clip-path="url(#i2)"><polygon points="-1.11022302e-16,0 78,0 78,66 -1.11022302e-16,66 -1.11022302e-16,0" stroke="none" fill="#FFFFFF"></polygon></g></g></g></g></svg>