<?xml version="1.0" encoding="UTF-8"?><svg version="1.1" width="60px" height="60px" viewBox="0 0 60.0 60.0" xmlns="http://www.w3.org/2000/svg" xmlns:xlink="http://www.w3.org/1999/xlink"><defs><clipPath id="i0"><path d="M1920,0 L1920,10566 L0,10566 L0,0 L1920,0 Z"></path></clipPath><clipPath id="i1"><path d="M30,0 C46.5685425,0 60,13.4314575 60,30 C60,46.5685425 46.5685425,60 30,60 C13.4314575,60 0,46.5685425 0,30 C0,13.4314575 13.4314575,0 30,0 Z"></path></clipPath><clipPath id="i2"><path d="M23.2300885,0 L25,1.65637066 L12.5,13 L0,1.60617761 L1.7699115,0 L12.5,9.73745174 L23.2300885,0 Z"></path></clipPath></defs><g transform="translate(-1790.0 -419.0)"><g clip-path="url(#i0)"><g transform="translate(1850.0 419.0) scale(-1.0 1.0)"><g clip-path="url(#i1)"><polygon points="0,0 60,0 60,60 0,60 0,0" stroke="none" fill="rgba(0, 0, 0, 0.608934)"></polygon></g><g transform="translate(36.0 18.0) rotate(90.0)"><g clip-path="url(#i2)"><polygon points="0,0 25,0 25,13 0,13 0,0" stroke="none" fill="#FFFFFF"></polygon></g></g></g></g></g></svg>