<?xml version="1.0" encoding="UTF-8"?><svg version="1.1" width="22px" height="22px" viewBox="0 0 22.0 22.0" xmlns="http://www.w3.org/2000/svg" xmlns:xlink="http://www.w3.org/1999/xlink"><defs><clipPath id="i0"><path d="M1920,0 L1920,1653 L0,1653 L0,0 L1920,0 Z"></path></clipPath><clipPath id="i1"><path d="M16.4870953,0 C17.3211824,0 18,0.694760176 18,1.54860273 L18,10.4513973 C18,11.3052398 17.3213146,12 16.4872275,12 L1.51277251,12 C0.678685418,12 0,11.3052398 0,10.4513973 L0,1.54860273 C0,0.694760176 0.678685418,0 1.51277251,0 Z M11.0866726,5.73423925 L10.3674197,6.25228741 C9.9584964,6.546834 9.47912978,6.69417137 9.00003383,6.69417137 C8.52066722,6.69417137 8.04170661,6.54696215 7.632648,6.25228741 L6.91339506,5.73423925 L1.75397837,11.009623 L16.2460893,11.009623 L11.0866726,5.73423925 Z M0.974725433,1.45663767 C0.969835136,1.48667386 0.967191853,1.51738719 0.967191853,1.54877591 L0.967191853,10.4148565 L6.11045801,5.156091 Z M17.0251616,1.45629824 L11.889429,5.15575157 L17.0326051,10.4148565 L17.0326951,1.54843648 C17.0326951,1.51704603 17.0300517,1.48633409 17.0251616,1.45629824 Z M15.9923985,0.990099924 L2.00746614,0.990099924 L8.18902185,5.44253627 C8.67407265,5.79173474 9.32592735,5.79173474 9.81084282,5.44253627 L15.9923985,0.990099924 Z"></path></clipPath></defs><g transform="translate(-423.0 -329.0)"><g clip-path="url(#i0)"><g transform="translate(423.0 329.0)"><g transform="translate(2.0 5.0)"><g clip-path="url(#i1)"><polygon points="0,0 18,0 18,12 0,12 0,0" stroke="none" fill="#0A0A5E"></polygon></g><path d="M16.4872275,0 L1.51277251,0 C0.678685418,0 0,0.694760176 0,1.54860273 L0,10.4513973 C0,11.3052398 0.678685418,12 1.51277251,12 L16.4872275,12 C17.3213146,12 18,11.3052398 18,10.4513973 L18,1.54860273 C18,0.694760176 17.3211824,0 16.4870953,0 L16.4872275,0 Z M15.9923985,0.990099924 L9.81084282,5.44253627 C9.32592735,5.79173474 8.67407265,5.79173474 8.18902185,5.44253627 L2.00746614,0.990099924 L15.9923985,0.990099924 Z M0.967191853,10.4148565 L0.967191853,1.54877591 C0.967191853,1.51738719 0.969835136,1.48667386 0.974725433,1.45663767 L6.11045801,5.156091 L0.967191853,10.4148565 Z M1.75397837,11.009623 L6.91339506,5.73423925 L7.632648,6.25228741 C8.04170661,6.54696215 8.52066722,6.69417137 9.00003383,6.69417137 C9.47912978,6.69417137 9.9584964,6.546834 10.3674197,6.25228741 L11.0866726,5.73423925 L16.2460893,11.009623 L1.75397837,11.009623 Z M17.0326051,10.4148565 L11.889429,5.15575157 L17.0251616,1.45629824 C17.0300517,1.48633409 17.0326951,1.51704603 17.0326951,1.54843648 L17.0326051,10.4148565 Z" stroke="#0A0A5E" stroke-width="0.3" fill="none" stroke-miterlimit="10"></path></g></g></g></g></svg>