<?xml version="1.0" encoding="UTF-8"?>
<svg width="22px" height="22px" viewBox="0 0 22 22" version="1.1" xmlns="http://www.w3.org/2000/svg" xmlns:xlink="http://www.w3.org/1999/xlink">
    <title>5FD3BEAF-382C-4919-8666-DB04ABA0746E</title>
    <g id="Desktop" stroke="none" stroke-width="1" fill="none" fill-rule="evenodd">
        <g id="Booking-Guide" transform="translate(-1007.000000, -842.000000)">
            <g id="Group-6" transform="translate(1007.000000, 842.000000)">
                <rect id="Rectangle-Copy" stroke="#979797" fill="#D8D8D8" opacity="0" x="0.5" y="0.5" width="21" height="21"></rect>
                <path d="M18.4872275,5 L3.51277251,5 C2.67868542,5 2,5.69476018 2,6.54860273 L2,15.4513973 C2,16.3052398 2.67868542,17 3.51277251,17 L18.4872275,17 C19.3213146,17 20,16.3052398 20,15.4513973 L20,6.54860273 C20,5.69476018 19.3211824,5 18.4870953,5 L18.4872275,5 Z M17.9923985,5.99009992 L11.8108428,10.4425363 C11.3259273,10.7917347 10.6740727,10.7917347 10.1890218,10.4425363 L4.00746614,5.99009992 L17.9923985,5.99009992 Z M2.96719185,15.4148565 L2.96719185,6.54877591 C2.96719185,6.51738719 2.96983514,6.48667386 2.97472543,6.45663767 L8.11045801,10.156091 L2.96719185,15.4148565 Z M3.75397837,16.009623 L8.91339506,10.7342393 L9.632648,11.2522874 C10.0417066,11.5469621 10.5206672,11.6941714 11.0000338,11.6941714 C11.4791298,11.6941714 11.9584964,11.546834 12.3674197,11.2522874 L13.0866726,10.7342393 L18.2460893,16.009623 L3.75397837,16.009623 Z M19.0326051,15.4148565 L13.889429,10.1557516 L19.0251616,6.45629824 C19.0300517,6.48633409 19.0326951,6.51704603 19.0326951,6.54843648 L19.0326051,15.4148565 Z" id="Shape" stroke="#FFFFFF" stroke-width="0.3" fill="#FFFFFF" fill-rule="nonzero"></path>
            </g>
        </g>
    </g>
</svg>