<?xml version="1.0" encoding="UTF-8"?><svg version="1.1" width="42px" height="42px" viewBox="0 0 42.0 42.0" xmlns="http://www.w3.org/2000/svg" xmlns:xlink="http://www.w3.org/1999/xlink"><defs><clipPath id="i0"><path d="M1920,0 L1920,3029 L0,3029 L0,0 L1920,0 Z"></path></clipPath><clipPath id="i1"><path d="M17.5521043,0 C17.7572853,0 17.9485586,0.014409939 18.153746,0.0468324666 C19.2213994,0.219751735 19.9760865,1.25726735 19.9934752,2.34524245 L19.986,2.211 L19.9909074,2.23722688 L19.9969086,2.33785929 L19.9969086,2.38469175 C20.0038643,2.7449567 19.9969086,3.10879201 19.9969086,3.46904378 L19.9969086,30.091365 C19.9969086,30.5777062 19.596963,30.9919944 19.1274727,30.9919944 L19.0961732,30.9919944 C18.3554485,31.010007 17.6146602,30.9919944 16.8739354,30.9919944 L0.869435811,30.9919944 C0.399939201,30.9919944 0,30.5776996 0,30.091365 L0,2.66947826 C0,2.10750711 0.041735717,1.54909974 0.365160497,1.06636843 C0.810307563,0.403478293 1.49545249,0.00720529889 2.28139143,0 Z M17.966,1.861 L18.0042115,1.86971116 C17.9624822,1.85890387 17.9137958,1.83368599 17.8720601,1.8228787 C17.8303244,1.81207141 17.7712063,1.80846876 17.7329516,1.79045617 L17.772,1.801 L17.7190421,1.80126366 C17.0443687,1.79165703 16.3681408,1.79485924 15.6924311,1.79806145 L14.6795143,1.80126366 L3.30047424,1.80126366 C2.95961877,1.80126366 2.61535475,1.79766121 2.27453744,1.80126366 L2.26309163,1.80197785 C2.25456479,1.8021879 2.24273257,1.80242946 2.2297749,1.80268153 L2.193,1.803 L2.13369449,1.8179255 L2.074,1.834 L2.02852649,1.8699783 C2.00121989,1.88785745 1.9717236,1.90520303 1.94325751,1.92108086 L1.911,1.938 L1.908,1.94 L1.896,1.952 L1.895,1.953 L1.89256689,1.96617696 C1.88636176,1.97915858 1.87293758,1.99760178 1.85010429,2.01806184 L1.822,2.038 L1.79,2.094 L1.78617122,2.11556667 C1.76410284,2.2135009 1.75336912,2.2009576 1.76633544,2.15479269 L1.771,2.138 L1.75288231,2.19393005 C1.75056394,2.20593954 1.74515427,2.23716184 1.73974458,2.26704961 L1.735,2.287 L1.735,29.187 L2.37885433,29.1925032 L3.11959553,29.1981071 L18.253,29.198 L18.2546594,28.967552 L18.2545394,2.34503955 L18.253,2.33 C18.2456918,2.33454698 18.2406382,2.31217234 18.2427982,2.2584512 L18.244,2.231 L18.244,2.23 L18.2267816,2.16917061 L18.215,2.132 L18.166,2.054 C18.1630017,2.05770392 18.1506509,2.03992843 18.1264072,1.99395652 L18.122,1.986 L18.1154926,1.97778801 C18.0969448,1.95617168 18.0675784,1.9361574 18.0438791,1.91454223 L18.034,1.904 L18.0024725,1.88277036 L17.966,1.861 Z"></path></clipPath><clipPath id="i2"><path d="M1.86801195,-1.82839854e-15 L3.74244242,0.00881057269 L24.1083659,0.00881057269 C24.6072722,0.00881057269 24.9778875,0.464756259 24.9992606,1 C25.0206338,1.53524374 24.5751929,1.99118943 24.1083659,1.99118943 L24.0691671,1.99118943 C23.1320074,2.01101322 22.1947825,1.99118943 21.2575576,1.99118943 L0.891634075,1.99118943 C0.392727823,1.99118943 0.0221209654,1.53523649 0.000739361961,1 C-0.0206337704,0.464756259 0.42480707,0.00881057269 0.891634075,0.00881057269 L0.930832921,0.00881057269 C1.2432195,0.00220264317 1.55561331,-1.83251851e-15 1.86801195,-1.83215711e-15 Z"></path></clipPath><clipPath id="i3"><path d="M8.473,22.133 L8.41116413,22.1466676 C8.44212487,22.1429628 8.47308372,22.1392587 8.50404256,22.1318492 C8.56595522,22.1207355 8.62443542,22.1059171 8.68635249,22.0910987 C8.81362474,22.054051 8.93401571,22.0058903 9.05785362,21.9614351 L9.027,21.972 L9.10257188,21.9317983 C9.13353136,21.9151306 9.16363083,21.8975344 9.19330014,21.8794744 L9.28144745,21.8243674 C9.33304448,21.7910319 9.38464025,21.7576883 9.4327979,21.720642 L9.447,21.708 L9.53127375,21.6191088 C9.56516228,21.5867275 9.60045208,21.5553063 9.6347229,21.5233367 L9.73205816,21.4242739 C9.77333955,21.3761166 9.81117717,21.3279553 9.85245542,21.2797953 L9.848,21.283 L9.86621484,21.25757 C9.90577277,21.1982964 9.94275069,21.1371718 9.97757877,21.0746576 L10.0760436,20.8834078 C10.0863631,20.8632009 10.0977059,20.8316963 10.107281,20.8021956 L10.095,20.854 L10.1216223,20.7685638 L10.1551607,20.6759481 C10.1998771,20.535175 10.234276,20.3906964 10.2583548,20.2425123 L10.249,20.285 L10.2466337,20.2978068 C10.2398389,20.3179301 10.2365831,20.3064186 10.2569203,20.2105508 L10.262,20.186 L10.262,20.183 L10.2665243,20.1383203 L10.2721142,20.0350547 L10.2721142,8.66192362 C10.2721142,8.39887745 10.2755541,8.13955705 10.2721142,7.87653121 C10.2721142,7.83577805 10.2721142,7.79132284 10.2686743,7.74686762 C10.2686743,7.74964671 10.2680293,7.74339546 10.2670619,7.73245535 L10.2656649,7.71167289 C10.2620101,7.69500223 10.2580327,7.67370084 10.256044,7.65633556 L10.254,7.638 L10.2368559,7.55422768 L10.2033172,7.42086203 C10.1895578,7.38381433 10.1757984,7.34677068 10.165479,7.30602024 L10.171,7.325 L10.122912,7.2212764 L10.0519643,7.08744758 C10.0313248,7.05040461 10.0106854,7.0207678 9.99004658,6.98372213 L9.982,6.966 L9.02130527,5.73200721 L8.05684872,4.49790503 C7.30003358,3.52730796 6.54328134,2.55298512 5.7865291,1.58238805 C5.47694063,1.18230804 5.4494218,0.66737947 5.7865291,0.270984592 C6.08234871,-0.0772462355 6.71526305,-0.103177598 7.00421397,0.270984592 C7.09709239,0.389531833 7.18652389,0.504373627 7.27940232,0.622920868 C8.00866717,1.56018923 8.74132864,2.49745759 9.4705935,3.43472595 C9.89711972,3.9866819 10.3270929,4.53499338 10.7536317,5.08327776 C10.9084228,5.28332453 11.0632201,5.47967263 11.2145706,5.67601396 C11.7030283,6.30573691 11.9885336,7.04669104 11.9954136,7.87652172 C12.005733,8.79895474 11.9954136,9.72511353 11.9954136,10.6475466 L11.9954136,19.201509 C11.9954136,19.5312194 12.009173,19.8683407 11.9850942,20.198051 C11.8784784,21.5983988 11.1354384,22.9172402 9.94870039,23.5544283 C8.75850291,24.1916434 7.28626095,24.1619727 6.16487628,23.3580869 C5.09513268,22.5949814 4.43810114,21.3205647 4.43122112,19.9350523 C4.4243411,18.6828547 4.43122112,17.4269991 4.43122112,16.1748693 L4.43122112,13.6594336 C4.43007451,13.6470844 4.42739906,13.6083913 4.42497841,13.5688751 L4.422,13.533 L4.40865667,13.4591524 C4.40639175,13.4472153 4.4041976,13.4360558 4.40218749,13.4265427 L4.39682245,13.4038119 C4.39200669,13.3845482 4.38457649,13.3638024 4.37676096,13.3446866 L4.365,13.317 L4.37611018,13.3372954 L4.40714186,13.3926983 C4.36586675,13.3223083 4.3383454,13.2445142 4.30050716,13.1741243 C4.28674837,13.1481936 4.26954894,13.1185568 4.25234951,13.0926247 L4.274,13.128 L4.25872,13.1117015 C4.24330437,13.0929046 4.22852567,13.0730098 4.21387435,13.0538009 L4.16979301,13.0000156 C4.14915168,12.9777877 4.12507285,12.9555604 4.10443341,12.9333325 L4.125,12.954 L4.10457447,12.9435647 C4.06194579,12.9192106 4.04477299,12.9025402 4.04380525,12.8962886 L4.045,12.894 L3.98403678,12.8518316 L3.946,12.83 L3.9104574,12.8244527 C3.88011046,12.8171733 3.85955174,12.8077339 3.84813926,12.7996768 L3.841,12.793 L3.78796429,12.7740355 L3.747,12.763 L3.69139502,12.7649799 C3.65827038,12.7633334 3.62450835,12.7600405 3.59100142,12.7571592 L3.49213839,12.7518082 L0.857225648,12.7518341 C0.375655468,12.7518341 0.0179131277,12.325782 0.000713698461,11.8108399 C-0.0199175654,11.3107128 0.410061875,10.8846811 0.860685159,10.8846811 L3.45434952,10.8846811 C3.91874166,10.8846811 4.35214916,10.9735983 4.77525361,11.195871 C5.39783974,11.5256356 5.87256008,12.1850292 6.06175129,12.8963127 C6.19934232,13.4075561 6.15806407,13.9743745 6.15806407,14.5004262 L6.15806407,19.9202096 C6.15806407,20.00912 6.16150408,20.094325 6.16838347,20.1832355 C6.17870351,20.2536186 6.18902291,20.3165991 6.20278233,20.3832822 C6.23374181,20.5277676 6.27846133,20.6685408 6.32317959,20.8093139 L6.312,20.773 L6.33693838,20.8352453 C6.36445785,20.8945189 6.39197668,20.9537918 6.42293553,21.0093607 C6.46077629,21.0797507 6.50205454,21.1501359 6.54333279,21.2168184 C6.54715489,21.2225807 6.55658249,21.2367585 6.56787859,21.2537821 L6.581,21.274 L6.59601377,21.2934661 C6.6162849,21.3201909 6.64122757,21.3533187 6.65759175,21.3744638 L6.67060567,21.3909338 C6.70844643,21.4353856 6.75316533,21.4835463 6.79444358,21.5280015 C6.84604061,21.5872751 6.90451892,21.6391365 6.95955659,21.6910006 L6.924,21.658 L6.94441602,21.6728291 C6.98907741,21.7046161 7.00796137,21.7202123 7.01202441,21.7253804 L7.012,21.726 L7.12251291,21.8039933 L7.28977632,21.9058691 C7.34824834,21.9392121 7.41360856,21.9651448 7.47208624,22.0021905 C7.45007118,21.9881131 7.43187434,21.9765918 7.41703823,21.9672859 C7.44119602,21.9804446 7.47380594,21.997004 7.49960508,22.0058951 C7.62343669,22.054053 7.75071524,22.0910994 7.87798749,22.1170314 L7.94,22.129 L8.01944924,22.1369434 L8.11533508,22.1429635 C8.22885107,22.1466676 8.34236705,22.1466676 8.45244239,22.1355539 L8.473,22.133 Z"></path></clipPath><clipPath id="i4"><path d="M0.525578237,0.0633780284 C0.812272027,-0.0531674281 1.23888037,-0.0165353766 1.45730185,0.236539977 C1.56651259,0.363083743 1.67572333,0.49295216 1.78493406,0.619489836 C2.18083859,1.08567166 2.58015049,1.54852884 2.97944991,2.01139819 C3.07159881,2.11795752 3.16374147,2.2211861 3.25247676,2.32774543 C3.72347459,2.89056134 3.9896767,3.54319154 3.99991505,4.27248356 L3.998,4.241 L3.99987823,4.26582817 L3.99987823,6.16057476 C3.99987823,6.61012724 3.60739356,6.9930771 3.14666154,6.9930771 C2.44359401,6.9930771 1.69621812,7.06966586 1.06142291,6.71335583 C0.559702537,6.43362238 0.160403116,5.92413484 0.0511923775,5.36802912 C0.0136513423,5.16822734 0,4.9717563 0,4.77196061 L0,0.822628445 C0,0.48961533 0.215007861,0.189915705 0.525578237,0.0633780284 Z M2.00679924,3.44665196 L1.709,3.101 L1.70993325,4.91517403 L1.712,4.962 L1.73595626,5.03296852 L1.75,5.091 L1.77947268,5.1382846 L1.802,5.177 L1.85284373,5.22361761 L1.892,5.263 L1.94328481,5.2885522 L1.975,5.306 L1.98693008,5.30962482 C2.01386651,5.31540025 2.05538045,5.32351713 2.08321638,5.3297609 L2.101,5.334 L2.293,5.334 L2.29344485,4.2724653 L2.293,4.265 L2.29177523,4.18923637 L2.29,4.099 L2.28628266,4.07820277 C2.28476289,4.06972164 2.28336311,4.0618909 2.28223662,4.05566013 L2.27983032,4.0427173 L2.259353,3.96279781 C2.24228617,3.89287053 2.21498348,3.82293717 2.19450678,3.7530099 L2.1672041,3.69973145 C2.12966057,3.63645957 2.09212016,3.57319377 2.05116613,3.50992189 C2.03410179,3.48661219 1.95560736,3.39337095 2.03410179,3.47995193 L2.024,3.469 L2.00679924,3.44665196 Z"></path></clipPath><clipPath id="i5"><path d="M5.04780769,0.130588557 C5.29062333,-0.0398047257 5.7047745,-0.0472148963 5.94757708,0.130588557 C6.20108732,0.319507267 6.44745476,0.523239544 6.69025735,0.730676906 C7.67927895,1.57891792 8.56840597,2.54576229 9.32891057,3.61996609 C10.2858092,4.97201742 10.992816,6.58701466 11,8.28728982 L10.999,8.271 L11,8.29105586 C11,8.49601639 10.9857086,8.69768954 10.9634856,8.89936469 L10.9249974,9.20229009 C10.6357602,11.3026061 9.11468567,13.0584169 7.19729741,13.7214781 C5.23707853,14.4030242 2.9697328,13.8029629 1.54150151,12.2582743 C0.845242843,11.5063519 0.331073051,10.5469583 0.123977882,9.52457155 C-0.0831172866,8.49107628 -0.0259880351,7.41680475 0.259658222,6.40186877 C0.745289505,4.67199357 1.80214801,3.15697267 3.01616093,1.89751461 C3.63740073,1.25295169 4.31583508,0.638070094 5.04780769,0.130588557 Z M2.08137894,9.80814818 L2.09130514,9.83193378 C2.17699902,10.0245508 2.27340708,10.2097644 2.38409418,10.3875679 C2.44122344,10.4801747 2.50906752,10.5727815 2.56976752,10.6653883 L2.53048871,10.608438 L2.55905333,10.6468697 C2.58761861,10.683907 2.61618324,10.7209524 2.64831861,10.7579951 C2.78399895,10.9246833 2.93396486,11.076558 3.09106704,11.2210224 C3.13391724,11.2617648 3.17319279,11.2951052 3.21603973,11.3321479 L3.214,11.33 L3.30530239,11.3955803 L3.43027181,11.4877242 C3.60880235,11.6099649 3.79090429,11.7173853 3.98371388,11.8099921 C3.99174772,11.8146225 4.00893122,11.822957 4.02790002,11.8318704 L4.056,11.845 L4.07008014,11.8511439 C4.08001077,11.8552243 4.08943928,11.8590588 4.09738937,11.8622205 L4.11582805,11.8692599 C4.20508679,11.906304 4.29435206,11.9359379 4.38718873,11.9655718 C4.59785529,12.0322498 4.80852185,12.0767 5.02275328,12.1174465 L5.003,12.113 L5.08702532,12.1211506 L5.1727192,12.128559 C5.27984144,12.1359674 5.39052855,12.1396716 5.49764427,12.1396716 C5.6083379,12.1396716 5.71545362,12.1359678 5.82256933,12.128559 C5.87969858,12.1248546 5.93682783,12.1211509 5.99395709,12.1137421 L5.974,12.115 L6.16072009,12.0745056 C6.23147041,12.059963 6.30195593,12.0456946 6.37230943,12.0295055 L6.58310657,11.9729813 C6.68308603,11.9396491 6.77948756,11.9063081 6.87589562,11.869266 C6.88303743,11.8664879 6.90044463,11.8593109 6.92013914,11.85115 L6.94574778,11.8396904 C6.96270784,11.8319926 6.97855215,11.8248157 6.98658599,11.8211114 C7.17583072,11.7285046 7.36149752,11.6210842 7.54002806,11.5025486 C7.62929334,11.4432808 7.71498721,11.3654882 7.80782388,11.3099248 L7.781,11.327 L7.82567302,11.2909425 L7.87923283,11.2432502 C8.0399064,11.1024908 8.18630093,10.9469111 8.32555266,10.783928 C8.36482494,10.7394738 8.39696227,10.698728 8.43266837,10.6542771 C8.45052143,10.632048 8.46837383,10.6024141 8.48979763,10.580189 L8.51077279,10.5431483 L8.59691334,10.4135008 C8.70760045,10.2356973 8.8075799,10.0541955 8.89327378,9.86157175 L8.906,9.831 L8.9222841,9.78934079 L8.95040238,9.72081238 C8.98610457,9.6207954 9.02181068,9.52077841 9.0503753,9.41706312 C9.11107595,9.20962576 9.15392093,8.99848331 9.18962704,8.78363578 L9.188,8.786 L9.18962704,8.77623238 C9.19319745,8.75215271 9.19587538,8.7271488 9.19810703,8.70168244 L9.20390935,8.62435775 C9.21105031,8.51322551 9.21462092,8.39839496 9.21462092,8.28726949 L9.20856877,8.06942357 C9.20116303,7.92427123 9.1884675,7.77857099 9.17894596,7.62793365 L9.186,7.74 L9.18323509,7.71528147 C9.17636862,7.66095716 9.16633297,7.58011991 9.15841005,7.53093805 L9.15395207,7.50569293 C9.13252567,7.39827255 9.10753113,7.29084539 9.08253724,7.1871301 C9.03612218,6.99451308 8.97542022,6.79819097 8.91114949,6.60927226 C8.87544208,6.50925528 8.8325971,6.4092383 8.79689099,6.305523 L8.797,6.307 L8.8175763,6.36592143 C8.87918042,6.5471367 8.79015293,6.30299073 8.74950001,6.20573479 L8.73976174,6.18328228 C8.58622442,5.84620757 8.41126528,5.51652949 8.21845568,5.20167175 C8.12561902,5.04239372 8.02563956,4.89051909 7.92209524,4.73864446 L7.76499307,4.51639353 C7.74000049,4.47935623 7.71143586,4.44231079 7.68644198,4.40526807 L7.709,4.438 L7.4120683,4.05855207 C7.20341595,3.80179436 6.98628562,3.55292054 6.76156526,3.31099163 L6.4189032,2.9531896 C6.07253671,2.60498609 5.71547562,2.27160292 5.34056409,1.95674517 L5.484,2.081 L5.46729962,2.09565607 L5.33697311,2.20493238 C4.8799391,2.59386473 4.44432692,3.0161564 4.03370798,3.46066504 C3.78375608,3.73106853 3.54809628,4.00888896 3.32315067,4.30152297 L3.29458605,4.33856027 C3.28030373,4.35708096 3.26959216,4.37189791 3.25530985,4.39041928 C3.20175199,4.46820575 3.14462339,4.54599899 3.09106488,4.62378546 C2.97680638,4.79048043 2.86611927,4.95716863 2.76257495,5.131267 C2.55191492,5.47576542 2.36624159,5.83507064 2.20556802,6.2091962 L2.207,6.205 L2.18905399,6.2554991 L2.15915034,6.33143692 C2.12701366,6.41663357 2.0948783,6.50553529 2.06631367,6.59443702 C1.99847024,6.79447098 1.9413436,6.99449818 1.89492592,7.20193554 C1.86993138,7.30935592 1.84850824,7.41678307 1.83065518,7.52420345 C1.82351435,7.57235601 1.81637352,7.61680755 1.80923204,7.66496283 L1.814,7.627 L1.79666941,7.82067801 C1.79085071,7.89243008 1.78595769,7.96431912 1.78251934,8.03648286 L1.77709732,8.25393592 C1.77709732,8.37247156 1.78066741,8.49471228 1.7878089,8.61324791 C1.79137964,8.66140725 1.7985206,8.71326354 1.80209121,8.76512254 L1.801,8.759 L1.84083754,8.96034208 C1.85419388,9.03127079 1.8674182,9.10192556 1.88236176,9.17244335 L1.93420146,9.38372277 C1.96633748,9.49484824 2.00204098,9.60598047 2.04131717,9.71340085 C2.05916958,9.75784833 2.08059337,9.80229987 2.09487568,9.85045514 L2.093,9.846 L2.08137894,9.80814818 Z"></path></clipPath></defs><g transform="translate(-376.0 -1346.0)"><g clip-path="url(#i0)"><g transform="translate(376.0 1346.0)"><g transform="translate(5.0 6.0)"><g transform="translate(2.0 0.0)"><g clip-path="url(#i1)"><polygon points="0,0 20,0 20,31 0,31 0,0" stroke="none" fill="#0A0A5E"></polygon></g></g><g transform="translate(0.0 29.0)"><g clip-path="url(#i2)"><polygon points="-4.4408921e-16,-1.83360271e-15 25,-1.83360271e-15 25,2 -4.4408921e-16,2 -4.4408921e-16,-1.83360271e-15" stroke="none" fill="#0A0A5E"></polygon></g></g><g transform="translate(21.0 0.0)"><g clip-path="url(#i3)"><polygon points="-1.11022302e-15,2.22044605e-16 12,2.22044605e-16 12,24 -1.11022302e-15,24 -1.11022302e-15,2.22044605e-16" stroke="none" fill="#0A0A5E"></polygon></g></g><g transform="translate(29.0 4.0)"><g clip-path="url(#i4)"><polygon points="0,-2.49800181e-16 4,-2.49800181e-16 4,7 0,7 0,-2.49800181e-16" stroke="none" fill="#0A0A5E"></polygon></g></g><g transform="translate(7.0 9.0)"><g clip-path="url(#i5)"><polygon points="-1.66533454e-16,-7.49400542e-16 11.0000226,-7.49400542e-16 11.0000226,14 -1.66533454e-16,14 -1.66533454e-16,-7.49400542e-16" stroke="none" fill="#0A0A5E"></polygon></g></g></g></g></g></g></svg>