<?xml version="1.0" encoding="UTF-8"?><svg version="1.1" width="192px" height="192px" viewBox="0 0 192.0 192.0" xmlns="http://www.w3.org/2000/svg" xmlns:xlink="http://www.w3.org/1999/xlink"><defs><clipPath id="i0"><path d="M1920,0 L1920,10566 L0,10566 L0,0 L1920,0 Z"></path></clipPath><clipPath id="i1"><path d="M44,0 C68.300529,0 88,19.699471 88,44 C88,68.300529 68.300529,88 44,88 C19.699471,88 0,68.300529 0,44 C0,19.699471 19.699471,0 44,0 Z"></path></clipPath><clipPath id="i2"><path d="M3,0 C4.65685425,0 6,1.34314575 6,3 C6,4.65685425 4.65685425,6 3,6 C1.34314575,6 0,4.65685425 0,3 C0,1.34314575 1.34314575,0 3,0 Z"></path></clipPath></defs><g transform="translate(-1358.0 -1900.0)"><g clip-path="url(#i0)"><g transform="translate(1358.0 1900.0)"><g transform="translate(132.0 59.99987333250492)"><path d="M0,0 L31.95,0 C34.3968567,-0.0158137398 36.6018196,1.4740261 37.5,3.75012667 L48,30.0001267" stroke="#646464" stroke-width="3" fill="none" stroke-linecap="round" stroke-linejoin="round"></path></g><g transform="translate(12.0 107.625)"><path d="M0,0.375 L120,0.375" stroke="#646464" stroke-width="3" fill="none" stroke-linecap="round" stroke-linejoin="round"></path></g><g transform="translate(123.0 126.0)"><path d="M18,36 C27.9411255,36 36,27.9411255 36,18 C36,8.0588745 27.9411255,0 18,0 C8.0588745,0 0,8.0588745 0,18 C0,27.9411255 8.0588745,36 18,36 Z" stroke="#646464" stroke-width="3" fill="none" stroke-linecap="round" stroke-linejoin="round"></path></g><g transform="translate(33.0 126.0)"><path d="M18,36 C27.9411255,36 36,27.9411255 36,18 C36,8.0588745 27.9411255,0 18,0 C8.0588745,0 0,8.0588745 0,18 C0,27.9411255 8.0588745,36 18,36 Z" stroke="#646464" stroke-width="3" fill="none" stroke-linecap="round" stroke-linejoin="round"></path></g><g transform="translate(69.0 143.625)"><path d="M54,0.375 L0,0.375" stroke="#646464" stroke-width="3" fill="none" stroke-linecap="round" stroke-linejoin="round"></path></g><g transform="translate(12.0 48.0)"><path d="M21,96 L6,96 C2.6862915,96 0,93.3137085 0,90 L0,6 C0,2.6862915 2.6862915,0 6,0 L120,0 L120,80.4" stroke="#646464" stroke-width="3" fill="none" stroke-linecap="round" stroke-linejoin="round"></path></g><g transform="translate(132.0 90.0)"><path d="M0,0 L48,0 L48,48 C48,51.3137085 45.3137085,54 42,54 L27,54" stroke="#646464" stroke-width="3" fill="none" stroke-linecap="round" stroke-linejoin="round"></path></g><g transform="translate(30.0 1.0)"><g clip-path="url(#i1)"><polygon points="0,0 88,0 88,88 0,88 0,0" stroke="none" fill="#E8F8FF"></polygon></g></g><g transform="translate(42.0 13.0)"><g transform="translate(8.0 8.0)"><path d="M24,48 C37.254834,48 48,37.254834 48,24 C48,10.745166 37.254834,0 24,0 C10.745166,0 0,10.745166 0,24 C0,37.254834 10.745166,48 24,48 Z" stroke="#0263E2" stroke-width="3" fill="none" stroke-linecap="round" stroke-linejoin="round"></path></g><g transform="translate(20.0 24.0)"><g clip-path="url(#i2)"><polygon points="0,0 6,0 6,6 0,6 0,0" stroke="none" fill="#0263E2"></polygon></g></g><g transform="translate(38.0 24.0)"><g clip-path="url(#i2)"><polygon points="0,0 6,0 6,6 0,6 0,0" stroke="none" fill="#0263E2"></polygon></g></g><g transform="translate(22.0 38.0)"><path d="M21,0 C18.8276338,3.71414167 14.8273818,6 10.5,6 C6.17261825,6 2.17236618,3.71414167 0,0" stroke="#0263E2" stroke-width="3" fill="none" stroke-linecap="round" stroke-linejoin="round"></path></g></g></g></g></g></svg>