<?xml version="1.0" encoding="UTF-8"?><svg version="1.1" width="24px" height="24px" viewBox="0 0 24.0 24.0" xmlns="http://www.w3.org/2000/svg" xmlns:xlink="http://www.w3.org/1999/xlink"><defs><clipPath id="i0"><path d="M1920,0 L1920,8089 L0,8089 L0,0 L1920,0 Z"></path></clipPath><clipPath id="i1"><path d="M1,0 C1.55233026,0 2,0.447822765 2,0.999898141 C2,1.55217723 1.55233026,2 1,2 C0.44766974,2 0,1.55217723 0,0.999898141 C0,0.447822765 0.44766974,0 1,0 Z"></path></clipPath><clipPath id="i2"><path d="M11,0 C17.0748266,0 22,4.92495225 22,11 C22,17.0752689 17.0750478,22 11,22 C4.92473107,22 0,17.0750478 0,11 C0,4.92473107 4.92495225,0 11,0 Z M11,1.09983412 C5.54113803,1.09983412 1.09977883,5.54097215 1.09977883,11.0000553 C1.09977883,16.4588067 5.54146979,20.8997235 11,20.8997235 C16.4585302,20.8997235 20.8996682,16.4580326 20.8996682,10.9995024 C20.8996682,5.54097215 16.4586961,1.09983412 11,1.09983412 Z"></path></clipPath><clipPath id="i3"><path d="M2,0 L2,8 L0,8 L0,0 L2,0 Z"></path></clipPath></defs><g transform="translate(-606.0 -4368.0)"><g clip-path="url(#i0)"><g transform="translate(606.0 4368.0)"><g transform="translate(1.0 1.0)"><g transform="translate(10.0 5.0)"><g clip-path="url(#i1)"><polygon points="0,0 2,0 2,2 0,2 0,0" stroke="none" fill="#0A0A5E"></polygon></g></g><g clip-path="url(#i2)"><polygon points="0,0 22,0 22,22 0,22 0,0" stroke="none" fill="#0A0A5E"></polygon></g><g transform="translate(10.0 9.0)"><g clip-path="url(#i3)"><polygon points="0,0 2,0 2,8 0,8 0,0" stroke="none" fill="#0A0A5E"></polygon></g></g></g></g></g></g></svg>