<?xml version="1.0" encoding="UTF-8"?><svg version="1.1" width="32px" height="32px" viewBox="0 0 32.0 32.0" xmlns="http://www.w3.org/2000/svg" xmlns:xlink="http://www.w3.org/1999/xlink"><defs><clipPath id="i0"><path d="M1920,0 L1920,1080 L0,1080 L0,0 L1920,0 Z"></path></clipPath><clipPath id="i1"><path d="M6.50001273,0 C7.73294023,0 8.90737207,0.519112443 9.72922057,1.42737566 C10.5513043,2.33563887 10.9430147,3.54696242 10.8061597,4.75804123 C10.669546,5.96912003 10.0174277,7.06547278 9.01322136,7.77224645 C10.1453135,7.98285289 11.1659606,8.58156992 11.8952312,9.46303312 C12.6245018,10.3444963 13.0154886,11.4521075 12.9995301,12.5907407 L12.9995301,13.6615171 C12.9995301,14.0164643 12.8568998,14.357063 12.6029853,14.6080224 C12.3490708,14.8589818 12.0045221,15 11.6454516,15 L1.35454909,15 C0.995466231,15 0.650898959,14.8590124 0.39701543,14.6080224 C0.143131901,14.3570324 0.000470589778,14.016452 0.000470589778,13.6615171 L0.000470589778,12.5907407 C-0.0154996529,11.4521075 0.375461793,10.3444963 1.10476954,9.46303312 C1.83407729,8.58156992 2.85468722,7.98281618 3.98677935,7.77224645 C2.98259773,7.06547278 2.33047948,5.96912003 2.19386582,4.75804123 C2.05700455,3.54696242 2.4487088,2.33563887 3.2708049,1.42737566 C4.0926534,0.519136917 5.26708524,0 6.50001273,0 Z M7.82421822,8.73063122 L5.17557203,8.73063122 C2.8439785,8.73063122 1.08366159,10.3903868 1.08366159,12.5907407 L1.08366159,13.6615171 C1.08366159,13.8094679 1.20480021,13.9292113 1.35447481,13.9292113 L11.6453773,13.9292113 C11.7171939,13.9292113 11.7861098,13.9010162 11.8368841,13.8508182 C11.8876583,13.8006202 11.9161906,13.7325066 11.9161906,13.6615171 L11.9161906,12.5907407 C11.9161906,10.3796178 10.1558737,8.7199277 7.82421822,8.73063122 Z M6.49992607,1.08019932 C5.63790437,1.08019932 4.81145669,1.41863812 4.20188243,2.02095295 C3.59254958,2.62352478 3.25016738,3.44043546 3.25016738,4.29252879 C3.25016738,5.14462213 3.59254958,5.96155117 4.20188243,6.56410464 C4.81147526,7.16641947 5.63790437,7.50485827 6.49992607,7.50485827 C7.36194778,7.50485827 8.18839546,7.16641947 8.79796972,6.56410464 C9.40730257,5.96153281 9.74968477,5.14462213 9.74968477,4.29252879 C9.74968477,3.44043546 9.40730257,2.62350642 8.79796972,2.02095295 C8.18837689,1.41863812 7.36194778,1.08019932 6.49992607,1.08019932 Z"></path></clipPath><clipPath id="i2"><path d="M7.47177784,0 C7.76347721,0 8,0.236522789 8,0.528222155 C8,0.819921521 7.76347721,1.05644431 7.47177784,1.05644431 L1.05644431,1.05644431 L1.05644431,7.47177784 C1.05644431,7.61185029 1.00079082,7.74626502 0.901750679,7.84530637 C0.802710534,7.94434772 0.668294597,8 0.528222155,8 C0.388149713,8 0.253734983,7.94434651 0.154693631,7.84530637 C0.0556522789,7.74626622 0,7.61185029 0,7.47177784 L0,0.528222155 C0,0.236522789 0.236522789,0 0.528222155,0 Z"></path></clipPath><clipPath id="i3"><path d="M0.528222155,0 C0.819921521,0 1.05644431,0.236522789 1.05644431,0.528222155 L1.05644431,6.94355569 L7.47177784,6.94355569 C7.76347721,6.94355569 8,7.18007848 8,7.47177784 C8,7.76347721 7.76347721,8 7.47177784,8 L0.528222155,8 C0.388149713,8 0.253734983,7.94434651 0.154693631,7.84530637 C0.0556522789,7.74626622 0,7.61185029 0,7.47177784 L0,0.528222155 C0,0.236522789 0.236522789,0 0.528222155,0 Z"></path></clipPath><clipPath id="i4"><path d="M7.47177784,0 C7.61185029,0 7.74626502,0.0556534863 7.84530637,0.154693631 C7.94434772,0.253733776 8,0.388149713 8,0.528222155 L8,7.47177784 C8,7.61185029 7.94434651,7.74626502 7.84530637,7.84530637 C7.74626622,7.94434772 7.61185029,8 7.47177784,8 L0.528222155,8 C0.236522789,8 0,7.76347721 0,7.47177784 C0,7.18007848 0.236522789,6.94355569 0.528222155,6.94355569 L6.94355569,6.94355569 L6.94355569,0.528222155 C6.94355569,0.236522789 7.18007848,0 7.47177784,0 Z"></path></clipPath><clipPath id="i5"><path d="M7.47177784,0 C7.61185029,0 7.74626502,0.0556534863 7.84530637,0.154693631 C7.94434772,0.253733776 8,0.388149713 8,0.528222155 L8,7.47177784 C8,7.76347721 7.76347721,8 7.47177784,8 C7.18007848,8 6.94355569,7.76347721 6.94355569,7.47177784 L6.94355569,1.05644431 L0.528222155,1.05644431 C0.236522789,1.05644431 0,0.819921521 0,0.528222155 C0,0.236522789 0.236522789,0 0.528222155,0 Z"></path></clipPath></defs><g transform="translate(-1389.0 -295.0)"><g clip-path="url(#i0)"><g transform="translate(1389.0 295.0)"><g transform="translate(3.0 3.0)"><g transform="translate(6.0 5.0)"><g clip-path="url(#i1)"><polygon points="0,0 13,0 13,15 0,15 0,0" stroke="none" fill="#0A0A5E"></polygon></g><path d="M3.98677935,7.77224645 C2.85468722,7.98281618 1.83407729,8.58156992 1.10476954,9.46303312 C0.375461793,10.3444963 -0.0154996529,11.4521075 0.000470589778,12.5907407 L0.000470589778,13.6615171 C0.000470589778,14.016452 0.143131901,14.3570324 0.39701543,14.6080224 C0.650898959,14.8590124 0.995466231,15 1.35454909,15 L11.6454516,15 C12.0045221,15 12.3490708,14.8589818 12.6029853,14.6080224 C12.8568998,14.357063 12.9995301,14.0164643 12.9995301,13.6615171 L12.9995301,12.5907407 C13.0154886,11.4521075 12.6245018,10.3444963 11.8952312,9.46303312 C11.1659606,8.58156992 10.1453135,7.98285289 9.01322136,7.77224645 C10.0174277,7.06547278 10.669546,5.96912003 10.8061597,4.75804123 C10.9430147,3.54696242 10.5513043,2.33563887 9.72922057,1.42737566 C8.90737207,0.519112443 7.73294023,0 6.50001273,0 C5.26708524,0 4.0926534,0.519136917 3.2708049,1.42737566 C2.4487088,2.33563887 2.05700455,3.54696242 2.19386582,4.75804123 C2.33047948,5.96912003 2.98259773,7.06547278 3.98680411,7.77224645 L3.98677935,7.77224645 Z M11.9161906,12.5907407 L11.9161906,13.6615171 C11.9161906,13.7325066 11.8876583,13.8006202 11.8368841,13.8508182 C11.7861098,13.9010162 11.7171939,13.9292113 11.6453773,13.9292113 L1.35447481,13.9292113 C1.20480021,13.9292113 1.08366159,13.8094679 1.08366159,13.6615171 L1.08366159,12.5907407 C1.08366159,10.3903868 2.8439785,8.73063122 5.17557203,8.73063122 L7.82421822,8.73063122 C10.1558737,8.7199277 11.9161906,10.3796178 11.9161906,12.5907407 L11.9161906,12.5907407 Z M6.49992607,1.08019932 C7.36194778,1.08019932 8.18837689,1.41863812 8.79796972,2.02095295 C9.40730257,2.62350642 9.74968477,3.44043546 9.74968477,4.29252879 C9.74968477,5.14462213 9.40730257,5.96153281 8.79796972,6.56410464 C8.18839546,7.16641947 7.36194778,7.50485827 6.49992607,7.50485827 C5.63790437,7.50485827 4.81147526,7.16641947 4.20188243,6.56410464 C3.59254958,5.96155117 3.25016738,5.14462213 3.25016738,4.29252879 C3.25016738,3.44043546 3.59254958,2.62352478 4.20188243,2.02095295 C4.81145669,1.41863812 5.63790437,1.08019932 6.49992607,1.08019932 Z" stroke="#0A0A5E" stroke-width="0.5" fill="none" stroke-miterlimit="10"></path></g><g clip-path="url(#i2)"><polygon points="0,0 8,0 8,8 0,8 0,0" stroke="none" fill="#0A0A5E"></polygon></g><path d="M0.528222155,8 C0.668294597,8 0.802710534,7.94434772 0.901750679,7.84530637 C1.00079082,7.74626502 1.05644431,7.61185029 1.05644431,7.47177784 L1.05644431,1.05644431 L7.47177784,1.05644431 C7.76347721,1.05644431 8,0.819921521 8,0.528222155 C8,0.236522789 7.76347721,0 7.47177784,0 L0.528222155,0 C0.236522789,0 0,0.236522789 0,0.528222155 L0,7.47177784 C0,7.61185029 0.0556522789,7.74626622 0.154693631,7.84530637 C0.253734983,7.94434651 0.388149713,8 0.528222155,8 Z" stroke="#0A0A5E" stroke-width="0.5" fill="none" stroke-miterlimit="10"></path><g transform="translate(0.0 18.0)"><g clip-path="url(#i3)"><polygon points="0,0 8,0 8,8 0,8 0,0" stroke="none" fill="#0A0A5E"></polygon></g><path d="M7.47177784,6.94355569 L1.05644431,6.94355569 L1.05644431,0.528222155 C1.05644431,0.236522789 0.819921521,0 0.528222155,0 C0.236522789,0 0,0.236522789 0,0.528222155 L0,7.47177784 C0,7.61185029 0.0556522789,7.74626622 0.154693631,7.84530637 C0.253734983,7.94434651 0.388149713,8 0.528222155,8 L7.47177784,8 C7.76347721,8 8,7.76347721 8,7.47177784 C8,7.18007848 7.76347721,6.94355569 7.47177784,6.94355569 Z" stroke="#0A0A5E" stroke-width="0.5" fill="none" stroke-miterlimit="10"></path></g><g transform="translate(18.0 18.0)"><g clip-path="url(#i4)"><polygon points="0,0 8,0 8,8 0,8 0,0" stroke="none" fill="#0A0A5E"></polygon></g><path d="M7.47177784,0 C7.18007848,0 6.94355569,0.236522789 6.94355569,0.528222155 L6.94355569,6.94355569 L0.528222155,6.94355569 C0.236522789,6.94355569 0,7.18007848 0,7.47177784 C0,7.76347721 0.236522789,8 0.528222155,8 L7.47177784,8 C7.61185029,8 7.74626622,7.94434772 7.84530637,7.84530637 C7.94434651,7.74626502 8,7.61185029 8,7.47177784 L8,0.528222155 C8,0.388149713 7.94434772,0.253733776 7.84530637,0.154693631 C7.74626502,0.0556534863 7.61185029,0 7.47177784,0 Z" stroke="#0A0A5E" stroke-width="0.5" fill="none" stroke-miterlimit="10"></path></g><g transform="translate(18.0 0.0)"><g clip-path="url(#i5)"><polygon points="0,0 8,0 8,8 0,8 0,0" stroke="none" fill="#0A0A5E"></polygon></g><path d="M7.47177784,0 L0.528222155,0 C0.236522789,0 0,0.236522789 0,0.528222155 C0,0.819921521 0.236522789,1.05644431 0.528222155,1.05644431 L6.94355569,1.05644431 L6.94355569,7.47177784 C6.94355569,7.76347721 7.18007848,8 7.47177784,8 C7.76347721,8 8,7.76347721 8,7.47177784 L8,0.528222155 C8,0.388149713 7.94434772,0.253733776 7.84530637,0.154693631 C7.74626502,0.0556534863 7.61185029,0 7.47177784,0 Z" stroke="#0A0A5E" stroke-width="0.5" fill="none" stroke-miterlimit="10"></path></g></g></g></g></g></svg>