<?xml version="1.0" encoding="UTF-8"?><svg version="1.1" width="32px" height="32px" viewBox="0 0 32.0 32.0" xmlns="http://www.w3.org/2000/svg" xmlns:xlink="http://www.w3.org/1999/xlink"><defs><clipPath id="i0"><path d="M1920,0 L1920,1080 L0,1080 L0,0 L1920,0 Z"></path></clipPath><clipPath id="i1"><path d="M9.99992857,0 L9.99992857,1.66654762 L1.70844077,1.66654762 L1.70844077,18.3334524 L9.99992857,18.3334524 L9.99992857,20 L1.70844077,20 C0.765076893,20 0,19.2539392 0,18.3334524 L0,1.66654762 C0,0.746060771 0.765076893,0 1.70844077,0 L9.99992857,0 Z M14.2708876,4.41050842 L20,9.99971429 L14.2708876,15.5889202 L13.0630219,14.4103656 L16.7299052,10.833131 L6.83340595,10.833131 L6.83340595,9.16629762 L16.7299052,9.16629762 L13.0630219,5.58906301 L14.2708876,4.41050842 Z"></path></clipPath></defs><g transform="translate(-1389.0 -347.0)"><g clip-path="url(#i0)"><g transform="translate(1389.0 347.0)"><g transform="translate(6.0 6.0)"><g clip-path="url(#i1)"><polygon points="0,0 20,0 20,20 0,20 0,0" stroke="none" fill="#0A0A5E"></polygon></g></g></g></g></g></svg>