<?xml version="1.0" encoding="UTF-8"?><svg version="1.1" width="22px" height="22px" viewBox="0 0 22.0 22.0" xmlns="http://www.w3.org/2000/svg" xmlns:xlink="http://www.w3.org/1999/xlink"><defs><clipPath id="i0"><path d="M1920,0 L1920,1915 L0,1915 L0,0 L1920,0 Z"></path></clipPath><clipPath id="i1"><path d="M8.5,0 C13.1872606,0 17,3.83393478 17,8.54650579 C17,12.4245636 11.4885295,18.3051554 9.60900804,20.1992787 L9.401484,20.4070552 C9.18107695,20.6262425 9.03902454,20.7625996 9.00041632,20.7996927 C8.85956703,20.9316514 8.67988343,21 8.50016653,21 C8.32044963,21 8.14074938,20.931484 7.99991674,20.7996927 C7.67443797,20.4870004 0,13.122614 0,8.54650579 C0,3.83376735 3.81307244,0 8.5,0 Z M8.50016653,1.46592855 C4.61448793,1.46592855 1.4572856,4.64006991 1.4572856,8.54692438 C1.4572856,11.5943144 6.14941715,16.8979033 8.50016653,19.2471145 C10.8511241,16.8979451 15.5430475,11.5894587 15.5430475,8.54692438 C15.5430475,4.63981875 12.3857619,1.46550996 8.50016653,1.46550996 Z"></path></clipPath><clipPath id="i2"><path d="M3.5,0 C5.43204,0 7,1.56796 7,3.5 C7,5.43204 5.43204,7 3.5,7 C1.56796,7 0,5.43204 0,3.5 C0,1.56796 1.56796,0 3.5,0 Z M3.5,1.4 C2.34264,1.4 1.4,2.34264 1.4,3.5 C1.4,4.65736 2.34264,5.6 3.5,5.6 C4.65736,5.6 5.6,4.65736 5.6,3.5 C5.6,2.34264 4.65736,1.4 3.5,1.4 Z"></path></clipPath></defs><g transform="translate(-380.0 -732.0)"><g clip-path="url(#i0)"><g transform="translate(380.0 732.0)"><g transform="translate(3.0 1.0)"><g clip-path="url(#i1)"><polygon points="0,0 17,0 17,21 0,21 0,0" stroke="none" fill="#0A0A5E"></polygon></g><g transform="translate(5.0 5.0)"><g clip-path="url(#i2)"><polygon points="0,0 7,0 7,7 0,7 0,0" stroke="none" fill="#0A0A5E"></polygon></g></g></g></g></g></g></svg>