<?xml version="1.0" encoding="UTF-8"?><svg version="1.1" width="44px" height="44px" viewBox="0 0 44.0 44.0" xmlns="http://www.w3.org/2000/svg" xmlns:xlink="http://www.w3.org/1999/xlink"><defs><clipPath id="i0"><path d="M1920,0 L1920,1080 L0,1080 L0,0 L1920,0 Z"></path></clipPath><clipPath id="i1"><path d="M7.07076307,0 C10.7582719,0 13.7613436,2.82184383 14.0654964,6.48301545 L25.3559084,6.48301545 L25.3559084,10.296594 L31.5521262,10.296594 L34.2513167,15.2159742 L36,15.2160423 L36,24.2542234 L33.4151256,24.2542234 C33.0730598,25.8178587 31.704525,27 30.0318035,27 C28.359082,27 26.990554,25.8559264 26.6484814,24.2542234 L13.9135049,24.2542234 C13.5714391,25.8178587 12.2029043,27 10.5301828,27 C8.85746126,27 7.48893326,25.8559264 7.14686066,24.2542234 L3.87758312,24.2542234 L3.87758312,13.3473888 C1.52045844,12.1652475 0,9.72455723 0,7.05512033 C0,3.16506591 3.15523298,0 7.07076307,0 Z M29.9937208,21.6229223 C28.9293048,21.6229223 28.0547659,22.4999773 28.055031,23.5677793 C28.055031,24.6355813 28.9293048,25.5126363 29.9937208,25.5126363 C31.0581367,25.5126363 31.9324105,24.6355813 31.9324105,23.5677793 C31.9324105,22.4999773 31.0581367,21.6229223 29.9937208,21.6229223 Z M10.5301149,21.6227861 C9.46569895,21.6227861 8.59142516,22.4998411 8.59142516,23.5676431 C8.59142516,24.6354451 9.46569895,25.5125001 10.5301149,25.5125001 C11.5945308,25.5125001 12.4688046,24.6354451 12.4688046,23.5676431 C12.4688046,22.4998411 11.5945308,21.6227861 10.5301149,21.6227861 Z M10.7162286,20.1026768 C12.1995435,20.1866268 13.5105552,21.2660177 13.875348,22.7668461 L23.83524,22.7668461 L23.83524,8.00829706 L14.0274074,8.00829706 C13.5713649,11.4407221 10.5680556,14.1101589 7.07068887,14.1101589 C6.5384809,14.1101589 5.96838026,14.0338125 5.43618587,13.9194255 L5.43592064,22.728792 L7.18473975,22.728792 C7.56495619,21.2031563 8.93349097,20.0973547 10.5301149,20.0973547 L10.529,20.097 Z M34.403444,16.7416099 L25.3559084,16.7416099 L25.3559084,22.728792 L26.6483456,22.728792 C27.0285621,21.2031563 28.3970968,20.0973547 29.9937208,20.0973547 C31.5902768,20.0973547 32.9588116,21.2034968 33.3011489,22.7290644 L34.403444,22.7290644 L34.403444,16.7416099 Z M30.6399733,11.8218892 L25.3559084,11.8218892 L25.3559084,15.2159742 L32.5027691,15.2159742 L30.6399733,11.8218892 Z M7.03274821,1.52522712 C3.99176345,1.52522712 1.52066209,4.00391699 1.52066209,7.05484794 C1.52066209,10.1057789 3.99149191,12.5844687 7.03274821,12.5844687 C10.0740045,12.5844687 12.5448343,10.1057789 12.5448343,7.05484794 C12.5448343,4.00391699 10.0740045,1.52522712 7.03274821,1.52522712 Z"></path></clipPath><clipPath id="i2"><path d="M6.83935676,0 L8,1.24271993 L3.10886582,6 L0,2.74289213 L1.20194674,1.5425707 L3.15016932,3.59996939 L6.83935676,0 Z"></path></clipPath></defs><g transform="translate(-684.0 -617.0)"><g clip-path="url(#i0)"><g transform="translate(684.0 617.0)"><g transform="translate(2.0 7.0)"><g clip-path="url(#i1)"><polygon points="0,0 36,0 36,27 0,27 0,0" stroke="none" fill="#0A0A5E"></polygon></g><path d="M34.2513167,15.2159742 L31.5521262,10.296594 L25.3559084,10.296594 L25.3559084,6.48301545 L14.0654964,6.48301545 C13.7613436,2.82184383 10.7582719,0 7.07076307,0 C3.15523298,0 0,3.16506591 0,7.05512033 C0,9.72455723 1.52045844,12.1652475 3.87758312,13.3473888 L3.87758312,24.2542234 L7.14686066,24.2542234 C7.48893326,25.8559264 8.85746126,27 10.5301828,27 C12.2029043,27 13.5714391,25.8178587 13.9135049,24.2542234 L26.6484814,24.2542234 C26.990554,25.8559264 28.359082,27 30.0318035,27 C31.704525,27 33.0730598,25.8178587 33.4151256,24.2542234 L36,24.2542234 L36,15.2160423 L34.2513167,15.2159742 Z M29.9937208,20.0973547 C28.3970968,20.0973547 27.0285621,21.2031563 26.6483456,22.728792 L25.3559084,22.728792 L25.3559084,16.7416099 L34.403444,16.7416099 L34.403444,22.7290644 L33.3011489,22.7290644 C32.9588116,21.2034968 31.5902768,20.0973547 29.9936529,20.0973547 L29.9937208,20.0973547 Z M29.9937208,21.6229223 C31.0581367,21.6229223 31.9324105,22.4999773 31.9324105,23.5677793 C31.9324105,24.6355813 31.0581367,25.5126363 29.9937208,25.5126363 C28.9293048,25.5126363 28.055031,24.6355813 28.055031,23.5677793 C28.0547659,22.4999773 28.9293048,21.6229223 29.9937208,21.6229223 Z M25.3559084,15.2159742 L25.3559084,11.8218892 L30.6399733,11.8218892 L32.5027691,15.2159742 L25.3559084,15.2159742 Z M10.5301149,20.0973547 C8.93349097,20.0973547 7.56495619,21.2031563 7.18473975,22.728792 L5.43592064,22.728792 L5.43618587,13.9194255 C5.96838026,14.0338125 6.5384809,14.1101589 7.07068887,14.1101589 C10.5680556,14.1101589 13.5713649,11.4407221 14.0274074,8.00829706 L23.83524,8.00829706 L23.83524,22.7668461 L13.875348,22.7668461 C13.4953555,21.2034832 12.0886498,20.0974092 10.5299728,20.0974092 L10.5301149,20.0973547 Z M7.03274821,1.52522712 C10.0740045,1.52522712 12.5448343,4.00391699 12.5448343,7.05484794 C12.5448343,10.1057789 10.0740045,12.5844687 7.03274821,12.5844687 C3.99149191,12.5844687 1.52066209,10.1057789 1.52066209,7.05484794 C1.52066209,4.00391699 3.99176345,1.52522712 7.03274821,1.52522712 Z M10.5301149,21.6227861 C11.5945308,21.6227861 12.4688046,22.4998411 12.4688046,23.5676431 C12.4688046,24.6354451 11.5945308,25.5125001 10.5301149,25.5125001 C9.46569895,25.5125001 8.59142516,24.6354451 8.59142516,23.5676431 C8.59142516,22.4998411 9.46569895,21.6227861 10.5301149,21.6227861 Z" stroke="#FFFFFF" stroke-width="0.4" fill="none" stroke-miterlimit="10"></path><g transform="translate(3.0 4.0)"><g clip-path="url(#i2)"><polygon points="0,0 8,0 8,6 0,6 0,0" stroke="none" fill="#0A0A5E"></polygon></g><polygon points="8,1.24271993 6.83935676,0 3.15016932,3.59996939 1.20194674,1.5425707 0,2.74289213 3.10886582,6 8,1.24271993 8,1.24271993" stroke="#FFFFFF" stroke-width="0.4" fill="none" stroke-miterlimit="10"></polygon></g></g></g></g></g></svg>