<?xml version="1.0" encoding="UTF-8"?><svg version="1.1" width="140px" height="140px" viewBox="0 0 140.0 140.0" xmlns="http://www.w3.org/2000/svg" xmlns:xlink="http://www.w3.org/1999/xlink"><defs><clipPath id="i0"><path d="M1920,0 L1920,1915 L0,1915 L0,0 L1920,0 Z"></path></clipPath><clipPath id="i1"><path d="M4.81293966,0.0272641006 C22.1365446,-0.712942502 41.3101348,13.7117872 38.7194109,31.9863351 C36.9438717,43.9709867 25.8365152,51.7375766 25.8365152,51.7375766 C25.8365152,51.7375766 26.0598535,55.7324605 26.1342996,59.4334935 C26.2087457,63.1308069 24.7272685,63.6478356 22.434329,62.6881708 C21.5906573,62.3342744 20.2476976,61.4417953 18.8861219,60.454183 L18.4322333,60.1220638 L17.9809218,59.7865474 C15.9617531,58.274555 14.1410346,56.7702376 14.1410346,56.7702376 C14.1410346,56.7702376 7.99550997,57.4360516 0.591846408,56.4726671 C1.25813891,56.030031 1.9244314,55.5873949 2.51627781,55.0666465 C20.8784057,40.7907021 16.3632504,13.4179363 0,0.544292833 C2.14776967,0.0272641006 2.5907239,0.101656724 4.81293966,0.0272641006 Z"></path></clipPath><clipPath id="i2"><path d="M18.4328517,0.324402408 C26.2087457,1.4328525 33.8320252,5.05949289 39.6834878,10.3860047 C45.5312281,15.7125166 49.454537,22.7388998 49.8230451,30.7286676 C49.8974912,32.357866 49.8230451,33.9833449 49.6034292,35.6125433 C47.8986137,47.4484097 38.1275645,55.5125701 35.8309027,57.2868341 C35.8910322,58.3623798 35.9997279,60.7409904 36.0785367,63.2525954 L36.1001725,63.9728049 C36.110516,64.3337084 36.1200971,64.6950519 36.128687,65.053424 C36.2031331,67.4228291 35.6112867,68.8288497 34.6472099,69.4946636 C33.6124092,70.2348702 32.2798242,70.1604776 30.6494549,69.4946636 C28.3565153,68.6056718 23.1713452,64.38761 21.8387602,63.2791599 C21.0593252,63.3504529 19.2936313,63.4721336 16.9000058,63.4821499 L16.2615732,63.4821232 C13.7614517,63.4714943 10.6645574,63.3351094 7.32921747,62.9109165 C8.29329433,62.3194951 9.17920279,61.7243541 10.0688336,61.1329328 C12.396289,61.337242 14.5469467,61.40927 16.3682711,61.4160291 L16.9323009,61.4160721 C20.0644183,61.4049073 22.0905234,61.2073254 22.1365446,61.2073254 L22.5794988,61.1329328 L22.9517293,61.4305033 C22.9517293,61.4305033 29.2424238,66.6826225 31.5390857,67.5716143 C32.4249941,67.9398578 33.1657327,68.088643 33.4635171,67.7910726 C33.9064713,67.4972217 34.1298096,66.6826225 34.0553635,65.053424 C33.9809174,61.1329328 33.7575791,56.844198 33.7575791,56.844198 L33.6868553,56.2527767 L34.2042556,55.8808136 C34.2042556,55.8808136 45.8252902,47.7422606 47.6045517,35.3149728 C47.8241676,33.760167 47.8986137,32.2834734 47.8241676,30.8030602 C47.5301056,23.4791064 43.8264127,16.8953593 38.3509028,11.9370909 C32.8716706,6.90814958 25.6168993,3.50468706 18.2876818,2.46690996 C16.2888043,2.1730591 14.2154807,2.09866648 12.2166032,2.1730591 L12.067711,2.09866648 C8.81069465,2.24745172 5.47923216,2.83887308 2.37110794,3.94732317 C1.63036935,3.43029443 0.815184676,2.98765833 0,2.61569521 C3.84886281,1.06460901 7.84661779,0.175617161 11.993265,0.0268319147 C14.1410346,-0.0475607087 16.2888043,0.0268319147 18.4328517,0.324402408 Z"></path></clipPath><clipPath id="i3"><path d="M6.58847889,0 C8.36401811,0 9.99438746,0.740206603 11.2525264,1.92304931 C12.4362192,3.10589203 13.1769578,4.73509048 13.1769578,6.58374717 C13.1769578,8.36173087 12.4362192,9.98720969 11.2525264,11.244445 C10.0651112,12.4272877 8.4384642,13.1674943 6.58847889,13.1674943 C4.80921736,13.1674943 3.18257031,12.4272877 1.9244314,11.244445 C0.737016282,10.0616023 0,8.43240386 0,6.58374717 C0,4.8094831 0.737016282,3.18028465 1.9244314,1.92304931 C3.10812422,0.740206603 4.73477127,0 6.58847889,0 Z M6.58847889,2.07183456 C5.33033998,2.07183456 4.21737095,2.58886329 3.47663236,3.40346252 C2.66516999,4.21806175 2.14404737,5.32651183 2.14404737,6.50935455 C2.14404737,7.76658988 2.66516999,8.8787596 3.47663236,9.6189662 C4.29181704,10.4298458 5.40106376,10.9505942 6.58847889,10.9505942 C7.84661779,10.9505942 8.95586452,10.4298458 9.69660311,9.6189662 C10.5117878,8.80436698 11.0291881,7.69591689 11.0291881,6.50935455 C11.0291881,5.25211921 10.5117878,4.14366912 9.69660311,3.40346252 C8.88141843,2.58886329 7.7721717,2.07183456 6.58847889,2.07183456 Z"></path></clipPath><clipPath id="i4"><path d="M5.77329421,0 C7.39994126,0 8.80697234,0.665813979 9.84549528,1.69987144 C10.8802959,2.73764854 11.5465884,4.21434211 11.5465884,5.76914794 C11.5465884,7.3983464 10.8802959,8.80436698 9.84549528,9.83842444 C8.80697234,10.8724819 7.32921747,11.5382959 5.77329421,11.5382959 C4.14292486,11.5382959 2.73589377,10.8724819 1.70109314,9.83842444 C0.666292498,8.80436698 0,7.32395377 0,5.76914794 C0,4.14366912 0.666292498,2.73764854 1.70109314,1.69987144 C2.73589377,0.665813979 4.21737095,0 5.77329421,0 Z M5.77329421,2.14622718 C4.73477127,2.14622718 3.84886281,2.58886329 3.18257031,3.18028465 C2.51627781,3.84609863 2.14404737,4.73509048 2.14404737,5.76914794 C2.14404737,6.80692504 2.5907239,7.69219726 3.18257031,8.35801124 C3.84886281,9.02382522 4.73477127,9.39578833 5.77329421,9.39578833 C6.80809485,9.39578833 7.69772561,8.94943259 8.36401811,8.35801124 C9.03031061,7.69219726 9.39881875,6.80692504 9.39881875,5.76914794 C9.39881875,4.73509048 8.95586452,3.84609863 8.36401811,3.18028465 C7.69772561,2.51447067 6.80809485,2.14622718 5.77329421,2.14622718 Z"></path></clipPath><clipPath id="i5"><path d="M4.12234267,0.0196424869 L4.26683462,0.0470650027 C5.23091148,0.270242873 5.82275788,1.22990771 5.59941962,2.19329219 L3.52609603,11.1427248 C3.30275777,12.1061093 2.34240322,12.6975306 1.37832636,12.4743527 C0.417971815,12.2548945 -0.173874594,11.29151 0.045741369,10.3318452 L2.11906495,1.37869296 C2.3312363,0.463477712 3.20856485,-0.116040824 4.12234267,0.0196424869 Z"></path></clipPath><clipPath id="i6"><path d="M6.63627269,0.339605232 L6.73830164,0.443566017 C7.33014805,0.960594749 7.33014805,1.92397922 6.73830164,2.44100795 L2.4427623,6.87852794 C1.92536198,7.4699493 0.96500743,7.4699493 0.443884806,6.87852794 C-0.147961602,6.36149921 -0.147961602,5.40183437 0.443884806,4.881086 L4.73942415,0.443566017 C5.22448695,-0.110891504 6.10213654,-0.145545099 6.63627269,0.339605232 Z"></path></clipPath><clipPath id="i7"><path d="M2.8956064,1.26432838 L3.78151486,7.40543944 C3.85596095,8.22003867 3.33856063,8.88585264 2.52337595,9.03091826 C1.70819128,9.10531088 1.04189878,8.58828215 0.896728907,7.77368293 L0.00709814169,1.6362915 C-0.0629687657,0.869609872 0.391229658,0.234724175 1.12453197,0.0386413914 L1.26523705,0.00709304394 C2.08042172,-0.0672995794 2.74671422,0.449729153 2.8956064,1.26432838 Z"></path></clipPath><clipPath id="i8"><path d="M1.61175783,0.276182614 L3.46174314,2.12483931 L5.31172846,0.276182614 C5.65188982,-0.0637344495 6.18552291,-0.0898819159 6.55544915,0.197740215 L6.64431345,0.276182614 C7.01282159,0.6444261 7.01282159,1.23956709 6.64431345,1.60781057 L4.79432814,3.45646726 L6.64431345,5.30512396 C7.01282159,5.67708707 7.01282159,6.26850843 6.64431345,6.63675191 C6.27580531,7.00871503 5.6802366,7.00871503 5.31172846,6.63675191 L3.46174314,4.78809522 L1.61175783,6.63675191 C1.23952738,7.00871503 0.647680975,7.00871503 0.279172834,6.63675191 C-0.0930576114,6.26850843 -0.0930576114,5.67708707 0.279172834,5.30512396 L2.12915815,3.45646726 L0.279172834,1.60781057 C-0.0930576114,1.23956709 -0.0930576114,0.6444261 0.279172834,0.276182614 C0.647680975,-0.0920608714 1.23952738,-0.0920608714 1.61175783,0.276182614 Z"></path></clipPath><clipPath id="i9"><path d="M2.16358946,0.387771549 L4.67986728,2.90224222 L7.19986739,0.387771549 C7.68277436,-0.094788601 8.36023377,-0.126959278 8.86908106,0.291259519 L8.97540662,0.387771549 C9.49280694,0.904800282 9.49280694,1.64500688 8.97540662,2.16203562 L6.45912881,4.68022592 L8.97540662,7.19469659 C9.49280694,7.71172532 9.49280694,8.45193192 8.97540662,8.96896066 C8.4580063,9.48598939 7.71726771,9.48598939 7.19986739,8.96896066 L4.67986728,6.45448999 L2.16358946,8.96896066 C1.64618915,9.48598939 0.905450559,9.48598939 0.388050239,8.96896066 C-0.12935008,8.45193192 -0.12935008,7.71172532 0.388050239,7.19469659 L2.90432805,4.68022592 L0.388050239,2.16203562 C-0.12935008,1.64500688 -0.12935008,0.904800282 0.388050239,0.387771549 C0.905450559,-0.129257183 1.64618915,-0.129257183 2.16358946,0.387771549 Z"></path></clipPath><clipPath id="i10"><path d="M1.61175783,0.276182614 L3.53618923,2.19923193 L5.46062064,0.276182614 C5.800782,-0.0637344495 6.33441509,-0.0898819159 6.70434133,0.197740215 L6.79320563,0.276182614 C7.16171377,0.6444261 7.16171377,1.23956709 6.79320563,1.60781057 L4.86877423,3.53085989 L6.79320563,5.4539092 C7.16171377,5.82587232 7.16171377,6.41729367 6.79320563,6.78553716 C6.42469749,7.15750028 5.82912878,7.15750028 5.46062064,6.78553716 L3.53618923,4.86248785 L1.61175783,6.78553716 C1.23952738,7.15750028 0.647680975,7.15750028 0.279172834,6.78553716 C-0.0930576114,6.41729367 -0.0930576114,5.82587232 0.279172834,5.4539092 L2.20360424,3.53085989 L0.279172834,1.60781057 C-0.0930576114,1.23956709 -0.0930576114,0.6444261 0.279172834,0.276182614 C0.647680975,-0.0920608714 1.23952738,-0.0920608714 1.61175783,0.276182614 Z"></path></clipPath><clipPath id="i11"><path d="M42.520728,0.025965911 L42.6696202,0.171031527 C48.4429144,0.394209397 54.1417625,1.8746226 59.4013787,4.61227114 C64.3594883,7.20113444 68.9490897,10.8984478 72.7272287,15.7823235 C74.1305375,17.6309802 75.3923987,19.4796369 76.4271993,21.4770789 C80.201616,28.5071818 81.7575393,36.3481643 80.7934624,43.5977254 C79.8331079,50.9216792 76.2783071,57.7286042 69.9876126,62.6868726 C68.6550276,63.7209301 67.1735504,64.6843145 65.6176272,65.4951941 C56.4855736,70.3949628 44.9793904,71.3394861 37.8413668,71.3625041 L37.2318431,71.3622569 C34.4403111,71.3509539 32.400271,71.2023858 31.5622637,71.1192764 C30.0845088,72.3021192 24.1586001,77.1116023 21.5678762,78.1456597 C19.8667831,78.8114737 18.3853059,78.960259 17.2016131,78.1456597 C16.0923664,77.4054531 15.4967977,75.8543669 15.5712438,73.191111 C15.6456899,69.6388632 15.794582,65.7927646 15.8690281,64.386744 C13.4271964,62.5380873 2.24539382,53.3654769 0.320962415,40.0491973 C0.0269003628,38.196821 -0.0475457263,36.3481643 0.0269003628,34.5739002 C0.395408504,25.6951406 4.83611772,17.7797655 11.4283189,11.713047 C17.9423517,5.72072123 26.5297081,1.65144473 35.2659566,0.394209397 C37.7077884,0.025965911 40.1496201,-0.0484267124 42.520728,0.025965911 Z M35.7089109,2.6148292 C27.3448928,3.79767192 19.2004906,7.71816317 12.9805199,13.3422455 C6.83499521,18.9626082 2.61762426,26.4353472 2.24539382,34.7226855 C2.17094773,36.3481643 2.24539382,38.1224283 2.46873209,39.8260194 C4.46760958,53.9568982 17.5701213,63.1295087 17.6445674,63.1295087 L18.1619677,63.4977522 L18.0912439,64.0891735 C18.0912439,64.0891735 17.8985847,67.2489211 17.7844551,70.7578219 L17.7666788,71.3294494 C17.7610114,71.5207162 17.7556162,71.7125592 17.7505362,71.9045346 L17.7362842,72.4804141 C17.7296737,72.7681084 17.7238686,73.0551019 17.7190134,73.3398963 C17.7190134,75.1885529 17.9423517,76.1482178 18.459752,76.5201809 C18.9027063,76.8140318 19.7178909,76.6689662 20.8271377,76.297003 C23.4923076,75.2629456 30.6019092,69.3450124 30.6019092,69.3450124 L30.8959712,69.0474419 L31.3426477,69.1218345 C31.4170938,69.1218345 50.8847461,71.1192764 64.6572726,63.7209301 C66.1350275,62.9063308 67.4676125,62.0210586 68.7294737,61.0576741 C74.577214,56.5457615 77.8342304,50.1814726 78.7238612,43.3782672 C79.6097696,36.4969495 78.2027385,29.0986031 74.577214,22.514856 C73.5386911,20.6661993 72.3549982,18.8138229 71.0224132,17.1139515 C67.3968887,12.5276463 63.1013494,8.9753985 58.3628558,6.53532046 L58.4373019,6.46092783 C53.47547,3.87206454 48.0744063,2.46604396 42.5951741,2.24286609 C40.2985123,2.16847346 38.0055727,2.24286609 35.7089109,2.6148292 Z"></path></clipPath><clipPath id="i12"><path d="M4.73849357,0 C7.32921747,0 9.47698714,2.14622718 9.47698714,4.73509048 C9.47698714,7.32395377 7.32921747,9.47018096 4.73849357,9.47018096 C2.14776967,9.47018096 0,7.32395377 0,4.73509048 C0,2.14622718 2.14776967,0 4.73849357,0 Z"></path></clipPath><clipPath id="i13"><path d="M4.73849357,0 C7.32921747,0 9.47698714,2.14622718 9.47698714,4.73509048 C9.47698714,7.32395377 7.32921747,9.47018096 4.73849357,9.47018096 C2.14776967,9.47018096 0,7.32395377 0,4.73509048 C0,2.14622718 2.14776967,0 4.73849357,0 Z"></path></clipPath><clipPath id="i14"><path d="M5.62445524,0 C7.54888664,0 10.3629488,0.442636109 11.4721955,2.07183456 C11.7699799,2.51447067 11.9188721,2.96082641 11.9188721,3.3290699 C11.9895959,4.36312736 10.2885027,4.73509048 9.03036381,3.92049125 C6.80814805,2.44007805 4.21742415,3.3290699 2.14410057,4.14366912 C0.219669167,4.88387573 -0.372177241,3.77170601 0.219669167,2.66325592 C1.10929993,0.963384473 3.62557774,0 5.62445524,0 Z"></path></clipPath></defs><g transform="translate(-479.0 -602.0)"><g clip-path="url(#i0)"><g transform="translate(479.0 602.0)"><g transform="translate(5.999999999998806 13.0)"><g transform="translate(71.5129131976064 25.10609772810966)"><g clip-path="url(#i1)"><polygon points="0,-7.10542736e-15 38.9559385,-7.10542736e-15 38.9559385,63.109574 0,63.109574 0,-7.10542736e-15" stroke="none" fill="#ADDEF3"></polygon></g></g><g transform="translate(63.5918493164645 19.55758413587111)"><g clip-path="url(#i2)"><polygon points="0,-1.64451786e-15 49.8510209,-1.64451786e-15 49.8510209,70.0222898 0,70.0222898 0,-1.64451786e-15" stroke="none" fill="#18A3D7"></polygon></g></g><g transform="translate(0.0 8.04351642184534)"><g clip-path="url(#i3)"><polygon points="0,0 13.1769578,0 13.1769578,13.1674943 0,13.1674943 0,0" stroke="none" fill="#ADDEF3"></polygon></g></g><g transform="translate(116.4534115792776 18.10623462389304)"><g clip-path="url(#i4)"><polygon points="0,0 11.5465884,0 11.5465884,11.5382959 0,11.5382959 0,0" stroke="none" fill="#18A3D7"></polygon></g></g><g transform="translate(49.33137169304973 1.7087868906787378)"><g clip-path="url(#i5)"><polygon points="1.55431223e-15,6.43929354e-15 5.64651844,6.43929354e-15 5.64651844,12.5214177 1.55431223e-15,12.5214177 1.55431223e-15,6.43929354e-15" stroke="none" fill="#18A3D7"></polygon></g></g><g transform="translate(54.26282377505413 8.192487650171941)"><g clip-path="url(#i6)"><polygon points="0,6.66133815e-15 7.18218645,6.66133815e-15 7.18218645,7.32209396 0,7.32209396 0,6.66133815e-15" stroke="none" fill="#18A3D7"></polygon></g></g><g transform="translate(43.07857592983783 4.4120147666316)"><g clip-path="url(#i7)"><polygon points="4.63171168e-16,-5.0324328e-15 3.788613,-5.0324328e-15 3.788613,9.0380113 4.63171168e-16,9.0380113 4.63171168e-16,-5.0324328e-15" stroke="none" fill="#18A3D7"></polygon></g></g><g transform="translate(78.12149252776726 0.0)"><g clip-path="url(#i8)"><polygon points="3.27515792e-15,-3.33066907e-15 6.92069456,-3.33066907e-15 6.92069456,6.91572425 3.27515792e-15,6.91572425 3.27515792e-15,-3.33066907e-15" stroke="none" fill="#ADDEF3"></polygon></g></g><g transform="translate(31.222875887317056 104.64326779386718)"><g clip-path="url(#i9)"><polygon points="3.33066907e-15,7.77156117e-16 9.36345686,7.77156117e-16 9.36345686,9.35673221 3.33066907e-15,9.35673221 3.33066907e-15,7.77156117e-16" stroke="none" fill="#18A3D7"></polygon></g></g><g transform="translate(103.80986003553699 88.84934188630979)"><g clip-path="url(#i10)"><polygon points="-6.605827e-15,5.55111512e-17 7.06958674,5.55111512e-17 7.06958674,7.0645095 -6.605827e-15,7.0645095 -6.605827e-15,5.55111512e-17" stroke="none" fill="#ADDEF3"></polygon></g></g><g transform="translate(4.044556250577443 17.414826696764422)"><g clip-path="url(#i11)"><polygon points="5.55111512e-17,5.55111512e-17 81.0722301,5.55111512e-17 81.0722301,78.7022095 5.55111512e-17,78.7022095 5.55111512e-17,5.55111512e-17" stroke="none" fill="#18A3D7"></polygon></g></g><g transform="translate(28.426494665181963 45.9216365072011)"><g clip-path="url(#i12)"><polygon points="0,0 9.47698714,0 9.47698714,9.47018096 0,9.47018096 0,0" stroke="none" fill="#18A3D7"></polygon></g></g><g transform="translate(52.33895071726874 45.9216365072011)"><g clip-path="url(#i13)"><polygon points="0,0 9.47698714,0 9.47698714,9.47018096 0,9.47018096 0,0" stroke="none" fill="#18A3D7"></polygon></g></g><g transform="translate(39.16380089300947 63.30682062894401)"><g clip-path="url(#i14)"><polygon points="1.77635684e-15,0 11.9210073,0 11.9210073,4.38312121 1.77635684e-15,4.38312121 1.77635684e-15,0" stroke="none" fill="#18A3D7"></polygon></g></g></g></g></g></g></svg>