<?xml version="1.0" encoding="UTF-8"?><svg version="1.1" width="260px" height="260px" viewBox="0 0 260.0 260.0" xmlns="http://www.w3.org/2000/svg" xmlns:xlink="http://www.w3.org/1999/xlink"><defs><clipPath id="i0"><path d="M1920,0 L1920,1728 L0,1728 L0,0 L1920,0 Z"></path></clipPath><clipPath id="i1"><path d="M166.971913,0 C172.120639,0 177.059457,2.04666047 180.701553,5.68938662 C184.341696,9.33428869 186.387252,14.2758665 186.387252,19.427932 L186.387252,77.711728 C240.053467,84.3949366 236.867132,161.094591 182.504184,162.999623 C171.81665,163.044534 161.502335,159.077239 153.59419,151.883798 C145.68782,144.690356 140.761206,134.792102 139.790439,124.143375 L19.4153387,124.143375 C14.2666128,124.143375 9.32779439,122.096715 5.68569874,118.453989 C2.04555571,114.809087 0,109.867509 0,104.715443 L0,19.427932 C0,14.2758665 2.04533382,9.33384463 5.68569874,5.68938662 C9.32823817,2.04688251 14.2666128,0 19.4153387,0 Z M217.451794,120.257789 C215.627861,73.9016329 149.381971,73.9016329 147.556574,120.257789 C147.556574,129.533017 151.238166,138.428123 157.792785,144.985217 C164.345628,151.543687 173.234968,155.228066 182.504184,155.228066 C191.7734,155.228066 200.66274,151.544086 207.215583,144.985217 C213.769802,138.428123 217.451794,129.533017 217.451794,120.257789 Z M178.621116,54.2028201 L7.76613549,54.2028201 L7.76613549,104.715665 C7.76613549,107.806372 8.99407245,110.772784 11.1779098,112.958437 C13.3617471,115.144091 16.3262363,116.372202 19.4153387,116.372202 L139.790439,116.372202 C140.752552,106.392684 145.153954,97.060616 152.237113,89.9710861 C159.322048,82.8833324 168.648067,78.4790758 178.621116,77.5163385 L178.621116,54.2028201 Z M178.621116,30.8893017 L7.76613549,30.8893017 L7.76613549,46.4316473 L178.621116,46.4316473 L178.621116,30.8893017 Z M166.971913,7.57578331 L19.4148949,7.57578331 C16.3261919,7.57578331 13.3617027,8.80429471 11.177466,10.9895485 C8.99322927,13.1748023 7.7659136,16.1412144 7.7659136,19.2323205 L7.7659136,23.1179069 L178.620894,23.1179069 L178.620894,19.2323205 C178.620894,16.141614 177.393179,13.1752019 175.209342,10.9895485 C173.025505,8.80389505 170.061015,7.57578331 166.971913,7.57578331 Z"></path></clipPath><clipPath id="i2"><path d="M19.1666667,0 C21.2835429,0 23,1.79108571 23,4 C23,6.20891429 21.2835429,8 19.1666667,8 L3.83333333,8 C1.71645714,8 0,6.20891429 0,4 C0,1.79108571 1.71645714,0 3.83333333,0 Z"></path></clipPath><clipPath id="i3"><path d="M12,0 C14.2089143,0 16,1.79108571 16,4 C16,6.20891429 14.2089143,8 12,8 L4,8 C1.79108571,8 0,6.20891429 0,4 C0,1.79108571 1.79108571,0 4,0 Z"></path></clipPath><clipPath id="i4"><path d="M35.0812095,0 C36.1195828,0 37.1162341,0.415705527 37.8467467,1.15316428 C38.5842989,1.88376586 39,2.88041719 39,3.91879046 C39,4.95716373 38.5842945,5.95381506 37.8468357,6.68432758 L24.9896195,19.5032505 L37.8468357,32.3221734 C39.3757201,33.8493658 39.3757201,36.3261888 37.8468357,37.8533367 C36.3196433,39.3822211 33.8428203,39.3822211 32.3156724,37.8533367 L19.4967495,24.9961204 L6.67782662,37.8533367 C5.15063423,39.3822211 2.67381118,39.3822211 1.14666332,37.8533367 C-0.382221106,36.3261443 -0.382221106,33.8493212 1.14666332,32.3221734 L14.0038796,19.5032505 L1.14666332,6.68432758 C-0.382221106,5.15713519 -0.382221106,2.68031215 1.14666332,1.15316428 C2.67385571,-0.375720141 5.15067875,-0.375720141 6.67782662,1.15316428 L19.4967495,14.0103805 L32.3156724,1.15316428 C33.0461849,0.415701074 34.0428363,0 35.0812095,0 Z"></path></clipPath></defs><g transform="translate(-830.0 -354.0)"><g clip-path="url(#i0)"><g transform="translate(830.0 354.0)"><g transform="translate(18.0 49.0)"><g clip-path="url(#i1)"><polygon points="0,0 225,0 225,163 0,163 0,0" stroke="none" fill="#0FB5E2"></polygon></g><g transform="translate(16.0 93.0)"><g clip-path="url(#i2)"><polygon points="0,0 23,0 23,8 0,8 0,0" stroke="none" fill="#0FB5E2"></polygon></g></g><g transform="translate(47.0 93.0)"><g clip-path="url(#i2)"><polygon points="0,0 23,0 23,8 0,8 0,0" stroke="none" fill="#0FB5E2"></polygon></g></g><g transform="translate(78.0 93.0)"><g clip-path="url(#i2)"><polygon points="0,0 23,0 23,8 0,8 0,0" stroke="none" fill="#0FB5E2"></polygon></g></g><g transform="translate(109.0 93.0)"><g clip-path="url(#i3)"><polygon points="0,0 16,0 16,8 0,8 0,0" stroke="none" fill="#0FB5E2"></polygon></g></g><g transform="translate(163.0 101.0)"><g clip-path="url(#i4)"><polygon points="-6.21724894e-15,0 39,0 39,39 -6.21724894e-15,39 -6.21724894e-15,0" stroke="none" fill="#0FB5E2"></polygon></g></g></g></g></g></g></svg>