<?xml version="1.0" encoding="UTF-8"?><svg version="1.1" width="24px" height="24px" viewBox="0 0 24.0 24.0" xmlns="http://www.w3.org/2000/svg" xmlns:xlink="http://www.w3.org/1999/xlink"><defs><clipPath id="i0"><path d="M375,0 L375,9375 L0,9375 L0,0 L375,0 Z"></path></clipPath><clipPath id="i1"><path d="M4.71915962,0.837820967 C7.00943793,-0.272537235 9.68035649,-0.279493884 11.9767844,0.81850678 C14.2729823,1.91627747 15.9448568,3.99993754 16.5198115,6.48024159 C17.0945363,8.9600282 16.5099262,11.5672192 14.9309848,13.5639499 L20,18.635002 L18.6354884,20 L13.5664731,14.9289479 C12.0910396,16.1039317 10.2607136,16.7428816 8.375099,16.7417586 C5.82998771,16.7442849 3.42240806,15.5876989 1.83271927,13.5992472 C0.24323853,11.6107954 -0.355281024,9.00676653 0.20642051,6.52358784 C0.768156527,4.04035165 2.42876636,1.94795265 4.71915962,0.837820967 Z M8.5,2 C6.77593304,2 5.12261161,2.68487946 3.90362946,3.90386161 C2.68464732,5.12284375 2,6.77616518 2,8.5 C2,10.2238348 2.68464732,11.8771562 3.90362946,13.0961384 C5.12261161,14.3151205 6.77593304,15 8.5,15 C10.2238348,15 11.8771562,14.3151205 13.0961384,13.0961384 C14.3151205,11.8771563 15,10.2238348 15,8.5 C15,6.77616518 14.3151205,5.12284375 13.0961384,3.90386161 C11.8771563,2.68487946 10.2238348,2 8.5,2 Z"></path></clipPath></defs><g transform="translate(-277.0 -68.0)"><g clip-path="url(#i0)"><g transform="translate(277.0 68.0)"><g transform="translate(2.0 2.0)"><g clip-path="url(#i1)"><polygon points="-2.77555756e-17,-1.11022302e-16 20,-1.11022302e-16 20,20 -2.77555756e-17,20 -2.77555756e-17,-1.11022302e-16" stroke="none" fill="#FFFFFF"></polygon></g></g></g></g></g></svg>