<?xml version="1.0" encoding="UTF-8"?><svg version="1.1" width="42px" height="42px" viewBox="0 0 42.0 42.0" xmlns="http://www.w3.org/2000/svg" xmlns:xlink="http://www.w3.org/1999/xlink"><defs><clipPath id="i0"><path d="M1920,0 L1920,10566 L0,10566 L0,0 L1920,0 Z"></path></clipPath><clipPath id="i1"><path d="M1.67307692,0 L1.67307692,29 L0,29 L0,0 L1.67307692,0 Z"></path></clipPath><clipPath id="i2"><path d="M3.90384615,0 C6.05988085,0 7.80769231,1.74781146 7.80769231,3.90384615 C7.80769231,6.05988085 6.05988085,7.80769231 3.90384615,7.80769231 C1.74781146,7.80769231 0,6.05988085 0,3.90384615 C0,1.74781146 1.74781146,0 3.90384615,0 Z"></path></clipPath><clipPath id="i3"><path d="M3.90384615,0 C6.05988085,0 7.80769231,1.74781146 7.80769231,3.90384615 C7.80769231,6.05988085 6.05988085,7.80769231 3.90384615,7.80769231 C1.74781146,7.80769231 0,6.05988085 0,3.90384615 C0,1.74781146 1.74781146,0 3.90384615,0 Z"></path></clipPath><clipPath id="i4"><path d="M1.67307692,0 L1.67307692,29 L0,29 L0,0 L1.67307692,0 Z"></path></clipPath><clipPath id="i5"><path d="M3.90384615,0 C6.05988085,0 7.80769231,1.74781146 7.80769231,3.90384615 C7.80769231,6.05988085 6.05988085,7.80769231 3.90384615,7.80769231 C1.74781146,7.80769231 0,6.05988085 0,3.90384615 C0,1.74781146 1.74781146,0 3.90384615,0 Z"></path></clipPath></defs><g transform="translate(-1341.0 -718.0)"><g clip-path="url(#i0)"><g transform="translate(1341.0 718.0)"><g transform="translate(6.000000000000087 7.0)"><g transform=""><g transform="translate(3.3461538461538414 0.0)"><g clip-path="url(#i1)"><polygon points="0,0 1.67307692,0 1.67307692,29 0,29 0,0" stroke="none" fill="#FFFFFF"></polygon></g></g><g transform="translate(0.0 11.15384615384616)"><g clip-path="url(#i2)"><polygon points="0,0 7.80769231,0 7.80769231,7.80769231 0,7.80769231 0,0" stroke="none" fill="#0A0A5E"></polygon><path d="M3.90384615,7.80769231 C6.05988085,7.80769231 7.80769231,6.05988085 7.80769231,3.90384615 C7.80769231,1.74781146 6.05988085,0 3.90384615,0 C1.74781146,0 0,1.74781146 0,3.90384615 C0,6.05988085 1.74781146,7.80769231 3.90384615,7.80769231 Z" stroke="#FFFFFF" stroke-width="3" fill="none" stroke-miterlimit="5"></path></g></g><g transform="translate(14.49999999999998 0.0)"><g clip-path="url(#i1)"><polygon points="0,0 1.67307692,0 1.67307692,29 0,29 0,0" stroke="none" fill="#FFFFFF"></polygon></g></g><g transform="translate(11.15384615384614 3.346153846153846)"><g clip-path="url(#i3)"><polygon points="0,0 7.80769231,0 7.80769231,7.80769231 0,7.80769231 0,0" stroke="none" fill="#0A0A5E"></polygon><path d="M3.90384615,7.80769231 C6.05988085,7.80769231 7.80769231,6.05988085 7.80769231,3.90384615 C7.80769231,1.74781146 6.05988085,0 3.90384615,0 C1.74781146,0 0,1.74781146 0,3.90384615 C0,6.05988085 1.74781146,7.80769231 3.90384615,7.80769231 Z" stroke="#FFFFFF" stroke-width="3" fill="none" stroke-miterlimit="5"></path></g></g><g transform="translate(25.65384615384612 0.0)"><g clip-path="url(#i4)"><polygon points="0,0 1.67307692,0 1.67307692,29 0,29 0,0" stroke="none" fill="#FFFFFF"></polygon></g></g><g transform="translate(22.30769230769228 14.499999999999998)"><g clip-path="url(#i5)"><polygon points="0,0 7.80769231,0 7.80769231,7.80769231 0,7.80769231 0,0" stroke="none" fill="#0A0A5E"></polygon><path d="M3.90384615,7.80769231 C6.05988085,7.80769231 7.80769231,6.05988085 7.80769231,3.90384615 C7.80769231,1.74781146 6.05988085,0 3.90384615,0 C1.74781146,0 0,1.74781146 0,3.90384615 C0,6.05988085 1.74781146,7.80769231 3.90384615,7.80769231 Z" stroke="#FFFFFF" stroke-width="3" fill="none" stroke-miterlimit="5"></path></g></g></g></g></g></g></g></svg>