<?xml version="1.0" encoding="UTF-8"?><svg version="1.1" width="44px" height="44px" viewBox="0 0 44.0 44.0" xmlns="http://www.w3.org/2000/svg" xmlns:xlink="http://www.w3.org/1999/xlink"><defs><clipPath id="i0"><path d="M1920,0 L1920,1080 L0,1080 L0,0 L1920,0 Z"></path></clipPath><clipPath id="i1"><path d="M19.1960501,13.1521373 C19.7379995,13.3610652 20.1976023,13.8826133 20.2959696,14.7304102 L21.0566982,21.2920292 C21.0717179,21.2902713 21.0809799,21.2887647 21.085235,21.287509 C21.9996725,20.9959208 22.6779904,21.03761 23.1929608,21.2505543 C23.6135051,21.4245751 23.9133812,21.7053227 24.1389532,22.0129159 C25.6170902,21.7334219 26.263687,22.4373029 26.604416,22.8087058 L26.6367081,22.8383376 C26.6652448,22.8626957 26.7188123,22.91166 26.7823954,22.9011166 C26.8985458,22.8815294 27.0151959,22.8704807 27.1318461,22.8669649 C27.6970768,22.8498894 28.1749241,23.0314458 28.5298795,23.3164619 C28.8933515,23.6085108 29.1276515,24.0115165 29.1969828,24.4271221 C29.2082473,24.4951747 29.2152567,24.5672452 29.2175092,24.642832 L29.4212738,31.4455216 C29.4295347,31.7212484 29.4130128,31.9781396 29.3722106,32.2315401 C29.3311578,32.4874285 29.2668262,32.7345226 29.1799618,32.9894017 L28.5689181,34.778338 C28.4425017,35.148481 28.211707,35.4538498 27.9143109,35.6670205 C27.6169148,35.8801912 27.2552179,36 26.8666831,36 L19.3792326,36 C19.0573184,36 18.7546739,35.9193924 18.4888002,35.7682187 C18.2244581,35.6178035 18.0009176,35.3983265 17.8352184,35.1198353 L15.6226268,31.4033632 C15.4709296,31.1484841 15.3440134,30.9109235 15.233874,30.6735944 C15.1252342,30.4395567 15.0258544,30.1889397 14.9277306,29.9049329 L13.1704483,24.8117871 C12.76968,23.8181265 12.9253823,23.0092865 13.3456767,22.4827242 C13.5266597,22.25597 13.7579607,22.0832028 14.0168173,21.9709539 C14.2736489,21.8597079 14.5552614,21.8089866 14.8398985,21.8255594 C15.5273162,21.8657379 16.2379319,22.2871099 16.6517154,23.1788331 C16.6559709,23.1881243 16.6599764,23.1976668 16.6634804,23.2072093 L17.6229942,25.214652 L17.0622685,15.0704032 C16.9919303,14.2020349 17.3388753,13.59788 17.8274949,13.2864811 C18.0312594,13.1566566 18.2613043,13.0793083 18.4983792,13.0562105 C18.7309297,13.033359 18.9699911,13.0649997 19.1960501,13.1521373 Z M18.5757198,13.8773839 C18.4698356,13.8876798 18.3644448,13.9238404 18.2688202,13.9851135 C18.0172434,14.1453258 17.8412653,14.4868424 17.883073,15.0066741 L18.5582228,27.244701 C18.5669842,27.4061668 18.4798686,27.5646241 18.3254223,27.638951 C18.120908,27.7371342 17.8758421,27.6502511 17.7779618,27.4450917 L15.9233375,23.5641129 C15.9165787,23.5525615 15.910321,23.5407593 15.9045631,23.5284544 C15.6347163,22.9468701 15.2024064,22.6739075 14.7946466,22.6500576 C14.6349391,22.6407664 14.4799866,22.6676358 14.3420609,22.7276502 C14.2061346,22.7866623 14.0837297,22.8785732 13.9865992,23.0003621 C13.7367783,23.3132523 13.658674,23.8295162 13.9322787,24.506828 C13.9365342,24.5168726 13.9405396,24.5269172 13.9440437,24.5372132 L15.7038252,29.637366 C15.7854284,29.8734159 15.8750484,30.0971551 15.9809327,30.3251564 C16.0853174,30.5499049 16.1984622,30.7628505 16.3278841,30.9805469 L18.5404757,34.6970191 C18.6320951,34.8509507 18.7532503,34.9709845 18.8944314,35.0513414 C19.0343629,35.1309461 19.1988253,35.1733809 19.3790586,35.1733809 L26.866509,35.1733809 C27.0815393,35.1733809 27.2785431,35.1093468 27.4372445,34.9953423 C27.5959523,34.8815891 27.720113,34.7163561 27.7892008,34.5137026 L28.4002444,32.7247662 C28.4743371,32.5073013 28.5279104,32.3038956 28.5604518,32.1025021 C28.5932443,31.898595 28.6065114,31.6914286 28.5997525,31.4681844 L28.395988,24.6654949 C28.3949867,24.6351097 28.3914822,24.6007079 28.3849735,24.5627859 C28.3481758,24.3420553 28.2180054,24.1233368 28.0139909,23.9593574 C27.8014663,23.7886023 27.5083381,23.6801142 27.1538697,23.6909141 C27.0812766,23.6931742 27.0024225,23.7012101 26.9170641,23.7155232 C26.4594734,23.7926144 26.2113827,23.5658602 26.0829605,23.4483399 C26.0596805,23.4297573 26.0374014,23.4104215 26.0173781,23.3883234 L25.9986037,23.3677321 C25.7502823,23.0970324 25.2661357,22.5699493 24.0718861,22.8707732 C23.8954081,22.9247627 23.6986542,22.8536977 23.5997743,22.6879581 C23.4365614,22.4147449 23.2132773,22.1508208 22.8805715,22.0129606 C22.528895,21.8674648 22.0372699,21.847877 21.3333189,22.0723735 C21.2749931,22.0909559 21.2121637,22.1052697 21.15033,22.1125519 C21.007393,22.1291254 20.8406813,22.1165698 20.6867284,22.0485178 C20.5077448,21.9691638 20.355048,21.8255243 20.2796992,21.5874688 C20.2619265,21.531219 20.2491599,21.4744677 20.2426516,21.4174658 L19.4781422,14.8243469 C19.420067,14.3238716 19.1812587,14.0282998 18.9031452,13.9213288 C18.7982606,13.880899 18.6861155,13.8663345 18.5757198,13.8773839 Z M29.9504425,9.2359272 C31.6208284,9.2359272 33.1333139,9.91516759 34.2279786,11.0135493 C35.3226433,12.1116739 36,13.6289398 36,15.3046051 C36,16.9802705 35.3228997,18.4975364 34.2279786,19.5956609 C33.1333139,20.6937855 31.6208284,21.373283 29.9504425,21.373283 C28.2800567,21.373283 26.7675712,20.6940427 25.6726501,19.5959181 C24.5779854,18.4977935 23.9006287,16.9805276 23.9006287,15.3048623 C23.9006287,13.6291969 24.577729,12.111931 25.6726501,11.0135493 C26.7673149,9.91542473 28.2798003,9.2359272 29.9504425,9.2359272 Z M6.0498138,9.2359272 C7.72019965,9.2359272 9.23268515,9.91516759 10.3273499,11.0135493 C11.4220146,12.1116739 12.0993713,13.6289398 12.0993713,15.3046051 C12.0993713,16.9802705 11.422271,18.4975364 10.3273499,19.5956609 C9.23268515,20.6937855 7.72019965,21.373283 6.0498138,21.373283 C4.37942795,21.373283 2.86694246,20.6940427 1.77202139,19.5959181 C0.67735665,18.4977935 0,16.9805276 0,15.3048623 C0,13.6291969 0.677100318,12.111931 1.77202139,11.0135493 C2.86668613,9.91542473 4.37917162,9.2359272 6.0498138,9.2359272 Z M29.9504425,10.0628313 C28.5076152,10.0628313 27.2011563,10.6494363 26.2556767,11.5979043 C25.310197,12.5463723 24.7254402,13.8569604 24.7254402,15.304348 C24.7254402,16.7517356 25.310197,18.0620665 26.2556767,19.0105345 C27.2011563,19.9590025 28.5076152,20.5456075 29.9504425,20.5456075 C31.3932699,20.5456075 32.6997287,19.9590025 33.6452084,19.0105345 C34.590688,18.0620665 35.1757012,16.7517356 35.1757012,15.304348 C35.1757012,13.8569604 34.5906944,12.5463723 33.6452084,11.5979043 C32.6997287,10.6496935 31.3932699,10.0628313 29.9504425,10.0628313 Z M6.0498138,10.0628313 C4.60698646,10.0628313 3.30052762,10.6494363 2.35504796,11.5979043 C1.40956829,12.5463723 0.824811489,13.8569604 0.824811489,15.304348 C0.824811489,16.7517356 1.40956829,18.0620665 2.35504796,19.0105345 C3.30052762,19.9590025 4.60698646,20.5456075 6.0498138,20.5456075 C7.49264114,20.5456075 8.79909999,19.9590025 9.74457965,19.0105345 C10.6900593,18.0620665 11.2750724,16.7517356 11.2750724,15.304348 C11.2750724,13.8569604 10.6900657,12.5463723 9.74457965,11.5979043 C8.79909999,10.6496935 7.49264114,10.0628313 6.0498138,10.0628313 Z M19.0311227,0.0897104778 C19.0446057,0.0915325854 19.0583739,0.0937926058 19.071641,0.0970570225 C20.7060123,0.39211452 22.0697613,1.32246685 22.9546825,2.5898551 C23.8396038,3.85750048 24.2443517,5.46135893 23.9609769,7.10314582 C23.9592247,7.11695691 23.9569717,7.13076865 23.9537176,7.14407767 C23.6595897,8.7838717 22.7321686,10.1516739 21.4687735,11.0391349 C20.2001236,11.9303245 18.5938207,12.3361588 16.9506701,12.0453313 C15.3065582,11.7545423 13.9345426,10.8216571 13.0460967,9.54848321 C12.1577149,8.27582355 11.7531594,6.6644437 12.0430706,5.0160997 C12.3329433,3.36679141 13.2628893,1.99043928 14.5320519,1.09918538 C15.7957033,0.211467178 17.3945085,-0.194559917 19.0311227,0.0897104778 Z M15.0018798,1.77450435 C13.9074714,2.54316584 13.1048966,3.73219008 12.8543324,5.15855632 C12.6035053,6.5856297 12.9522062,7.97882463 13.7189394,9.07720635 C14.485179,10.1750738 15.6702007,10.9801851 17.0923293,11.2315414 C18.5149064,11.4831612 19.9037118,11.1333582 20.9986329,10.3642017 C22.0930413,9.59554018 22.8953597,8.40677308 23.1461803,6.98066398 C23.3970073,5.55307632 23.0483064,4.15988138 22.2815733,3.06149967 C21.5153336,1.96363223 20.3303119,1.15877802 18.9086961,0.907164647 C17.4856063,0.655544848 16.0968008,1.00534786 15.0018798,1.77450435 Z M21.5192273,4.04994164 C21.6729238,4.21668532 21.6629141,4.47708652 21.4966983,4.63152595 L17.180392,8.63985423 C17.1716306,8.64964748 17.1621182,8.6589393 17.1521052,8.66797913 C16.9831377,8.82040643 16.7228008,8.80684862 16.5708537,8.63734324 L14.4761107,6.30371601 C14.3243885,6.13391492 14.3379036,5.87275515 14.506875,5.72032785 C14.6758424,5.56790055 14.9361794,5.58145835 15.0881264,5.75096374 L16.9044932,7.7744778 L20.9394754,4.02734144 C21.1056937,3.87315914 21.3652745,3.88320053 21.5192273,4.04994164 Z"></path></clipPath><clipPath id="i2"><path d=""></path></clipPath></defs><g transform="translate(-684.0 -304.0)"><g clip-path="url(#i0)"><g transform="translate(684.0 304.0)"><g transform="translate(3.9999999999999467 4.0)"><g transform="translate(1.0 0.0)"><g clip-path="url(#i1)"><polygon points="0,2.22044605e-16 36,2.22044605e-16 36,36 0,36 0,2.22044605e-16" stroke="none" fill="#0A0A5E"></polygon></g><path d="M21.0852089,21.2877191 C21.9996725,20.9959208 22.6779904,21.03761 23.1929608,21.2505543 C23.6135051,21.4245751 23.9133812,21.7053227 24.1389532,22.0129159 C25.6170902,21.7334219 26.263687,22.4373029 26.604416,22.8087058 L26.6367081,22.8383376 L26.637459,22.8373332 C26.6652448,22.8626957 26.7188123,22.91166 26.7823954,22.9011166 C26.8985458,22.8815294 27.0151959,22.8704807 27.1318461,22.8669649 C27.6970768,22.8498894 28.1749241,23.0314458 28.5298795,23.3164619 C28.8933515,23.6085108 29.1276515,24.0115165 29.1969828,24.4271221 C29.2082473,24.4951747 29.2152567,24.5672452 29.2175092,24.642832 L29.4212738,31.4455216 C29.4295347,31.7212484 29.4130128,31.9781396 29.3722106,32.2315401 C29.3311578,32.4874285 29.2668262,32.7345226 29.1799618,32.9894017 L28.5689181,34.778338 C28.4425017,35.148481 28.211707,35.4538498 27.9143109,35.6670205 C27.6169148,35.8801912 27.2552179,36 26.8666831,36 L19.3792326,36 C19.0573184,36 18.7546739,35.9193924 18.4888002,35.7682187 C18.2244581,35.6178035 18.0009176,35.3983265 17.8352184,35.1198353 L15.6226268,31.4033632 C15.4709296,31.1484841 15.3440134,30.9109235 15.233874,30.6735944 C15.1252342,30.4395567 15.0258544,30.1889397 14.9277306,29.9049329 L13.1704483,24.8117871 C12.76968,23.8181265 12.9253823,23.0092865 13.3456767,22.4827242 C13.5266597,22.25597 13.7579607,22.0832028 14.0168173,21.9709539 C14.2736489,21.8597079 14.5552614,21.8089866 14.8398985,21.8255594 C15.5273162,21.8657379 16.2379319,22.2871099 16.6517154,23.1788331 C16.6559709,23.1881243 16.6599764,23.1976668 16.6634804,23.2072093 L17.6229942,25.214652 L17.0622685,15.0704032 L17.0617679,15.0704032 C16.9919303,14.2020349 17.3388753,13.59788 17.8274949,13.2864811 C18.0312594,13.1566566 18.2613043,13.0793083 18.4983792,13.0562105 C18.7309297,13.033359 18.9699911,13.0649997 19.1960501,13.1521373 C19.7379995,13.3610652 20.1976023,13.8826133 20.2959696,14.7304102 L21.0566982,21.2920292 C21.0717179,21.2902713 21.0809799,21.2887647 21.085235,21.287509 L21.0852089,21.2877191 Z M14.4763356,6.30341644 C14.3243885,6.13391492 14.3379036,5.87275515 14.506875,5.72032785 C14.6758424,5.56790055 14.9361794,5.58145835 15.0881264,5.75096374 L16.9044932,7.7744778 L20.9394754,4.02734144 C21.1056937,3.87315914 21.3652745,3.88320053 21.5192273,4.04994164 C21.6729238,4.21668532 21.6629141,4.47708652 21.4966983,4.63152595 L17.180392,8.63985423 C17.1716306,8.64964748 17.1621182,8.6589393 17.1521052,8.66797913 C16.9831377,8.82040643 16.7228008,8.80684862 16.5708537,8.63734324 L14.4761107,6.30371601 L14.4763356,6.30341644 Z M29.9504425,9.2359272 C31.6208284,9.2359272 33.1333139,9.91516759 34.2279786,11.0135493 C35.3226433,12.1116739 36,13.6289398 36,15.3046051 C36,16.9802705 35.3228997,18.4975364 34.2279786,19.5956609 C33.1333139,20.6937855 31.6208284,21.373283 29.9504425,21.373283 C28.2800567,21.373283 26.7675712,20.6940427 25.6726501,19.5959181 C24.5779854,18.4977935 23.9006287,16.9805276 23.9006287,15.3048623 C23.9006287,13.6291969 24.577729,12.111931 25.6726501,11.0135493 C26.7673149,9.91542473 28.2798003,9.2359272 29.9504425,9.2359272 L29.9504425,9.2359272 Z M33.6452084,11.5981615 C32.6997287,10.6496935 31.3932699,10.0628313 29.9504425,10.0628313 C28.5076152,10.0628313 27.2011563,10.6494363 26.2556767,11.5979043 C25.310197,12.5463723 24.7254402,13.8569604 24.7254402,15.304348 C24.7254402,16.7517356 25.310197,18.0620665 26.2556767,19.0105345 C27.2011563,19.9590025 28.5076152,20.5456075 29.9504425,20.5456075 C31.3932699,20.5456075 32.6997287,19.9590025 33.6452084,19.0105345 C34.590688,18.0620665 35.1757012,16.7517356 35.1757012,15.304348 C35.1757012,13.8569604 34.5906944,12.5463723 33.6452084,11.5979043 L33.6452084,11.5981615 Z M6.0498138,9.2359272 C7.72019965,9.2359272 9.23268515,9.91516759 10.3273499,11.0135493 C11.4220146,12.1116739 12.0993713,13.6289398 12.0993713,15.3046051 C12.0993713,16.9802705 11.422271,18.4975364 10.3273499,19.5956609 C9.23268515,20.6937855 7.72019965,21.373283 6.0498138,21.373283 C4.37942795,21.373283 2.86694246,20.6940427 1.77202139,19.5959181 C0.67735665,18.4977935 0,16.9805276 0,15.3048623 C0,13.6291969 0.677100318,12.111931 1.77202139,11.0135493 C2.86668613,9.91542473 4.37917162,9.2359272 6.0498138,9.2359272 L6.0498138,9.2359272 Z M9.74457965,11.5981615 C8.79909999,10.6496935 7.49264114,10.0628313 6.0498138,10.0628313 C4.60698646,10.0628313 3.30052762,10.6494363 2.35504796,11.5979043 C1.40956829,12.5463723 0.824811489,13.8569604 0.824811489,15.304348 C0.824811489,16.7517356 1.40956829,18.0620665 2.35504796,19.0105345 C3.30052762,19.9590025 4.60698646,20.5456075 6.0498138,20.5456075 C7.49264114,20.5456075 8.79909999,19.9590025 9.74457965,19.0105345 C10.6900593,18.0620665 11.2750724,16.7517356 11.2750724,15.304348 C11.2750724,13.8569604 10.6900657,12.5463723 9.74457965,11.5979043 L9.74457965,11.5981615 Z M19.0308381,0.0897747633 C19.0446057,0.0915325854 19.0583739,0.0937926058 19.071641,0.0970570225 C20.7060123,0.39211452 22.0697613,1.32246685 22.9546825,2.5898551 C23.8396038,3.85750048 24.2443517,5.46135893 23.9609769,7.10314582 C23.9592247,7.11695691 23.9569717,7.13076865 23.9537176,7.14407767 C23.6595897,8.7838717 22.7321686,10.1516739 21.4687735,11.0391349 C20.2001236,11.9303245 18.5938207,12.3361588 16.9506701,12.0453313 C15.3065582,11.7545423 13.9345426,10.8216571 13.0460967,9.54848321 C12.1577149,8.27582355 11.7531594,6.6644437 12.0430706,5.0160997 C12.3329433,3.36679141 13.2628893,1.99043928 14.5320519,1.09918538 C15.7957033,0.211467178 17.3945085,-0.194559917 19.0311227,0.0897104778 L19.0308381,0.0897747633 Z M22.2815733,3.06149967 C21.5153336,1.96363223 20.3303119,1.15877802 18.9086961,0.907164647 C17.4856063,0.655544848 16.0968008,1.00534786 15.0018798,1.77450435 C13.9074714,2.54316584 13.1048966,3.73219008 12.8543324,5.15855632 C12.6035053,6.5856297 12.9522062,7.97882463 13.7189394,9.07720635 C14.485179,10.1750738 15.6702007,10.9801851 17.0923293,11.2315414 C18.5149064,11.4831612 19.9037118,11.1333582 20.9986329,10.3642017 C22.0930413,9.59554018 22.8953597,8.40677308 23.1461803,6.98066398 C23.3970073,5.55307632 23.0483064,4.15988138 22.2815733,3.06149967 L22.2815733,3.06149967 Z M22.8806014,22.0128593 C22.528895,21.8674648 22.0372699,21.847877 21.3333189,22.0723735 C21.2749931,22.0909559 21.2121637,22.1052697 21.15033,22.1125519 C21.007393,22.1291254 20.8406813,22.1165698 20.6867284,22.0485178 C20.5077448,21.9691638 20.355048,21.8255243 20.2796992,21.5874688 C20.2619265,21.531219 20.2491599,21.4744677 20.2426516,21.4174658 L19.4781422,14.8243469 C19.420067,14.3238716 19.1812587,14.0282998 18.9031452,13.9213288 C18.7982606,13.880899 18.6861155,13.8663345 18.5757198,13.8773839 C18.4698356,13.8876798 18.3644448,13.9238404 18.2688202,13.9851135 C18.0172434,14.1453258 17.8412653,14.4868424 17.883073,15.0066741 L17.882322,15.0066741 L18.5589737,27.244701 L18.5582228,27.244701 C18.5669842,27.4061668 18.4798686,27.5646241 18.3254223,27.638951 C18.120908,27.7371342 17.8758421,27.6502511 17.7779618,27.4450917 L15.9233375,23.5641129 C15.9165787,23.5525615 15.910321,23.5407593 15.9045631,23.5284544 C15.6347163,22.9468701 15.2024064,22.6739075 14.7946466,22.6500576 C14.6349391,22.6407664 14.4799866,22.6676358 14.3420609,22.7276502 C14.2061346,22.7866623 14.0837297,22.8785732 13.9865992,23.0003621 C13.7367783,23.3132523 13.658674,23.8295162 13.9322787,24.506828 C13.9365342,24.5168726 13.9405396,24.5269172 13.9440437,24.5372132 L15.7038252,29.637366 C15.7854284,29.8734159 15.8750484,30.0971551 15.9809327,30.3251564 C16.0853174,30.5499049 16.1984622,30.7628505 16.3278841,30.9805469 L18.5404757,34.6970191 C18.6320951,34.8509507 18.7532503,34.9709845 18.8944314,35.0513414 C19.0343629,35.1309461 19.1988253,35.1733809 19.3790586,35.1733809 L26.866509,35.1733809 C27.0815393,35.1733809 27.2785431,35.1093468 27.4372445,34.9953423 C27.5959523,34.8815891 27.720113,34.7163561 27.7892008,34.5137026 L28.4002444,32.7247662 C28.4743371,32.5073013 28.5279104,32.3038956 28.5604518,32.1025021 C28.5932443,31.898595 28.6065114,31.6914286 28.5997525,31.4681844 L28.395988,24.6654949 C28.3949867,24.6351097 28.3914822,24.6007079 28.3849735,24.5627859 C28.3481758,24.3420553 28.2180054,24.1233368 28.0139909,23.9593574 C27.8014663,23.7886023 27.5083381,23.6801142 27.1538697,23.6909141 C27.0812766,23.6931742 27.0024225,23.7012101 26.9170641,23.7155232 C26.4594734,23.7926144 26.2113827,23.5658602 26.0829605,23.4483399 L26.0837115,23.4473355 L26.0829605,23.4465821 C26.0596805,23.4297573 26.0374014,23.4104215 26.0173781,23.3883234 L25.9986037,23.3677321 C25.7502823,23.0970324 25.2661357,22.5699493 24.0718861,22.8707732 C23.8954081,22.9247627 23.6986542,22.8536977 23.5997743,22.6879581 C23.4365614,22.4147449 23.2132773,22.1508208 22.8805715,22.0129606 L22.8806014,22.0128593 Z" stroke="#0A0A5E" stroke-width="0.4" fill="none" stroke-miterlimit="10"></path></g><g transform="translate(0.0 36.0)"><g clip-path="url(#i2)"><polygon points="0.4453125,0.4296875 0.5546875,0.4296875 0.5546875,0.5703125 0.4453125,0.5703125 0.4453125,0.4296875" stroke="none" fill="#000000"></polygon></g></g><g transform="translate(0.0 36.0)"><g clip-path="url(#i2)"><polygon points="0.4609375,0.44531 0.5390625,0.44531 0.5390625,0.55469 0.4609375,0.55469 0.4609375,0.44531" stroke="none" fill="#000000"></polygon></g></g><g transform="translate(0.0 36.0)"><g clip-path="url(#i2)"><polygon points="0,0 0.109375,0 0.109375,0.109375 0,0.109375 0,0" stroke="none" fill="#000000"></polygon></g></g><g transform="translate(0.0 36.0)"><g clip-path="url(#i2)"><polygon points="0,0 0.09375,0 0.09375,0.109375 0,0.109375 0,0" stroke="none" fill="#000000"></polygon></g></g><g transform="translate(0.0 36.0)"><g clip-path="url(#i2)"><polygon points="0.453125,0.4296875 0.546875,0.4296875 0.546875,0.5703125 0.453125,0.5703125 0.453125,0.4296875" stroke="none" fill="#000000"></polygon></g></g><g transform="translate(0.0 36.0)"><g clip-path="url(#i2)"><polygon points="0,0 0.109375,0 0.109375,0.109375 0,0.109375 0,0" stroke="none" fill="#000000"></polygon></g></g><g transform="translate(0.0 36.0)"><g clip-path="url(#i2)"><polygon points="0,0 0.109375,0 0.109375,0.14062 0,0.14062 0,0" stroke="none" fill="#000000"></polygon></g></g><g transform="translate(0.0 36.0)"><g clip-path="url(#i2)"><polygon points="0,0 0.109375,0 0.109375,0.14062 0,0.14062 0,0" stroke="none" fill="#000000"></polygon></g></g><g transform="translate(0.0 36.0)"><g clip-path="url(#i2)"><polygon points="0.4375,0.421875 0.5625,0.421875 0.5625,0.578125 0.4375,0.578125 0.4375,0.421875" stroke="none" fill="#000000"></polygon></g></g><g transform="translate(0.0 36.0)"><g clip-path="url(#i2)"><polygon points="0,0 0.109375,0 0.109375,0.14062 0,0.14062 0,0" stroke="none" fill="#000000"></polygon></g></g><g transform="translate(0.0 36.0)"><g clip-path="url(#i2)"><polygon points="0,0 0.109375,0 0.109375,0.109375 0,0.109375 0,0" stroke="none" fill="#000000"></polygon></g></g><g transform="translate(0.0 36.0)"><g clip-path="url(#i2)"><polygon points="0,0 0.109375,0 0.109375,0.14062 0,0.14062 0,0" stroke="none" fill="#000000"></polygon></g></g><g transform="translate(0.0 36.0)"><g clip-path="url(#i2)"><polygon points="0.4609375,0.4453125 0.5390625,0.4453125 0.5390625,0.5546875 0.4609375,0.5546875 0.4609375,0.4453125" stroke="none" fill="#000000"></polygon></g></g><g transform="translate(0.0 36.0)"><g clip-path="url(#i2)"><polygon points="0,0 0.109375,0 0.109375,0.109375 0,0.109375 0,0" stroke="none" fill="#000000"></polygon></g></g><g transform="translate(0.0 36.0)"><g clip-path="url(#i2)"><polygon points="0.4609375,0.44531 0.5390625,0.44531 0.5390625,0.55469 0.4609375,0.55469 0.4609375,0.44531" stroke="none" fill="#000000"></polygon></g></g><g transform="translate(0.0 36.0)"><g clip-path="url(#i2)"><polygon points="0.4453125,0.44531 0.5546875,0.44531 0.5546875,0.55469 0.4453125,0.55469 0.4453125,0.44531" stroke="none" fill="#000000"></polygon></g></g><g transform="translate(0.0 36.0)"><g clip-path="url(#i2)"><polygon points="0,0 0.09375,0 0.09375,0.109375 0,0.109375 0,0" stroke="none" fill="#000000"></polygon></g></g><g transform="translate(0.0 36.0)"><g clip-path="url(#i2)"><polygon points="0.4609375,0.44531 0.5390625,0.44531 0.5390625,0.55469 0.4609375,0.55469 0.4609375,0.44531" stroke="none" fill="#000000"></polygon></g></g><g transform="translate(0.0 36.0)"><g clip-path="url(#i2)"><polygon points="0.453125,0.4296875 0.546875,0.4296875 0.546875,0.5703125 0.453125,0.5703125 0.453125,0.4296875" stroke="none" fill="#000000"></polygon></g></g><g transform="translate(0.0 36.0)"><g clip-path="url(#i2)"><polygon points="0.453125,0.4453125 0.546875,0.4453125 0.546875,0.5546875 0.453125,0.5546875 0.453125,0.4453125" stroke="none" fill="#000000"></polygon></g></g><g transform="translate(0.0 36.0)"><g clip-path="url(#i2)"><polygon points="0.4609375,0.4296875 0.5390625,0.4296875 0.5390625,0.5703125 0.4609375,0.5703125 0.4609375,0.4296875" stroke="none" fill="#000000"></polygon></g></g><g transform="translate(0.0 36.0)"><g clip-path="url(#i2)"><polygon points="0.4609375,0.44531 0.5390625,0.44531 0.5390625,0.55469 0.4609375,0.55469 0.4609375,0.44531" stroke="none" fill="#000000"></polygon></g></g><g transform="translate(0.0 36.0)"><g clip-path="url(#i2)"><polygon points="0,0 0.109375,0 0.109375,0.109375 0,0.109375 0,0" stroke="none" fill="#000000"></polygon></g></g><g transform="translate(0.0 36.0)"><g clip-path="url(#i2)"><polygon points="0.4140625,0.44531 0.5859375,0.44531 0.5859375,0.55469 0.4140625,0.55469 0.4140625,0.44531" stroke="none" fill="#000000"></polygon></g></g><g transform="translate(0.0 36.0)"><g clip-path="url(#i2)"><polygon points="0.453125,0.4296875 0.546875,0.4296875 0.546875,0.5703125 0.453125,0.5703125 0.453125,0.4296875" stroke="none" fill="#000000"></polygon></g></g><g transform="translate(0.0 36.0)"><g clip-path="url(#i2)"><polygon points="0.4453125,0.42969 0.5546875,0.42969 0.5546875,0.57031 0.4453125,0.57031 0.4453125,0.42969" stroke="none" fill="#000000"></polygon></g></g><g transform="translate(0.0 36.0)"><g clip-path="url(#i2)"><polygon points="0,0 0.109375,0 0.109375,0.109375 0,0.109375 0,0" stroke="none" fill="#000000"></polygon></g></g><g transform="translate(0.0 36.0)"><g clip-path="url(#i2)"><polygon points="0.4375,0.42969 0.5625,0.42969 0.5625,0.57031 0.4375,0.57031 0.4375,0.42969" stroke="none" fill="#000000"></polygon></g></g><g transform="translate(0.0 36.0)"><g clip-path="url(#i2)"><polygon points="0,0 0.109375,0 0.109375,0.109375 0,0.109375 0,0" stroke="none" fill="#000000"></polygon></g></g><g transform="translate(0.0 36.0)"><g clip-path="url(#i2)"><polygon points="0.4453125,0.44531 0.5546875,0.44531 0.5546875,0.55469 0.4453125,0.55469 0.4453125,0.44531" stroke="none" fill="#000000"></polygon></g></g><g transform="translate(0.0 36.0)"><g clip-path="url(#i2)"><polygon points="0.4453125,0.44531 0.5546875,0.44531 0.5546875,0.55469 0.4453125,0.55469 0.4453125,0.44531" stroke="none" fill="#000000"></polygon></g></g><g transform="translate(0.0 36.0)"><g clip-path="url(#i2)"><polygon points="0,0 0.109375,0 0.109375,0.140625 0,0.140625 0,0" stroke="none" fill="#000000"></polygon></g></g><g transform="translate(0.0 36.0)"><g clip-path="url(#i2)"><polygon points="0.4609375,0.44531 0.5390625,0.44531 0.5390625,0.55469 0.4609375,0.55469 0.4609375,0.44531" stroke="none" fill="#000000"></polygon></g></g><g transform="translate(0.0 36.0)"><g clip-path="url(#i2)"><polygon points="0,0 0.109375,0 0.109375,0.109375 0,0.109375 0,0" stroke="none" fill="#000000"></polygon></g></g><g transform="translate(0.0 35.99999999999999)"><g clip-path="url(#i2)"><polygon points="0,-6.32827124e-15 0.046875,-6.32827124e-15 0.046875,0.156255 0,0.156255 0,-6.32827124e-15" stroke="none" fill="#000000"></polygon></g></g><g transform="translate(0.0 36.0)"><g clip-path="url(#i2)"><polygon points="0,0 0.109375,0 0.109375,0.109375 0,0.109375 0,0" stroke="none" fill="#000000"></polygon></g></g><g transform="translate(0.0 36.0)"><g clip-path="url(#i2)"><polygon points="0.4609375,0.4453125 0.5390625,0.4453125 0.5390625,0.5546875 0.4609375,0.5546875 0.4609375,0.4453125" stroke="none" fill="#000000"></polygon></g></g><g transform="translate(0.0 36.0)"><g clip-path="url(#i2)"><polygon points="0.453125,0.4296875 0.546875,0.4296875 0.546875,0.5703125 0.453125,0.5703125 0.453125,0.4296875" stroke="none" fill="#000000"></polygon></g></g></g></g></g></g></svg>