<?xml version="1.0" encoding="UTF-8"?><svg version="1.1" width="192px" height="192px" viewBox="0 0 192.0 192.0" xmlns="http://www.w3.org/2000/svg" xmlns:xlink="http://www.w3.org/1999/xlink"><defs><clipPath id="i0"><path d="M1920,0 L1920,10566 L0,10566 L0,0 L1920,0 Z"></path></clipPath><clipPath id="i1"><path d="M44,0 C68.300529,0 88,19.699471 88,44 C88,68.300529 68.300529,88 44,88 C19.699471,88 0,68.300529 0,44 C0,19.699471 19.699471,0 44,0 Z"></path></clipPath></defs><g transform="translate(-686.0 -1900.0)"><g clip-path="url(#i0)"><g transform="translate(686.0 1900.0)"><g transform="translate(132.0 59.99987333250492)"><path d="M0,0 L31.95,0 C34.3968567,-0.0158137398 36.6018196,1.4740261 37.5,3.75012667 L48,30.0001267" stroke="#646464" stroke-width="3" fill="none" stroke-linecap="round" stroke-linejoin="round"></path></g><g transform="translate(12.0 107.625)"><path d="M0,0.375 L120,0.375" stroke="#646464" stroke-width="3" fill="none" stroke-linecap="round" stroke-linejoin="round"></path></g><g transform="translate(123.0 126.0)"><path d="M18,36 C27.9411255,36 36,27.9411255 36,18 C36,8.0588745 27.9411255,0 18,0 C8.0588745,0 0,8.0588745 0,18 C0,27.9411255 8.0588745,36 18,36 Z" stroke="#646464" stroke-width="3" fill="none" stroke-linecap="round" stroke-linejoin="round"></path></g><g transform="translate(33.0 126.0)"><path d="M18,36 C27.9411255,36 36,27.9411255 36,18 C36,8.0588745 27.9411255,0 18,0 C8.0588745,0 0,8.0588745 0,18 C0,27.9411255 8.0588745,36 18,36 Z" stroke="#646464" stroke-width="3" fill="none" stroke-linecap="round" stroke-linejoin="round"></path></g><g transform="translate(69.0 143.625)"><path d="M54,0.375 L0,0.375" stroke="#646464" stroke-width="3" fill="none" stroke-linecap="round" stroke-linejoin="round"></path></g><g transform="translate(12.0 48.0)"><path d="M21,96 L6,96 C2.6862915,96 0,93.3137085 0,90 L0,6 C0,2.6862915 2.6862915,0 6,0 L120,0 L120,80.4" stroke="#646464" stroke-width="3" fill="none" stroke-linecap="round" stroke-linejoin="round"></path></g><g transform="translate(132.0 90.0)"><path d="M0,0 L48,0 L48,48 C48,51.3137085 45.3137085,54 42,54 L27,54" stroke="#646464" stroke-width="3" fill="none" stroke-linecap="round" stroke-linejoin="round"></path></g><g transform="translate(30.0 1.0)"><g clip-path="url(#i1)"><polygon points="0,0 88,0 88,88 0,88 0,0" stroke="none" fill="#E8F8FF"></polygon></g></g><g transform="translate(54.28502415458958 20.555555555554747)"><path d="M30.8051377,21.3333333 L30.8051377,18.6666667 C30.8051377,16.2120678 28.8246611,14.2222222 26.3816195,14.2222222 C23.9385779,14.2222222 21.9581014,16.2120678 21.9581014,18.6666667 L21.9581014,4.44444444 C21.9581014,1.98984556 19.9776249,0 17.5345833,0 C15.0915417,0 13.1110652,1.98984556 13.1110652,4.44444444 L13.1110652,31.4 L8.26731284,22.9555556 C7.04579201,20.8261911 4.33749042,20.0949229 2.21815187,21.3222223 C0.0988133182,22.5495217 -0.629011823,25.2706355 0.5925089,27.4 C7.80284344,42.6666667 12.1821264,48 21.9581014,48 C26.6508612,48 31.1514178,46.1269895 34.4697001,42.7930094 C37.7879823,39.4590294 39.6521739,34.937182 39.6521739,30.2222222 L39.6521739,21.3333333 C39.6521739,18.8787344 37.6716974,16.8888889 35.2286558,16.8888889 C32.7856142,16.8888889 30.8051377,18.8787344 30.8051377,21.3333333 Z" stroke="#0263E2" stroke-width="3" fill="none" stroke-linecap="round" stroke-linejoin="round"></path></g></g></g></g></svg>