<?xml version="1.0" encoding="UTF-8"?><svg version="1.1" width="29px" height="29px" viewBox="0 0 29.0 29.0" xmlns="http://www.w3.org/2000/svg" xmlns:xlink="http://www.w3.org/1999/xlink"><defs><clipPath id="i0"><path d="M1920,0 L1920,1476 L0,1476 L0,0 L1920,0 Z"></path></clipPath><clipPath id="i1"><path d="M14.5,0 C22.5052083,0 29,6.49479167 29,14.5 C29,22.5052083 22.5052083,29 14.5,29 C6.49479167,29 0,22.5052083 0,14.5 C0,6.49479167 6.49479167,0 14.5,0 Z M21.5688723,9.42964784 C20.9581696,8.85678405 20.0118338,8.85678405 19.4013491,9.42964784 L11.86119,16.5051473 L8.62538671,13.4687493 C8.01468397,12.8958855 7.06834821,12.8958855 6.45786352,13.4687493 C5.84737883,14.0418177 5.84737883,14.9298358 6.45786352,15.5026996 L10.7924738,19.5703956 C11.06738,19.8567303 11.4640669,20 11.8610264,20 C12.2579859,20 12.6548855,19.8281613 12.9295791,19.5703956 L21.5382091,11.4635982 C22.148721,10.8906832 22.148721,10.0027162 21.5688723,9.42964784 Z"></path></clipPath></defs><g transform="translate(-945.0 -456.0)"><g clip-path="url(#i0)"><g transform="translate(917.0 456.0)"><g transform="translate(28.0 0.0)"><g clip-path="url(#i1)"><polygon points="0,0 29,0 29,29 0,29 0,0" stroke="none" fill="#0CAD55"></polygon></g></g></g></g></g></svg>