<?xml version="1.0" encoding="UTF-8"?><svg version="1.1" width="260px" height="260px" viewBox="0 0 260.0 260.0" xmlns="http://www.w3.org/2000/svg" xmlns:xlink="http://www.w3.org/1999/xlink"><defs><clipPath id="i0"><path d="M1920,0 L1920,1728 L0,1728 L0,0 L1920,0 Z"></path></clipPath><clipPath id="i1"><path d="M131,0 L131,140 L0,140 L0,0 L131,0 Z"></path></clipPath><clipPath id="i2"><path d="M65.4993963,0 C101.61668,0 131.000302,29.3057562 131.000302,65.3274461 C131.000302,82.6363418 124.352665,98.8122843 112.235091,111.09715 L117.267353,135.787802 C117.537504,137.112926 117.020846,138.474678 115.939737,139.289521 C115.316427,139.759661 114.568354,140 113.815753,140 C113.264383,140 112.709491,139.870548 112.199875,139.608133 L87.4918356,126.876709 C80.4422416,129.384459 73.0510595,130.654892 65.4993963,130.654892 C29.3831183,130.654892 0,101.349136 0,65.3274461 C0,29.3057562 29.3831183,0 65.4993963,0 Z M65.4993963,7.02451052 C33.2668596,7.02451052 7.04305403,33.1787702 7.04305403,65.3274461 C7.04305403,97.4756203 33.2668596,123.630382 65.4993963,123.630382 C72.7210421,123.630382 79.7741576,122.329844 86.4635497,119.765897 C86.8715438,119.609351 87.2996608,119.532082 87.7272748,119.532082 C88.2836761,119.532082 88.8385681,119.66354 89.3436557,119.923949 L108.901211,130.001613 L104.992819,110.826706 C104.6789,109.62702 105.017469,108.308419 105.962748,107.403762 C117.566179,96.3010218 123.957248,81.3578809 123.957248,65.3274461 C123.957248,33.1787702 97.7334423,7.02451052 65.4993963,7.02451052 Z"></path></clipPath><clipPath id="i3"><path d="M76.2726815,0.216829078 C78.0978386,0.886164581 79.0335587,2.90470786 78.3624562,4.72556133 C72.3678111,20.9847944 56.6658252,31.9089118 39.2896048,31.9089118 C21.9153967,31.9089118 6.21341078,20.9847944 0.217256421,4.72556133 C-0.453846012,2.90520961 0.481874023,0.886164581 2.30703117,0.216829078 C4.13218831,-0.452506425 6.15656327,0.480248223 6.8276657,2.30059995 C11.8091172,15.8087337 24.8543625,24.8844013 39.2896048,24.8844013 C53.7258532,24.8844013 66.7721047,15.8087337 71.7515439,2.3011017 C72.4231494,0.481251724 74.4465182,-0.453008175 76.2726815,0.216829078 Z"></path></clipPath><clipPath id="i4"><path d="M4.74349689,0 C7.36401606,0 9.48799993,2.11889342 9.48799993,4.73201134 C9.48799993,7.34512925 7.36401606,9.46352093 4.74349689,9.46352093 C2.12348079,9.46352093 0,7.34512925 0,4.73201134 C0,2.11889342 2.12348079,0 4.74349689,0 Z"></path></clipPath><clipPath id="i5"><path d="M4.74349689,0 C7.36351299,0 9.48799993,2.11889342 9.48799993,4.73201134 C9.48799993,7.34512925 7.36351299,9.46352093 4.74349689,9.46352093 C2.12348079,9.46352093 0,7.34512925 0,4.73201134 C0,2.11889342 2.12348079,0 4.74349689,0 Z"></path></clipPath><clipPath id="i6"><path d="M109,0 L109,117 L0,117 L0,0 L109,0 Z"></path></clipPath><clipPath id="i7"><path d="M54.5008563,0 C84.5521089,0 109.000201,24.5102267 109.000201,54.6377381 C109.000201,84.7652494 84.5521089,109.274971 54.5008563,109.274971 C48.3098782,109.274971 42.248351,108.243318 36.4598292,106.206269 L16.3808315,116.605619 C15.871087,116.870223 15.3160094,117 14.7634504,117 C14.009915,117 13.2614167,116.758624 12.6368285,116.284963 C11.5538733,115.464892 11.0370769,114.094908 11.3075639,112.761283 L15.3799794,92.6771171 C5.44650936,82.4322887 0,69.0011006 0,54.6377381 C0,24.5102267 24.4490999,0 54.5008563,0 Z M54.5008563,7.06957794 C28.3371611,7.06957794 7.05180163,28.408594 7.05180163,54.6377381 C7.05180163,67.7164573 12.2394091,79.9074395 21.6580976,88.9660936 C22.5959872,89.8679698 22.9415255,91.1849312 22.6337647,92.3923141 L19.6846005,106.937971 L34.6011758,99.211932 C35.4957472,98.7483696 36.5449545,98.691308 37.4843553,99.0523615 C42.9137388,101.144452 48.6387943,102.205393 54.5008563,102.205393 C80.663544,102.205393 101.9484,80.8668822 101.9484,54.6377381 C101.9484,28.408594 80.663544,7.06957794 54.5008563,7.06957794 Z"></path></clipPath><clipPath id="i8"><path d="M63.5779639,0.219202125 C65.4053879,0.892831908 66.3422701,2.9248306 65.6698305,4.75686122 C60.6479403,18.445584 47.4963303,27.6425999 32.9439302,27.6425999 C18.3910265,27.6425999 5.23941642,18.445584 0.217526258,4.75686122 C-0.454409697,2.9248306 0.482472519,0.892831908 2.30989654,0.219202125 C4.13732056,-0.456952508 6.16370613,0.483806328 6.83614579,2.31684689 C10.8420728,13.236315 21.3336425,20.573022 32.9439302,20.573022 C44.5537142,20.573022 55.0452839,13.236315 59.0517146,2.31684689 C59.7241543,0.483806328 61.7495325,-0.456447538 63.5779639,0.219202125 Z"></path></clipPath><clipPath id="i9"><path d="M3.9021648,0 C6.0569939,0 7.8038259,1.75123545 7.8038259,3.91200145 C7.8038259,6.07175751 6.0569939,7.82349793 3.9021648,7.82349793 C1.7473357,7.82349793 0,6.07175751 0,3.91200145 C0,1.75123545 1.7473357,0 3.9021648,0 Z"></path></clipPath><clipPath id="i10"><path d="M3.9021648,0 C6.0569939,0 7.8038259,1.75123545 7.8038259,3.91200145 C7.8038259,6.07175751 6.0569939,7.82349793 3.9021648,7.82349793 C1.7473357,7.82349793 0,6.07175751 0,3.91200145 C0,1.75123545 1.7473357,0 3.9021648,0 Z"></path></clipPath><clipPath id="i11"><path d="M35.9997476,0 C55.8502078,0 72,16.0825989 72,35.8510865 C72,42.9298226 69.9447463,49.7265754 66.0421869,55.5954473 L70.3995065,69.4071004 C70.7159711,70.4103779 70.433828,71.5061419 69.6701741,72.2334678 C69.1447519,72.7341013 68.4542835,73 67.7506922,73 C67.4322087,73 67.1122109,72.9457144 66.8023077,72.8336248 L66.7324249,72.8082757 C65.8150345,72.4754709 57.6005012,69.4929138 52.7642989,67.5749628 C47.6115274,70.2791878 41.8450063,71.7026757 35.9997476,71.7026757 C16.1492874,71.7026757 0,55.6195742 0,35.8510865 C0,16.0825989 16.1492874,0 35.9997476,0 Z M35.9997476,5.5290845 C19.2104647,5.5290845 5.55201155,19.1316377 5.55201155,35.8510865 C5.55201155,52.5710381 19.2104647,66.1735912 35.9997476,66.1735912 C41.3311929,66.1735912 46.58491,64.7737276 51.1925749,62.1247934 C51.9385633,61.6960381 52.8410176,61.6357208 53.6369742,61.9624394 C56.0475566,62.9506376 60.1111244,64.4771676 63.4100287,65.69809 L60.3397663,55.9658959 C60.0773076,55.1350253 60.2236788,54.2307687 60.7339591,53.5235485 C64.4719771,48.3453096 66.4479884,42.2336606 66.4479884,35.8510865 C66.4479884,19.1316377 52.7890306,5.5290845 35.9997476,5.5290845 Z"></path></clipPath><clipPath id="i12"><path d="M41.015379,0.171348675 C42.4543595,0.698622279 43.1917676,2.28748011 42.6628123,3.72051828 C39.4027721,12.5474504 30.8647877,18.4786501 21.4167783,18.4786501 C11.9697782,18.4786501 3.43179393,12.547953 0.171248963,3.72051828 C-0.35770632,2.28748011 0.37970176,0.698622279 1.81868221,0.171348675 C3.25715793,-0.356930216 4.85310889,0.378438022 5.38206417,1.81197884 C7.84261474,8.47352037 14.2864812,12.9495656 21.4167783,12.9495656 C28.54758,12.9495656 34.9919512,8.47402302 37.4519971,1.81197884 C37.9809524,0.378940666 39.5753891,-0.35743286 41.015379,0.171348675 Z"></path></clipPath><clipPath id="i13"><path d="M2.47266405,0 C3.83744944,0 4.94431865,1.10229839 4.94431865,2.46195053 C4.94431865,3.82210532 3.83744944,4.92390107 2.47266405,4.92390107 C1.10686921,4.92390107 0,3.82210532 0,2.46195053 C0,1.10229839 1.10686921,0 2.47266405,0 Z"></path></clipPath><clipPath id="i14"><path d="M2.47215933,0 C3.83795417,0 4.94482338,1.10229839 4.94482338,2.46195053 C4.94482338,3.82210532 3.83795417,4.92390107 2.47215933,4.92390107 C1.10737394,4.92390107 0,3.82210532 0,2.46195053 C0,1.10229839 1.10737394,0 2.47215933,0 Z"></path></clipPath></defs><g transform="translate(-830.0 -354.0)"><g clip-path="url(#i0)"><g transform="translate(830.0 354.0)"><g transform="translate(15.0 25.0)"><g transform="translate(98.0 0.0)"><g clip-path="url(#i1)"><g clip-path="url(#i2)"><polygon points="0,0 131,0 131,140 0,140 0,0" stroke="none" fill="#10B6E1"></polygon></g></g><g transform="translate(26.209992747608332 70.32842346374002)"><g clip-path="url(#i3)"><polygon points="-3.27515792e-15,-9.76996262e-15 78.5797127,-9.76996262e-15 78.5797127,31.9089118 -3.27515792e-15,31.9089118 -3.27515792e-15,-9.76996262e-15" stroke="none" fill="#10B6E1"></polygon></g></g><g transform="translate(46.62260290385166 45.33107306566126)"><g clip-path="url(#i4)"><polygon points="0,0 9.48799993,0 9.48799993,9.46352093 0,9.46352093 0,0" stroke="none" fill="#10B6E1"></polygon></g></g><g transform="translate(74.88964870752534 45.33107306566126)"><g clip-path="url(#i5)"><polygon points="0,0 9.48799993,0 9.48799993,9.46352093 0,9.46352093 0,0" stroke="none" fill="#10B6E1"></polygon></g></g></g><g transform="translate(0.0 74.0)"><g clip-path="url(#i6)"><g transform="translate(-0.00020148004114162177 0.0)"><g clip-path="url(#i7)"><polygon points="0.000201480041,0 109.000201,0 109.000201,117 0.000201480041,117 0.000201480041,0" stroke="none" fill="#10B6E1"></polygon></g></g></g><g transform="translate(21.556523112230927 58.13925482558165)"><g clip-path="url(#i8)"><polygon points="1.30451205e-15,-4.3298698e-15 65.8876211,-4.3298698e-15 65.8876211,27.6425999 1.30451205e-15,27.6425999 1.30451205e-15,-4.3298698e-15" stroke="none" fill="#10B6E1"></polygon></g></g><g transform="translate(62.222427963948576 38.10664100096244)"><g clip-path="url(#i9)"><polygon points="0,0 7.8038259,0 7.8038259,7.82349793 0,7.82349793 0,0" stroke="none" fill="#10B6E1"></polygon></g></g><g transform="translate(38.974249833408976 38.10664100096244)"><g clip-path="url(#i10)"><polygon points="0,0 7.8038259,0 7.8038259,7.82349793 0,7.82349793 0,0" stroke="none" fill="#10B6E1"></polygon></g></g></g><g transform="translate(102.0 138.0)"><g clip-path="url(#i11)"><polygon points="0,0 72,0 72,73 0,73 0,0" stroke="none" fill="#10B6E1"></polygon></g><g transform="translate(14.58296937411069 37.14202991883684)"><g clip-path="url(#i12)"><polygon points="-6.66133815e-15,3.33066907e-15 42.8340613,3.33066907e-15 42.8340613,18.4786501 -6.66133815e-15,18.4786501 -6.66133815e-15,3.33066907e-15" stroke="none" fill="#10B6E1"></polygon></g></g><g transform="translate(26.16193647433829 25.07253842128455)"><g clip-path="url(#i13)"><polygon points="0,0 4.94431865,0 4.94431865,4.92390107 0,4.92390107 0,0" stroke="none" fill="#10B6E1"></polygon></g></g><g transform="translate(40.89318967270083 25.07253842128455)"><g clip-path="url(#i14)"><polygon points="0,0 4.94482338,0 4.94482338,4.92390107 0,4.92390107 0,0" stroke="none" fill="#10B6E1"></polygon></g></g></g></g></g></g></g></svg>