<?xml version="1.0" encoding="UTF-8"?><svg version="1.1" width="42px" height="42px" viewBox="0 0 42.0 42.0" xmlns="http://www.w3.org/2000/svg" xmlns:xlink="http://www.w3.org/1999/xlink"><defs><clipPath id="i0"><path d="M1920,0 L1920,3029 L0,3029 L0,0 L1920,0 Z"></path></clipPath><clipPath id="i1"><path d="M2.5,0 C3.87542857,0 5,1.12477922 5,2.5 C5,3.87542857 3.87542857,5 2.5,5 C1.12457143,5 0,3.87542857 0,2.5 C0,1.12477922 1.12457143,0 2.5,0 Z M2.5,0.909090909 C1.61605195,0.909090909 0.909090909,1.61605195 0.909090909,2.5 C0.909090909,3.38394805 1.61605195,4.09090909 2.5,4.09090909 C3.38394805,4.09090909 4.09090909,3.38394805 4.09090909,2.5 C4.09090909,1.61605195 3.38394805,0.909090909 2.5,0.909090909 Z"></path></clipPath><clipPath id="i2"><path d="M5.52907203,0 C6.82055988,0.00731814979 8.10992967,0.491919059 9.13977076,1.44836639 C11.1991882,3.36140044 11.6017522,6.59246811 10.080918,9 L9.11706779,8.32590083 C10.3221785,6.41823342 10.0046678,3.87890514 8.3729664,2.36328147 C6.74119877,0.84843562 4.30774496,0.83379932 2.66048901,2.33088368 C1.01323306,3.82796803 0.671960445,6.36513571 1.85741285,8.28639397 L0.886811283,8.95096561 C-0.609400423,6.52573077 -0.174271215,3.29570854 1.90473828,1.40630166 C2.94411065,0.461584283 4.23738561,-0.0132256391 5.52887346,0.000659330447 Z"></path></clipPath><clipPath id="i3"><path d="M8.5,0 C13.187661,0 17,3.81233905 17,8.5 C17,13.187661 13.187661,17 8.5,17 C3.81233905,17 0,13.187661 0,8.5 C0,3.81233905 3.81233905,0 8.5,0 Z M8.5,1 C4.35103297,1 1,4.35103297 1,8.5 C1,12.648967 4.35103297,16 8.5,16 C12.648967,16 16,12.648967 16,8.5 C16,4.35103297 12.648967,1 8.5,1 Z"></path></clipPath><clipPath id="i4"><path d="M25.7905628,0 C26.5961696,0 27.2923356,0.591045966 27.4297392,1.39112038 L30.9760162,22.0445602 C31.1494867,23.0556405 30.3591899,24 29.3412682,24 L1.65873469,24 C0.640813062,24 -0.149496478,23.0557042 0.0239867211,22.0445602 L3.5702637,1.39112038 C3.70767363,0.590771684 4.40408638,0 5.20944016,0 Z M25.8160118,1.6 L5.18188361,1.6 C4.90662168,1.6 4.67768581,1.79023372 4.63110605,2.05738613 L1.07790703,22.2966786 C1.01770181,22.6402934 1.26843639,22.9333333 1.62199301,22.9333333 L29.3758897,22.9333333 C29.7296937,22.9333333 29.9821668,22.6402684 29.9222083,22.2966786 L26.3667894,2.05738613 C26.3197136,1.79023372 26.0910264,1.6 25.8160118,1.6 Z"></path></clipPath></defs><g transform="translate(-376.0 -1175.0)"><g clip-path="url(#i0)"><g transform="translate(376.0 1175.0)"><g transform="translate(6.0 5.0)"><g transform="translate(14.0 3.0)"><g clip-path="url(#i1)"><polygon points="0,0 5,0 5,5 0,5 0,0" stroke="none" fill="#0A0A5E"></polygon></g><path d="M2.5,0 C1.12457143,0 0,1.12477922 0,2.5 C0,3.87542857 1.12457143,5 2.5,5 C3.87542857,5 5,3.87542857 5,2.5 C5,1.12477922 3.87542857,0 2.5,0 L2.5,0 Z M2.5,0.909090909 C3.38394805,0.909090909 4.09090909,1.61605195 4.09090909,2.5 C4.09090909,3.38394805 3.38394805,4.09090909 2.5,4.09090909 C1.61605195,4.09090909 0.909090909,3.38394805 0.909090909,2.5 C0.909090909,1.61605195 1.61605195,0.909090909 2.5,0.909090909 L2.5,0.909090909 Z" stroke="#FFFFFF" stroke-width="0.1" fill="none" stroke-miterlimit="10"></path></g><g transform="translate(11.0 0.0)"><g clip-path="url(#i2)"><polygon points="-2.22044605e-16,0 11,0 11,9 -2.22044605e-16,9 -2.22044605e-16,0" stroke="none" fill="#0A0A5E"></polygon></g><path d="M5.52887346,0.000659330447 C4.23738561,-0.0132256391 2.94411065,0.461584283 1.90473828,1.40630166 C-0.174271215,3.29570854 -0.609400423,6.52573077 0.886811283,8.95096561 L1.85741285,8.28639397 C0.671960445,6.36513571 1.01323306,3.82796803 2.66048901,2.33088368 C4.30774496,0.83379932 6.74119877,0.84843562 8.3729664,2.36328147 C10.0046678,3.87890514 10.3221785,6.41823342 9.11706779,8.32590083 L10.080918,9 C11.6017522,6.59246811 11.1991882,3.36140044 9.13977076,1.44836639 C8.10992967,0.491919059 6.82055988,0.00731814979 5.52907203,0 L5.52887346,0.000659330447 Z" stroke="#FFFFFF" stroke-width="0.1" fill="none" stroke-miterlimit="10"></path></g><g transform="translate(7.0 12.0)"><g clip-path="url(#i3)"><polygon points="0,0 17,0 17,17 0,17 0,0" stroke="none" fill="#0A0A5E"></polygon></g><path d="M8.5,0 C3.81233905,0 0,3.81233905 0,8.5 C0,13.187661 3.81233905,17 8.5,17 C13.187661,17 17,13.187661 17,8.5 C17,3.81233905 13.187661,0 8.5,0 Z M8.5,1 C12.648967,1 16,4.35103297 16,8.5 C16,12.648967 12.648967,16 8.5,16 C4.35103297,16 1,12.648967 1,8.5 C1,4.35103297 4.35103297,1 8.5,1 Z" stroke="#FFFFFF" stroke-width="0.1" fill="none" stroke-miterlimit="10"></path></g><g transform="translate(0.0 8.0)"><g clip-path="url(#i4)"><polygon points="-6.9388939e-18,0 31,0 31,24 -6.9388939e-18,24 -6.9388939e-18,0" stroke="none" fill="#0A0A5E"></polygon></g><path d="M5.20944016,0 C4.40408638,0 3.70767363,0.590771684 3.5702637,1.39112038 L0.0239867211,22.0445602 C-0.149496478,23.0557042 0.640813062,24 1.65873469,24 L29.3412682,24 C30.3591899,24 31.1494867,23.0556405 30.9760162,22.0445602 L27.4297392,1.39112038 C27.2923356,0.591045966 26.5961696,0 25.7905628,0 L5.20944016,0 Z M5.18183287,1.6 L25.8160118,1.6 C26.0910264,1.6 26.3197136,1.79023372 26.3667894,2.05738613 L29.9222083,22.2966786 C29.9821668,22.6402684 29.7296937,22.9333333 29.3758897,22.9333333 L1.62199301,22.9333333 C1.26843639,22.9333333 1.01770181,22.6402934 1.07790703,22.2966786 L4.63110605,2.05738613 C4.67768581,1.79023372 4.90662168,1.6 5.18188361,1.6 L5.18183287,1.6 Z" stroke="#FFFFFF" stroke-width="0.1" fill="none" stroke-miterlimit="10"></path></g></g></g></g></g></svg>