<?xml version="1.0" encoding="UTF-8"?><svg version="1.1" width="30px" height="30px" viewBox="0 0 30.0 30.0" xmlns="http://www.w3.org/2000/svg" xmlns:xlink="http://www.w3.org/1999/xlink"><defs><clipPath id="i0"><path d="M1920,0 L1920,1476 L0,1476 L0,0 L1920,0 Z"></path></clipPath><clipPath id="i1"><path d="M0.5,0 C0.774554286,0.00373134328 0.996428571,0.235540299 1,0.52238806 L1,6.47761194 C1,6.76608955 0.776114286,7 0.5,7 C0.223885714,7 0,6.76608955 0,6.47761194 L0,0.52238806 C0.00357142857,0.235540299 0.225445714,0.00373134328 0.5,0 Z"></path></clipPath><clipPath id="i2"><path d="M0.5,0 C0.774777143,0.00401791454 0.996428571,0.253630052 1,0.562508036 L1,5.43749196 C1,5.74812497 0.776114286,6 0.5,6 C0.223885714,6 0,5.74812497 0,5.43749196 L0,0.562508036 C0.00357142857,0.253630052 0.225445714,0.00401791454 0.5,0 Z"></path></clipPath><clipPath id="i3"><path d="M0.5,0 C0.774554286,0.00401791454 0.996428571,0.253630052 1,0.562508036 L1,5.43749196 C1,5.74812497 0.776114286,6 0.5,6 C0.223885714,6 0,5.74812497 0,5.43749196 L0,0.562508036 C0.00357142857,0.253630052 0.225222857,0.00401791454 0.5,0 Z"></path></clipPath><clipPath id="i4"><path d="M11.4229761,0 C11.7903509,0 12.1424753,0.146031156 12.4020884,0.405646055 C12.6617015,0.665260955 12.8077316,1.01736403 12.8077316,1.38476511 L12.8077316,2.4232247 L17.4807738,2.4232247 C17.7675053,2.4232247 18,2.65572097 18,2.9424545 C18,3.22918803 17.7675053,3.4616843 17.4807738,3.4616843 L15.9230952,3.4616843 L15.9230952,15.2306953 C15.9230952,15.9650346 15.6312604,16.6694722 15.1120342,17.1889334 C14.5925706,17.7081632 13.8881438,18 13.1538096,18 L4.84619036,18 C4.11185616,18 3.40742345,17.7081632 2.88796582,17.1889334 C2.36873962,16.6694662 2.07690482,15.9650346 2.07690482,15.2306953 L2.07690482,3.4616843 L0.519226205,3.4616843 C0.232494659,3.4616843 0,3.22918803 0,2.9424545 C0,2.65572097 0.232494659,2.4232247 0.519226205,2.4232247 L5.19226205,2.4232247 L5.19226205,1.38476511 C5.19226205,1.01738777 5.33829219,0.665260955 5.59790529,0.405646055 C5.8575184,0.146031156 6.20961904,0 6.57701756,0 Z M14.8842804,3.4616843 L3.11535088,3.4616843 L3.11535088,15.2306953 C3.11535088,15.6896351 3.29777433,16.1298411 3.62229367,16.4545941 C3.94706225,16.7791157 4.38722365,16.9615404 4.84618401,16.9615404 L13.1538033,16.9615404 C13.6127399,16.9615404 14.0529429,16.7791157 14.3776936,16.4545941 C14.702213,16.1298233 14.8846364,15.6896588 14.8846364,15.2306953 L14.8842804,3.4616843 Z M11.4227324,1.0384596 L6.57677385,1.0384596 C6.38554433,1.0384596 6.2304644,1.19352832 6.2304644,1.38476511 L6.2304644,2.4232247 L11.7690355,2.4232247 L11.7690355,1.38476511 C11.7690355,1.29297121 11.7324167,1.20488669 11.6675104,1.13998534 C11.6026042,1.07508399 11.5145256,1.0384596 11.4227324,1.0384596 Z"></path></clipPath></defs><g transform="translate(-647.0 -409.0)"><g clip-path="url(#i0)"><g transform="translate(647.0 409.0)"><g transform="translate(6.0 6.0)"><g transform="translate(9.0 6.0)"><g clip-path="url(#i1)"><polygon points="0,0 1,0 1,7 0,7 0,0" stroke="none" fill="#0A0A5E"></polygon></g></g><g transform="translate(5.0 7.0)"><g clip-path="url(#i2)"><polygon points="0,0 1,0 1,6 0,6 0,0" stroke="none" fill="#0A0A5E"></polygon></g></g><g transform="translate(12.0 7.0)"><g clip-path="url(#i3)"><polygon points="0,0 1,0 1,6 0,6 0,0" stroke="none" fill="#0A0A5E"></polygon></g></g><g clip-path="url(#i4)"><polygon points="0,0 18,0 18,18 0,18 0,0" stroke="none" fill="#0A0A5E"></polygon></g></g></g></g></g></svg>