<?xml version="1.0" encoding="UTF-8"?><svg version="1.1" width="60px" height="60px" viewBox="0 0 60.0 60.0" xmlns="http://www.w3.org/2000/svg" xmlns:xlink="http://www.w3.org/1999/xlink"><defs><clipPath id="i0"><path d="M1920,0 L1920,1476 L0,1476 L0,0 L1920,0 Z"></path></clipPath><clipPath id="i1"><path d="M42.2042289,0 C43.1960801,0 44,0.8219202 44,1.83557535 L44,16.5762237 C44,20.118404 41.1803876,23 37.7144003,23 L6.28559975,23 C2.81961239,23 0,20.118404 0,16.5762237 L0,1.83557535 C0,0.822247952 0.803919854,0.000327752048 1.79577111,0.000327752048 C2.78730166,0.000327752048 3.59154221,0.8219202 3.59154221,1.83557535 L3.59154221,16.5762237 C3.59154221,18.094699 4.79986735,19.3295048 6.28559975,19.3295048 L37.7144003,19.3295048 C39.2002128,19.3295048 40.4084578,18.094617 40.4084578,16.5762237 L40.4084578,1.83557535 C40.4084578,0.822247952 41.2123776,0.000327752048 42.2042289,0.000327752048 Z"></path></clipPath><clipPath id="i2"><path d="M12.7210304,0.524400147 C13.4272089,-0.174800049 14.5721532,-0.174800049 15.2789696,0.524400147 L27.47036,12.5844234 C28.1765467,13.2823536 28.1765467,14.4155837 27.47036,15.1141609 C27.1167863,15.4632937 26.6541287,15.6383274 26.1910674,15.6383274 C25.7280061,15.6383274 25.2650256,15.4636052 24.9117748,15.1141609 L15.807998,6.10927958 L15.807998,35.2110047 C15.807998,36.198794 14.9983876,37 13.9995155,37 C13.0009665,37 12.1913561,36.198794 12.1913561,35.2110047 L12.1913561,6.10927958 L3.08757923,15.1133621 C2.38140067,15.8125623 1.2364564,15.8125623 0.529639974,15.1133621 C-0.176546658,14.4154319 -0.176546658,13.2822019 0.529639974,12.5836247 Z"></path></clipPath></defs><g transform="translate(-930.0 -422.0)"><g clip-path="url(#i0)"><g transform="translate(930.0 422.0)"><g transform="translate(8.0 8.0)"><g transform="translate(0.0 21.0)"><g clip-path="url(#i1)"><polygon points="0,0 44,0 44,23 0,23 0,0" stroke="none" fill="#212121"></polygon></g></g><g transform="translate(8.0 0.0)"><g clip-path="url(#i2)"><polygon points="-1.11022302e-15,0 28,0 28,37 -1.11022302e-15,37 -1.11022302e-15,0" stroke="none" fill="#212121"></polygon></g></g></g></g></g></g></svg>