<?xml version="1.0" encoding="UTF-8"?><svg version="1.1" width="44px" height="44px" viewBox="0 0 44.0 44.0" xmlns="http://www.w3.org/2000/svg" xmlns:xlink="http://www.w3.org/1999/xlink"><defs><clipPath id="i0"><path d="M1920,0 L1920,1080 L0,1080 L0,0 L1920,0 Z"></path></clipPath><clipPath id="i1"><path d="M26.1801352,0 L26.2481538,0.0680185683 C26.3161737,0.0680185683 26.3161737,0.0680185683 26.3841922,0.136037137 L26.4522108,0.204055705 C26.4522108,0.27207573 26.5202293,0.27207573 26.5202293,0.340094299 L26.5202293,0.612171486 L27.675959,12.8521478 L33.7959423,18.563991 C33.9319815,18.7000296 34,18.8360682 34,19.0401261 L34,33.3200985 C34,33.7279228 33.7282145,34 33.320099,34 L0.679901002,34 C0.27179283,34 0,33.728214 0,33.3200982 L0,19.0401259 C0,18.6323015 0.271785544,18.3602243 0.679901002,18.3602243 L4.07998887,18.3602243 L4.07998887,10.2002401 C4.07998887,9.92817023 4.21602735,9.65609232 4.48810433,9.58807375 C4.75991901,9.52005445 5.03199598,9.52005445 5.23605371,9.72411234 L13.6000309,17.4760973 L13.6000309,10.2000871 C13.6000309,9.92801724 13.7360621,9.65593961 14.0758742,9.65622419 C14.3476889,9.58820489 14.6197658,9.58820489 14.8238236,9.79226278 L20.2639059,14.8242045 L21.1478792,0.680474707 L21.1478792,0.408397519 C21.1478792,0.340377494 21.2158977,0.340377494 21.2158977,0.272358926 L21.2839162,0.204340357 C21.3519362,0.204340357 21.3519362,0.136321789 21.4199547,0.136321789 C21.4199547,0.0683032206 21.4879732,0.0683032206 21.4879732,0.0683032206 C21.5559924,0 21.6920316,0 21.7600502,0 L26.1801352,0 Z M24.4800891,11.7643782 L24.4800891,19.0403884 C24.4800891,19.3121741 24.3440506,19.516232 24.0719737,19.6522706 C23.800159,19.7202899 23.528082,19.7202899 23.3240243,19.516232 L14.9600471,11.7641159 L14.9600471,19.0402572 C14.9600471,19.312043 14.8240086,19.5161009 14.5519316,19.6521395 C14.2801169,19.7201588 14.00804,19.7201588 13.8039822,19.5161009 L5.44000507,11.7641159 L5.44000507,19.0401261 C5.44000507,19.4479505 5.16821953,19.7200276 4.76010407,19.7200276 L1.3600162,19.7200276 L1.35966649,32.6401678 L32.6400669,32.6401678 L32.6400669,19.3801934 L26.5881319,13.7363258 L24.4800891,11.7643782 Z M25.4322419,3.40005923 L22.3042019,3.40005923 L21.4883061,15.9803579 L23.120156,17.4764764 L23.120156,10.2004662 C23.120156,9.92839631 23.2561945,9.65631839 23.5282714,9.58829983 C23.8000861,9.52028053 24.0721631,9.52028053 24.2762208,9.72433842 L26.1801913,11.4922864 L25.4322419,3.40005923 Z M25.1601213,1.36006318 L22.4402258,1.36006318 L22.4402258,2.03996472 L25.1601213,2.03996472 L25.1601213,1.36006318 Z"></path></clipPath><clipPath id="i2"><path d="M4.16672506,0 C4.66689458,0 5.0003475,0.333095221 5,0.833273805 L5,4.16672619 C5,4.66654761 4.66690351,5 4.16672506,5 L0.833273578,5 C0.333452299,5 0,4.66690478 0,4.16672619 L0,0.833273805 C0,0.333452389 0.33309513,0 0.833273578,0 Z M3.33345148,1.66654761 L1.66654716,1.66654761 L1.66654716,3.33345239 L3.33345148,3.33345239 L3.33345148,1.66654761 Z"></path></clipPath><clipPath id="i3"><path d="M4.16672619,0 C4.66689585,0 5,0.333095221 5,0.833273805 L5,4.16672619 C5,4.66654761 4.66690478,5 4.16672619,5 L0.833273805,5 C0.333452389,5 0,4.66690478 0,4.16672619 L0,0.833273805 C0,0.333452389 0.333095221,0 0.833273805,0 Z M3.33345239,1.66654761 L1.66654761,1.66654761 L1.66654761,3.33345239 L3.33345239,3.33345239 L3.33345239,1.66654761 Z"></path></clipPath><clipPath id="i4"><path d="M4.16672619,0 C4.66654761,0 5,0.333095221 5,0.833273805 L5,4.16672619 C5,4.66654761 4.66690478,5 4.16672619,5 L0.833273805,5 C0.333452389,5 0,4.66690478 0,4.16672619 L0,0.833273805 C0,0.333452389 0.333095221,0 0.833273805,0 Z M3.33310415,1.66654761 L1.66619937,1.66654761 L1.66619937,3.33345239 L3.33310415,3.33345239 L3.33310415,1.66654761 Z"></path></clipPath><clipPath id="i5"><path d="M4.16672619,0 C4.66689585,0 5,0.333095221 5,0.833273805 L5,4.16672619 C5,4.66654761 4.66690478,5 4.16672619,5 L0.833273805,5 C0.333452389,5 0,4.66690478 0,4.16672619 L0,0.833273805 C0,0.333452389 0.333095221,0 0.833273805,0 Z M3.33345239,1.66654761 L1.66654761,1.66654761 L1.66654761,3.33345239 L3.33345239,3.33345239 L3.33345239,1.66654761 Z"></path></clipPath></defs><g transform="translate(-684.0 -144.0)"><g clip-path="url(#i0)"><g transform="translate(684.0 144.0)"><g transform="translate(5.0 5.0)"><g clip-path="url(#i1)"><polygon points="0,0 34,0 34,34 0,34 0,0" stroke="none" fill="#0A0A5E"></polygon></g><path d="M0.680188058,34 L33.320099,34 C33.7282145,34 34,33.7279228 34,33.3200985 L34,19.0401261 C34,18.8360682 33.9319815,18.7000296 33.7959423,18.563991 L27.675959,12.8521478 L26.5202293,0.612171486 L26.5202293,0.476132893 L26.5202293,0.340094299 C26.5202293,0.27207573 26.4522108,0.27207573 26.4522108,0.204055705 L26.3841922,0.136037137 C26.3161737,0.0680185683 26.3161737,0.0680185683 26.2481538,0.0680185683 L26.1801352,0 C26.0440968,0 25.9080583,0 25.840039,0 L21.7600502,0 C21.6920316,0 21.5559924,0 21.4879732,0.0683032206 C21.4879732,0.0683032206 21.4199547,0.0683032206 21.4199547,0.136321789 C21.3519362,0.136321789 21.3519362,0.204340357 21.2839162,0.204340357 L21.2158977,0.272358926 C21.2158977,0.340377494 21.1478792,0.340377494 21.1478792,0.408397519 L21.1478792,0.544436113 L21.1478792,0.680474707 L20.2639059,14.8242045 L14.8238236,9.79226278 C14.6197658,9.58820489 14.3476889,9.58820489 14.0758742,9.65622419 C13.7360621,9.65593961 13.6000309,9.92801724 13.6000309,10.2000871 L13.6000309,17.4760973 L5.23605371,9.72411234 C5.03199598,9.52005445 4.75991901,9.52005445 4.48810433,9.58807375 C4.21602735,9.65609232 4.07998887,9.92817023 4.07998887,10.2002401 L4.07998887,18.3602243 L0.679901002,18.3602243 C0.271785544,18.3602243 0,18.6323015 0,19.0401259 L0,33.3200982 C0,33.728214 0.27179283,34 0.679901002,34 L0.680188058,34 Z M25.1601213,1.36006318 L25.1601213,2.03996472 L22.4402258,2.03996472 L22.4402258,1.36006318 L25.1601213,1.36006318 Z M22.3042019,3.40005923 L25.4322419,3.40005923 L26.1801913,11.4922864 L24.2762208,9.72433842 C24.0721631,9.52028053 23.8000861,9.52028053 23.5282714,9.58829983 C23.2561945,9.65631839 23.120156,9.92839631 23.120156,10.2004662 L23.120156,17.4764764 L21.4883061,15.9803579 L22.3042019,3.40005923 Z M1.3600162,19.7200276 L4.76010407,19.7200276 C5.16821953,19.7200276 5.44000507,19.4479505 5.44000507,19.0401261 L5.44000507,11.7641159 L13.8039822,19.5161009 C14.00804,19.7201588 14.2801169,19.7201588 14.5519316,19.6521395 C14.8240086,19.5161009 14.9600471,19.312043 14.9600471,19.0402572 L14.9600471,11.7641159 L23.3240243,19.516232 C23.528082,19.7202899 23.800159,19.7202899 24.0719737,19.6522706 C24.3440506,19.516232 24.4800891,19.3121741 24.4800891,19.0403884 L24.4800891,11.7643782 L26.5881319,13.7363258 L32.6400669,19.3801934 L32.6400669,32.6401678 L1.35966649,32.6401678 L1.3600162,19.7200276 Z" stroke="#FFFFFF" stroke-width="0.3" fill="none" stroke-miterlimit="10"></path><g transform="translate(2.9999999999999996 23.0)"><g clip-path="url(#i2)"><polygon points="0,0 5.00000027,0 5.00000027,5 0,5 0,0" stroke="none" fill="#0A0A5E"></polygon></g><path d="M4.16672506,0 L0.833273578,0 C0.33309513,0 0,0.333452389 0,0.833273805 L0,4.16672619 C0,4.66690478 0.333452299,5 0.833273578,5 L4.16672506,5 C4.66690351,5 5,4.66654761 5,4.16672619 L5,0.833273805 C5.0003475,0.333095221 4.66689458,0 4.16672506,0 Z M3.33345148,3.33345239 L1.66654716,3.33345239 L1.66654716,1.66654761 L3.33345148,1.66654761 L3.33345148,3.33345239 Z" stroke="#FFFFFF" stroke-width="0.3" fill="none" stroke-miterlimit="10"></path></g><g transform="translate(10.0 23.0)"><g clip-path="url(#i3)"><polygon points="0,0 5,0 5,5 0,5 0,0" stroke="none" fill="#0A0A5E"></polygon></g><path d="M4.16672619,0 L0.833273805,0 C0.333095221,0 0,0.333452389 0,0.833273805 L0,4.16672619 C0,4.66690478 0.333452389,5 0.833273805,5 L4.16672619,5 C4.66690478,5 5,4.66654761 5,4.16672619 L5,0.833273805 C5,0.333095221 4.66689585,0 4.16672619,0 Z M3.33345239,3.33345239 L1.66654761,3.33345239 L1.66654761,1.66654761 L3.33345239,1.66654761 L3.33345239,3.33345239 Z" stroke="#FFFFFF" stroke-width="0.3" fill="none" stroke-miterlimit="10"></path></g><g transform="translate(19.0 23.0)"><g clip-path="url(#i4)"><polygon points="0,0 5,0 5,5 0,5 0,0" stroke="none" fill="#0A0A5E"></polygon></g><path d="M4.16672619,0 L0.833273805,0 C0.333095221,0 0,0.333452389 0,0.833273805 L0,4.16672619 C0,4.66690478 0.333452389,5 0.833273805,5 L4.16672619,5 C4.66690478,5 5,4.66654761 5,4.16672619 L5,0.833273805 C5,0.333095221 4.66654761,0 4.16672619,0 Z M3.33310415,3.33345239 L1.66619937,3.33345239 L1.66619937,1.66654761 L3.33310415,1.66654761 L3.33310415,3.33345239 Z" stroke="#FFFFFF" stroke-width="0.3" fill="none" stroke-miterlimit="10"></path></g><g transform="translate(26.0 23.0)"><g clip-path="url(#i5)"><polygon points="0,0 5,0 5,5 0,5 0,0" stroke="none" fill="#0A0A5E"></polygon></g><path d="M4.16672619,0 L0.833273805,0 C0.333095221,0 0,0.333452389 0,0.833273805 L0,4.16672619 C0,4.66690478 0.333452389,5 0.833273805,5 L4.16672619,5 C4.66690478,5 5,4.66654761 5,4.16672619 L5,0.833273805 C5,0.333095221 4.66689585,0 4.16672619,0 Z M3.33345239,3.33345239 L1.66654761,3.33345239 L1.66654761,1.66654761 L3.33345239,1.66654761 L3.33345239,3.33345239 Z" stroke="#FFFFFF" stroke-width="0.3" fill="none" stroke-miterlimit="10"></path></g></g></g></g></g></svg>