<?xml version="1.0" encoding="UTF-8"?><svg version="1.1" width="48px" height="48px" viewBox="0 0 48.0 48.0" xmlns="http://www.w3.org/2000/svg" xmlns:xlink="http://www.w3.org/1999/xlink"><defs><clipPath id="i0"><path d="M375,0 L375,1155 L0,1155 L0,0 L375,0 Z"></path></clipPath><clipPath id="i1"><path d="M24,0 C37.254834,0 48,10.745166 48,24 C48,37.254834 37.254834,48 24,48 C10.745166,48 0,37.254834 0,24 C0,10.745166 10.745166,0 24,0 Z"></path></clipPath><clipPath id="i2"><path d="M12.9958574,0 C14.8481493,0 16.60076,0.846032625 17.7620756,2.30046579 C18.9234081,3.75520097 19.3681909,5.66164348 18.9719832,7.48548606 C18.5756057,9.30912731 17.3809299,10.8538113 15.7227567,11.6859011 C18.6228944,12.3161975 21.2228949,13.9259648 23.0919667,16.2488297 C24.9609886,18.5712919 25.9871248,21.4678765 26,24.4584871 L26,25.1191355 C26,25.3527206 25.9079198,25.576873 25.7440551,25.7420325 C25.5801905,25.9071921 25.3579903,26 25.1260419,26 L0.873953147,26 C0.642204418,26 0.420004306,25.9071921 0.256139652,25.7420325 C0.0920802297,25.576873 0,25.3527206 0,25.1191355 L0,24.4584871 C0.0126848782,21.4690846 1.03741328,18.573557 2.90473722,16.2508431 C4.77201121,13.9283809 7.37006403,12.3178585 10.2689582,11.6859011 C8.61078495,10.8538113 7.41613411,9.30912731 7.01973167,7.48548606 C6.62355396,5.66149247 7.06832374,3.75504997 8.22963932,2.30046579 C9.3909549,0.84608296 11.1435656,0 12.9958574,0 Z M13.0001024,12.8968633 C10.0159598,12.8968633 7.15397164,14.0917183 5.04358746,16.2185783 C2.93340305,18.3452369 1.74791628,21.2300431 1.74791628,24.2379689 L24.2522885,24.2379689 C24.2522885,21.2300431 23.0668017,18.3454383 20.9566173,16.2185783 C18.8466326,14.0917183 15.9844447,12.8968633 13.0001024,12.8968633 Z M12.9960073,1.732132 C11.8370389,1.732132 10.7256738,2.19617143 9.90614074,3.02217068 C9.08660772,3.84816993 8.62621655,4.9683276 8.62621655,6.13645463 C8.62621655,7.30458166 9.0866177,8.42472926 9.90614074,9.25073857 C10.7256638,10.0767479 11.8370389,10.5407773 12.9960073,10.5407773 C14.1549756,10.5407773 15.2663408,10.0767378 16.0858738,9.25073857 C16.9054068,8.42473932 17.365798,7.30458166 17.365798,6.13645463 C17.365798,4.9683276 16.9053968,3.84818 16.0858738,3.02217068 C15.2663507,2.19616137 14.1549756,1.732132 12.9960073,1.732132 Z"></path></clipPath></defs><g transform="translate(-20.0 -20.0)"><g clip-path="url(#i0)"><g transform="translate(20.0 20.0)"><g clip-path="url(#i1)"><polygon points="0,0 48,0 48,48 0,48 0,0" stroke="none" fill="#0A0A5E"></polygon></g><g transform="translate(11.0 9.0)"><g clip-path="url(#i2)"><polygon points="0,0 26,0 26,26 0,26 0,0" stroke="none" fill="#FFFFFF"></polygon></g></g></g></g></g></svg>