<?xml version="1.0" encoding="UTF-8"?><svg version="1.1" width="48px" height="48px" viewBox="0 0 48.0 48.0" xmlns="http://www.w3.org/2000/svg" xmlns:xlink="http://www.w3.org/1999/xlink"><defs><clipPath id="i0"><path d="M1920,0 L1920,1490 L0,1490 L0,0 L1920,0 Z"></path></clipPath><clipPath id="i1"><path d="M24,0 C37.254834,0 48,10.745166 48,24 C48,37.254834 37.254834,48 24,48 C10.745166,48 0,37.254834 0,24 C0,10.745166 10.745166,0 24,0 Z"></path></clipPath><clipPath id="i2"><path d="M11.9961761,0 C13.705984,0 15.3237784,0.780953192 16.3957621,2.12350689 C17.4677613,3.46633936 17.87833,5.22613244 17.5125999,6.90967944 C17.146713,8.59304059 16.0439353,10.0189028 14.5133138,10.7869857 C17.190364,11.3687976 19.5903645,12.8547367 21.3156616,14.9989197 C23.0409126,17.142731 23.9881152,19.8165014 24,22.577065 L24,23.1868943 C24,23.4025113 23.9150029,23.6094212 23.7637432,23.7618762 C23.6124835,23.9143312 23.4073757,24 23.1932694,24 L0.806725982,24 C0.592804078,24 0.387696283,23.9143312 0.236436602,23.7618762 C0.0849971351,23.6094212 0,23.4025113 0,23.1868943 L0,22.577065 C0.0117091183,19.8176165 0.957612262,17.1448219 2.68129589,15.0007783 C4.40493343,12.856967 6.80313603,11.3703309 9.47903835,10.7869857 C7.94841688,10.0189028 6.84566226,8.59304059 6.47975231,6.90967944 C6.11404981,5.22599305 6.52460653,3.46619997 7.59659014,2.12350689 C8.66857375,0.780999655 10.2863682,0 11.9961761,0 Z M12.0000945,11.9047969 C9.24550137,11.9047969 6.60366613,13.00774 4.6556192,14.9709954 C2.70775666,16.9340649 1.61346118,19.5969629 1.61346118,22.3735098 L22.3867278,22.3735098 C22.3867278,19.5969629 21.2924323,16.9342507 19.3445698,14.9709954 C17.3968917,13.00774 14.754872,11.9047969 12.0000945,11.9047969 Z M11.9963144,1.59889108 C10.9264974,1.59889108 9.90062193,2.02723517 9.14412991,2.78969601 C8.38763789,3.55215686 7.96266143,4.58614855 7.96266143,5.66441966 C7.96266143,6.74269076 8.38764711,7.77667316 9.14412991,8.5391433 C9.90061271,9.30161343 10.9264974,9.72994823 11.9963144,9.72994823 C13.0661314,9.72994823 14.0920069,9.30160414 14.8484989,8.5391433 C15.6049909,7.77668245 16.0299674,6.74269076 16.0299674,5.66441966 C16.0299674,4.58614855 15.6049817,3.55216615 14.8484989,2.78969601 C14.0920161,2.02722588 13.0661314,1.59889108 11.9963144,1.59889108 Z"></path></clipPath></defs><g transform="translate(-1587.0 -751.0)"><g clip-path="url(#i0)"><g transform="translate(1587.0 751.0)"><g clip-path="url(#i1)"><polygon points="0,0 48,0 48,48 0,48 0,0" stroke="none" fill="#0A0A5E"></polygon></g><g transform="translate(12.0 10.0)"><g clip-path="url(#i2)"><polygon points="0,0 24,0 24,24 0,24 0,0" stroke="none" fill="#FFFFFF"></polygon></g></g></g></g></g></svg>