<?xml version="1.0" encoding="UTF-8"?><svg version="1.1" width="32px" height="32px" viewBox="0 0 32.0 32.0" xmlns="http://www.w3.org/2000/svg" xmlns:xlink="http://www.w3.org/1999/xlink"><defs><clipPath id="i0"><path d="M1920,0 L1920,1080 L0,1080 L0,0 L1920,0 Z"></path></clipPath><clipPath id="i1"><path d="M9.99681341,0 C11.4216533,0 12.7698154,0.650794327 13.663135,1.76958907 C14.5564678,2.88861613 14.8986084,4.35511037 14.5938332,5.7580662 C14.2889275,7.16086716 13.3699461,8.34908564 12.0944282,8.98915472 C14.3253034,9.47399804 16.3253037,10.7122806 17.7630513,12.4990998 C19.2007605,14.2856092 19.990096,16.5137512 20,18.8142208 L20,19.3224119 C20,19.5020928 19.9291691,19.6745177 19.8031193,19.8015635 C19.6770696,19.9286093 19.5061464,20 19.3277245,20 L0.672271652,20 C0.494003399,20 0.323080236,19.9286093 0.197030502,19.8015635 C0.070830946,19.6745177 0,19.5020928 0,19.3224119 L0,18.8142208 C0.00975759859,16.5146804 0.798010218,14.2873516 2.23441324,12.5006485 C3.67077786,10.7141391 5.66928003,9.47527578 7.89919863,8.98915472 C6.62368073,8.34908564 5.70471855,7.16086716 5.39979359,5.7580662 C5.09504151,4.35499421 5.43717211,2.88849997 6.33049178,1.76958907 C7.22381146,0.650833046 8.57197353,0 9.99681341,0 Z M10.0000788,9.92066411 C7.70458448,9.92066411 5.50305511,10.8397833 3.87968266,12.4758295 C2.25646388,14.1117207 1.34455099,16.3308024 1.34455099,18.6445915 L18.6556065,18.6445915 C18.6556065,16.3308024 17.7436936,14.1118756 16.1204748,12.4758295 C14.4974097,10.8397833 12.2957267,9.92066411 10.0000788,9.92066411 Z M9.99692866,1.33240923 C9.10541453,1.33240923 8.25051828,1.68936264 7.62010826,2.32474668 C6.98969824,2.96013072 6.6355512,3.82179046 6.6355512,4.72034971 C6.6355512,5.61890897 6.98970593,6.48056097 7.62010826,7.11595275 C8.25051059,7.75134453 9.10541453,8.10829019 9.99692866,8.10829019 C10.8884428,8.10829019 11.743339,7.75133678 12.3737491,7.11595275 C13.0041591,6.48056871 13.3583061,5.61890897 13.3583061,4.72034971 C13.3583061,3.82179046 13.0041514,2.96013846 12.3737491,2.32474668 C11.7433467,1.6893549 10.8884428,1.33240923 9.99692866,1.33240923 Z"></path></clipPath></defs><g transform="translate(-1389.0 -243.0)"><g clip-path="url(#i0)"><g transform="translate(1389.0 243.0)"><g transform="translate(6.0 7.0)"><g clip-path="url(#i1)"><polygon points="0,0 20,0 20,20 0,20 0,0" stroke="none" fill="#0A0A5E"></polygon></g></g></g></g></g></svg>