<?xml version="1.0" encoding="UTF-8"?><svg version="1.1" width="44px" height="44px" viewBox="0 0 44.0 44.0" xmlns="http://www.w3.org/2000/svg" xmlns:xlink="http://www.w3.org/1999/xlink"><defs><clipPath id="i0"><path d="M1920,0 L1920,1080 L0,1080 L0,0 L1920,0 Z"></path></clipPath><clipPath id="i1"><path d="M28.6692873,0.101370076 L29.069801,0.348237634 C30.2970782,1.08960027 31.0000062,2.16376613 31.0000062,3.29488913 C31.0000062,4.42373223 30.2970782,5.49717813 29.069801,6.23934073 L19.7782865,11.9108549 C18.6265908,12.6108196 17.10895,12.9975201 15.5005538,12.99986 C13.8925859,12.9976565 12.3726391,12.6109596 11.2217258,11.9109949 L1.93021131,6.23948072 C0.70293419,5.49811809 -0.00159357667,4.42395222 6.15859517e-06,3.29502912 C-0.00240024542,2.16148625 0.700504713,1.09054022 1.92539353,0.350577517 L2.33074561,0.101370076 C2.54468371,-0.032217191 2.83500622,-0.0345610729 3.05135322,0.0990263945 L11.9399452,5.52615287 C12.8583904,6.09018445 14.1515929,6.41438811 15.4843052,6.41438811 L15.5132571,6.41438811 C16.8491195,6.41438811 18.1391513,6.09096441 19.0600878,5.52615287 L27.9486797,0.0990263945 C28.1650267,-0.0345608729 28.4529403,-0.032216991 28.6692873,0.101370076 Z M28.3048528,1.43112106 L19.7790353,6.63705869 C18.6257337,7.33702341 17.105787,7.72450388 15.5004791,7.7260638 C13.8927829,7.72372012 12.3728362,7.33702341 11.2219229,6.63705869 L2.69363475,1.43112106 L2.64859677,1.45924364 C1.57653853,2.12015033 1.35133836,2.82167498 1.35133836,3.29431116 C1.35133836,3.76460745 1.57653853,4.46691206 2.64859677,5.12703879 L11.9401113,10.798553 C12.8585566,11.3625845 14.151759,11.6867882 15.486942,11.6867882 L15.5002821,11.6875661 L15.5139545,11.6875661 C16.8498169,11.6875661 18.1423193,11.3641424 19.0607851,10.7993309 L28.3522997,5.12781675 C29.1879162,4.61144277 29.6495581,3.96225549 29.6495581,3.29508912 C29.6495581,2.82245294 29.421949,2.12014833 28.3498908,1.45768172 L28.3048528,1.43112106 Z"></path></clipPath><clipPath id="i2"><path d="M28.6692821,0.10048601 L29.0697967,0.347355178 C30.2970766,1.08872265 31.0000062,2.16289552 31.0000062,3.29402588 C31.0000062,4.42515625 30.2970766,5.49712921 29.0697967,6.24069659 L19.7782612,11.9108478 C18.6265629,12.6108171 17.1089187,12.9975201 15.5005188,12.99986 C13.8926173,12.9976563 12.3726671,12.6109571 11.2217512,11.9109878 L1.93021567,6.24083658 C0.702935778,5.49710922 -0.00159358027,4.42529624 6.15860972e-06,3.29416588 C-0.00240025084,2.16297551 0.700506295,1.08966261 1.92539788,0.349695076 L2.32832139,0.10048601 C2.54466887,-0.0331021279 2.83499204,-0.0331021279 3.05133952,0.0981423133 L11.9399515,5.52750408 C12.8583989,6.09153933 14.1532513,6.41574511 15.489055,6.41574511 L15.511575,6.41574511 C16.8466375,6.41574511 18.1399458,6.0923193 19.0584137,5.52750408 L27.9486728,0.0981423133 C28.1650203,-0.033101928 28.4529346,-0.033101928 28.6692821,0.10048601 Z M28.3049167,1.43088563 L19.77908,6.6368572 C18.6257758,7.33682649 17.1080904,7.72430949 15.5005141,7.72586942 C13.8928143,7.72352572 12.3728641,7.33682649 11.2219482,6.6368572 L2.69364083,1.43088563 L2.64860275,1.4590104 C1.57654209,2.1199214 1.35134141,2.82145062 1.35134141,3.29408988 C1.35134141,3.76672914 1.57654209,4.46669843 2.64860275,5.12916936 L11.9401383,10.7993206 C12.8585856,11.3633558 14.151791,11.6875616 15.4845063,11.6875616 L15.5139895,11.6875616 C16.8498549,11.6875616 18.1398896,11.3641318 19.0583575,10.7993166 L28.3523637,5.12916536 C29.1879822,4.61278802 29.649625,3.96125661 29.649625,3.29408588 C29.649625,2.82144662 29.4220154,2.11913744 28.3499548,1.4566665 L28.3049167,1.43088563 Z"></path></clipPath><clipPath id="i3"><path d="M15.6600425,0 C17.0946873,0.00479225813 18.3720878,0.330661312 19.3552221,0.94804434 L29.3466524,7.225743 C30.4015046,7.88066586 31.0047238,8.85347095 30.9999721,9.89810471 C30.9951563,11.067401 30.2539017,12.2038601 28.9644699,13.0137472 L19.7461306,18.8107479 C18.5261085,19.575898 16.9597323,19.9984052 15.3376527,20 C13.9036372,19.997563 12.627687,19.6708926 11.644757,19.054307 L1.65572049,12.7702699 C0.599274987,12.1193341 -0.00394418208,11.146529 1.94106351e-05,10.1017931 C0.00482660952,8.9324968 0.746081264,7.79440194 2.03792339,6.98451482 L11.2587139,1.185265 C12.4763256,0.422507133 14.0402098,0.00239224422 15.6600425,0 Z M15.6701919,1.34164008 L15.6478492,1.34164008 C14.3161343,1.34164008 12.939685,1.70824639 11.9677854,2.32084493 L2.74944605,8.11784563 C1.84940734,8.68811985 1.33553431,9.41252002 1.33951471,10.1017931 C1.34592125,10.688036 1.69063105,11.202389 2.36724315,11.6336881 L12.3562797,17.9177252 C13.0983387,18.3897538 14.177131,18.6581146 15.3228409,18.6581146 L15.3510499,18.6581555 C16.6827648,18.6581555 18.0592141,18.2915491 19.0325436,17.6741661 L28.2508829,11.8771654 C29.1493284,11.3093039 29.6624048,10.5864781 29.6584244,9.89800248 C29.6536137,9.31255693 29.307308,8.79581173 28.6330858,8.36212035 L18.6440493,2.08442169 C17.9019864,1.61239305 16.8184143,1.34164008 15.6701919,1.34164008 Z"></path></clipPath></defs><g transform="translate(-684.0 -457.0)"><g clip-path="url(#i0)"><g transform="translate(684.0 457.0)"><g transform="translate(7.0000000000001865 7.0)"><g transform="translate(0.0 17.0)"><g clip-path="url(#i1)"><polygon points="-2.66547513e-13,0 31.0000062,0 31.0000062,13 -2.66547513e-13,13 -2.66547513e-13,0" stroke="none" fill="#0A0A5E"></polygon></g><path d="M15.5002821,13 C13.8925859,12.9976565 12.3726391,12.6109596 11.2217258,11.9109949 L1.93021131,6.23948072 C0.70293419,5.49811809 -0.00159357667,4.42395222 6.15859517e-06,3.29502912 C-0.00240024542,2.16148625 0.700504713,1.09054022 1.92539353,0.350577517 L2.33074561,0.101370076 C2.54468371,-0.032217191 2.83500622,-0.0345610729 3.05135322,0.0990263945 L11.9399452,5.52615287 C12.8583904,6.09018445 14.1515929,6.41438811 15.4843052,6.41438811 L15.5132571,6.41438811 C16.8491195,6.41438811 18.1391513,6.09096441 19.0600878,5.52615287 L27.9486797,0.0990263945 C28.1650267,-0.0345608729 28.4529403,-0.032216991 28.6692873,0.101370076 L29.069801,0.348237634 C30.2970782,1.08960027 31.0000062,2.16376613 31.0000062,3.29488913 C31.0000062,4.42373223 30.2970782,5.49717813 29.069801,6.23934073 L19.7782865,11.9108549 C18.6265908,12.6108196 17.10895,12.9975201 15.5005538,12.99986 L15.5002821,13 Z M15.5002821,11.6875661 L15.5139545,11.6875661 C16.8498169,11.6875661 18.1423193,11.3641424 19.0607851,10.7993309 L28.3522997,5.12781675 C29.1879162,4.61144277 29.6495581,3.96225549 29.6495581,3.29508912 C29.6495581,2.82245294 29.421949,2.12014833 28.3498908,1.45768172 L28.3048528,1.43112106 L19.7790353,6.63705869 C18.6257337,7.33702341 17.105787,7.72450388 15.5004791,7.7260638 C13.8927829,7.72372012 12.3728362,7.33702341 11.2219229,6.63705869 L2.69363475,1.43112106 L2.64859677,1.45924364 C1.57653853,2.12015033 1.35133836,2.82167498 1.35133836,3.29431116 C1.35133836,3.76460745 1.57653853,4.46691206 2.64859677,5.12703879 L11.9401113,10.798553 C12.8585566,11.3625845 14.151759,11.6867882 15.486942,11.6867882 L15.5002821,11.6875661 Z" stroke="#FFFFFF" stroke-width="0.3" fill="none" stroke-miterlimit="10"></path></g><g transform="translate(0.0 12.0)"><g clip-path="url(#i2)"><polygon points="3.78456558e-13,-2.77555756e-17 31.0000062,-2.77555756e-17 31.0000062,13 3.78456558e-13,13 3.78456558e-13,-2.77555756e-17" stroke="none" fill="#0A0A5E"></polygon></g><path d="M15.5003171,13 C13.8926173,12.9976563 12.3726671,12.6109571 11.2217512,11.9109878 L1.93021567,6.24083658 C0.702935778,5.49710922 -0.00159358027,4.42529624 6.15860972e-06,3.29416588 C-0.00240025084,2.16297551 0.700506295,1.08966261 1.92539788,0.349695076 L2.32832139,0.10048601 C2.54466887,-0.0331021279 2.83499204,-0.0331021279 3.05133952,0.0981423133 L11.9399515,5.52750408 C12.8583989,6.09153933 14.1532513,6.41574511 15.489055,6.41574511 L15.511575,6.41574511 C16.8466375,6.41574511 18.1399458,6.0923193 19.0584137,5.52750408 L27.9486728,0.0981423133 C28.1650203,-0.033101928 28.4529346,-0.033101928 28.6692821,0.10048601 L29.0697967,0.347355178 C30.2970766,1.08872265 31.0000062,2.16289552 31.0000062,3.29402588 C31.0000062,4.42515625 30.2970766,5.49712921 29.0697967,6.24069659 L19.7782612,11.9108478 C18.6265629,12.6108171 17.1089187,12.9975201 15.5005188,12.99986 L15.5003171,13 Z M15.5003171,11.6875616 L15.5139895,11.6875616 C16.8498549,11.6875616 18.1398896,11.3641318 19.0583575,10.7993166 L28.3523637,5.12916536 C29.1879822,4.61278802 29.649625,3.96125661 29.649625,3.29408588 C29.649625,2.82144662 29.4220154,2.11913744 28.3499548,1.4566665 L28.3049167,1.43088563 L19.77908,6.6368572 C18.6257758,7.33682649 17.1080904,7.72430949 15.5005141,7.72586942 C13.8928143,7.72352572 12.3728641,7.33682649 11.2219482,6.6368572 L2.69364083,1.43088563 L2.64860275,1.4590104 C1.57654209,2.1199214 1.35134141,2.82145062 1.35134141,3.29408988 C1.35134141,3.76672914 1.57654209,4.46669843 2.64860275,5.12916936 L11.9401383,10.7993206 C12.8585856,11.3633558 14.151791,11.6875616 15.4845063,11.6875616 L15.5003171,11.6875616 Z" stroke="#FFFFFF" stroke-width="0.3" fill="none" stroke-miterlimit="10"></path></g><g clip-path="url(#i3)"><polygon points="3.32178729e-13,0 31,0 31,20 3.32178729e-13,20 3.32178729e-13,0" stroke="none" fill="#0A0A5E"></polygon></g><path d="M15.3374854,20 C13.9036372,19.997563 12.627687,19.6708926 11.644757,19.054307 L1.65572049,12.7702699 C0.599274987,12.1193341 -0.00394418208,11.146529 1.94106351e-05,10.1017931 C0.00482660952,8.9324968 0.746081264,7.79440194 2.03792339,6.98451482 L11.2587139,1.185265 C12.4763256,0.422507133 14.0402098,0.00239224422 15.6600425,0 C17.0946873,0.00479225813 18.3720878,0.330661312 19.3552221,0.94804434 L19.3576159,0.94804434 L29.3466524,7.225743 C30.4015046,7.88066586 31.0047238,8.85347095 30.9999721,9.89810471 C30.9951563,11.067401 30.2539017,12.2038601 28.9644699,13.0137472 L19.7461306,18.8107479 C18.5261085,19.575898 16.9597323,19.9984052 15.3376527,20 L15.3374854,20 Z M15.3374854,18.6581555 L15.3510499,18.6581555 C16.6827648,18.6581555 18.0592141,18.2915491 19.0325436,17.6741661 L28.2508829,11.8771654 C29.1493284,11.3093039 29.6624048,10.5864781 29.6584244,9.89800248 C29.6536137,9.31255693 29.307308,8.79581173 28.6330858,8.36212035 L18.6440493,2.08442169 L18.6416555,2.08442169 C17.9019864,1.61239305 16.8184143,1.34164008 15.6701919,1.34164008 L15.6478492,1.34164008 C14.3161343,1.34164008 12.939685,1.70824639 11.9677854,2.32084493 L2.74944605,8.11784563 C1.84940734,8.68811985 1.33553431,9.41252002 1.33951471,10.1017931 C1.34592125,10.688036 1.69063105,11.202389 2.36724315,11.6336881 L12.3562797,17.9177252 C13.0983387,18.3897538 14.177131,18.6581146 15.3228409,18.6581146 L15.3372035,18.6589132 L15.3374854,18.6581555 Z" stroke="#FFFFFF" stroke-width="0.3" fill="none" stroke-miterlimit="10"></path></g></g></g></g></svg>