<?xml version="1.0" encoding="UTF-8"?><svg version="1.1" width="28px" height="28px" viewBox="0 0 28.0 28.0" xmlns="http://www.w3.org/2000/svg" xmlns:xlink="http://www.w3.org/1999/xlink"><defs><clipPath id="i0"><path d="M1920,0 L1920,10566 L0,10566 L0,0 L1920,0 Z"></path></clipPath><clipPath id="i1"><path d="M14,0 C17.7129735,0 21.274048,1.47498946 23.8994293,4.10057071 C26.5250105,6.72605196 28,10.2870265 28,14 C28,17.7129735 26.5250105,21.274048 23.8994293,23.8994293 C21.273948,26.5250105 17.7129735,28 14,28 C10.2870265,28 6.72595196,26.5250105 4.10057071,23.8994293 C1.47498946,21.273948 0,17.7129735 0,14 C0,10.2870265 1.47498946,6.72595196 4.10057071,4.10057071 C6.72605196,1.47498946 10.2869265,0 14,0 Z M10,8 L10,20 L21,14.1751168 L10,8 Z"></path></clipPath></defs><g transform="translate(-386.0 -9102.0)"><g clip-path="url(#i0)"><g transform="translate(386.0 9102.0)"><g clip-path="url(#i1)"><polygon points="0,0 28,0 28,28 0,28 0,0" stroke="none" fill="#FFFFFF"></polygon></g></g></g></g></svg>