<?xml version="1.0" encoding="UTF-8"?><svg version="1.1" width="130px" height="130px" viewBox="0 0 130.0 130.0" xmlns="http://www.w3.org/2000/svg" xmlns:xlink="http://www.w3.org/1999/xlink"><defs><clipPath id="i0"><path d="M1920,0 L1920,8089 L0,8089 L0,0 L1920,0 Z"></path></clipPath><clipPath id="i1"><path d="M65,0 C82.2388054,0 98.7723659,6.84816537 110.961636,19.038364 C123.151835,31.2280984 130,47.7611946 130,65 C130,82.2388054 123.151835,98.7723659 110.961636,110.961636 C98.7719016,123.151835 82.2388054,130 65,130 C47.7611946,130 31.2276341,123.151835 19.038364,110.961636 C6.84816537,98.7719016 0,82.2388054 0,65 C0,47.7611946 6.84816537,31.2276341 19.038364,19.038364 C31.2280984,6.84816537 47.7607303,0 65,0 Z M46,37 L46,93 L97,65.8172117 L46,37 Z"></path></clipPath></defs><g transform="translate(-1280.0 -3070.0)"><g clip-path="url(#i0)"><g transform="translate(1280.0 3070.0)"><g clip-path="url(#i1)"><polygon points="0,0 130,0 130,130 0,130 0,0" stroke="none" fill="#FFFFFF"></polygon></g></g></g></g></svg>