<?xml version="1.0" encoding="UTF-8"?><svg version="1.1" width="42px" height="42px" viewBox="0 0 42.0 42.0" xmlns="http://www.w3.org/2000/svg" xmlns:xlink="http://www.w3.org/1999/xlink"><defs><clipPath id="i0"><path d="M1920,0 L1920,3029 L0,3029 L0,0 L1920,0 Z"></path></clipPath><clipPath id="i1"><path d="M16,0 C24.8228571,0 32,7.17785714 32,16 C32,24.8221429 24.8228571,32 16,32 C7.17714286,32 0,24.8221429 0,16 C0,7.17785714 7.17714286,0 16,0 Z M16,0.8 C7.61864286,0.8 0.8,7.61857143 0.8,16 C0.8,24.3813571 7.61857143,31.2 16,31.2 C24.3810714,31.2 31.2,24.3814286 31.2,16 C31.2,7.61864286 24.3814286,0.8 16,0.8 Z"></path></clipPath><clipPath id="i2"><path d="M13,0 C20.1683677,0 26,5.83192043 26,13 C26,20.1680796 20.1683677,26 13,26 C5.83163231,26 0,20.1680796 0,13 C0,5.83192043 5.83156028,0 13,0 Z M9.2775543,17.2932125 L4.67396387,21.8963708 C6.76355829,23.8529976 9.53895168,25.082869 12.5965592,25.1830341 L12.5965592,18.6693484 C11.3315658,18.579887 10.1810284,18.0776928 9.2775543,17.2932125 Z M16.7225177,17.2932125 C15.8190437,18.0776352 14.6685062,18.5798726 13.4035129,18.6693484 L13.4033688,25.1830341 C16.4611203,25.0828402 19.2365137,23.8529976 21.3259641,21.8963708 Z M25.1828469,13.4036569 L18.6691611,13.4036569 C18.5799878,14.6689384 18.0772174,15.8194758 17.2927371,16.7229499 L21.8961835,21.3262522 C23.8530984,19.2366578 25.0829627,16.4612644 25.1828469,13.4036569 Z M7.33024823,13.4035129 L0.8165625,13.4033688 C0.916756427,16.4611203 2.14659907,19.2365137 4.10322584,21.3259641 L8.70667221,16.7228059 C7.92224956,15.8193318 7.41972407,14.6687943 7.33024823,13.4035129 Z M13.0000288,8.11722074 C10.307326,8.11722074 8.11688941,10.3076574 8.11688941,13.000072 C8.11688941,15.6924867 10.307326,17.8829233 13.0000288,17.8829233 C15.6927316,17.8829233 17.8831682,15.6924867 17.8831682,13.000072 C17.8831682,10.3076574 15.6927316,8.11722074 13.0000288,8.11722074 Z M21.8965869,4.67417996 L17.2931405,9.27733821 C18.0775632,10.1808123 18.5800887,11.3313497 18.6695645,12.5966312 L25.1832502,12.5967753 C25.0830563,9.53902371 23.8532137,6.76363032 21.8965869,4.67417996 Z M4.10351396,4.6740359 C2.14659907,6.76363032 0.916727615,9.53902371 0.8165625,12.5966312 L7.33024823,12.5966312 C7.41970966,11.3316379 7.92219193,10.1808123 8.70696033,9.27733821 Z M13.4035417,0.817181959 L13.4035417,7.33086769 C14.668535,7.42032912 15.8190725,7.92252327 16.7225465,8.70700355 L21.326137,4.1038453 C19.2365426,2.14721853 16.4611492,0.917347074 13.4035417,0.817181959 Z M12.596732,0.817181959 C9.5389805,0.917375887 6.7635871,2.14721853 4.67413675,4.1038453 L9.27758311,8.70700355 C10.1810572,7.9225809 11.3315946,7.42034353 12.596588,7.33086769 Z"></path></clipPath><clipPath id="i3"><path d="M3,0 C4.65416028,0 6,1.3457267 6,3 C6,4.6542733 4.65416028,6 3,6 C1.34583972,6 0,4.6542733 0,3 C0,1.3457267 1.34583972,0 3,0 Z M3,0.705267357 C1.73484642,0.705267357 0.705389574,1.73488968 0.705389574,2.99993702 C0.705389574,4.26498436 1.73484642,5.29460668 3,5.29460668 C4.26515358,5.29460668 5.29461043,4.26498436 5.29461043,2.99993702 C5.29461043,1.73488968 4.26515358,0.705267357 3,0.705267357 Z"></path></clipPath></defs><g transform="translate(-303.0 -1179.0)"><g clip-path="url(#i0)"><g transform="translate(303.0 1179.0)"><g transform="translate(5.0 5.0)"><g clip-path="url(#i1)"><polygon points="0,0 32,0 32,32 0,32 0,0" stroke="none" fill="#09095F"></polygon></g><path d="M16,0 C7.17714286,0 0,7.17785714 0,16 C0,24.8221429 7.17714286,32 16,32 C24.8228571,32 32,24.8221429 32,16 C32,7.17785714 24.8228571,0 16,0 Z M16,31.2 C7.61857143,31.2 0.8,24.3813571 0.8,16 C0.8,7.61857143 7.61864286,0.8 16,0.8 C24.3814286,0.8 31.2,7.61864286 31.2,16 C31.2,24.3814286 24.3810714,31.2 16,31.2 Z" stroke="#09095F" stroke-width="0.3" fill="none" stroke-miterlimit="10"></path><g transform="translate(3.0 3.0)"><g clip-path="url(#i2)"><polygon points="0,0 26,0 26,26 0,26 0,0" stroke="none" fill="#09095F"></polygon></g><path d="M13,0 C5.83156028,0 0,5.83192043 0,13 C0,20.1680796 5.83163231,26 13,26 C20.1683677,26 26,20.1680796 26,13 C26,5.83192043 20.1683677,0 13,0 L13,0 Z M18.6695645,12.5966312 C18.5800887,11.3313497 18.0775632,10.1808123 17.2931405,9.27733821 L21.8965869,4.67417996 C23.8532137,6.76363032 25.0830563,9.53902371 25.1832502,12.5967753 L18.6695645,12.5966312 Z M9.2775543,17.2932125 C10.1810284,18.0776928 11.3315658,18.579887 12.5965592,18.6693484 L12.5965592,25.1830341 C9.53895168,25.082869 6.76355829,23.8529976 4.67396387,21.8963708 L9.2775543,17.2932125 Z M13.4035129,18.6693484 C14.6685062,18.5798726 15.8190437,18.0776352 16.7225177,17.2932125 L21.3259641,21.8963708 C19.2365137,23.8529976 16.4611203,25.0828402 13.4033688,25.1830341 L13.4035129,18.6693484 Z M13.0000288,17.8829233 C10.307326,17.8829233 8.11688941,15.6924867 8.11688941,13.000072 C8.11688941,10.3076574 10.307326,8.11722074 13.0000288,8.11722074 C15.6927316,8.11722074 17.8831682,10.3076574 17.8831682,13.000072 C17.8831682,15.6924867 15.6927316,17.8829233 13.0000288,17.8829233 Z M16.7225465,8.70700355 C15.8190725,7.92252327 14.668535,7.42032912 13.4035417,7.33086769 L13.4035417,0.817181959 C16.4611492,0.917347074 19.2365426,2.14721853 21.326137,4.1038453 L16.7225465,8.70700355 Z M12.596588,7.33086769 C11.3315946,7.42034353 10.1810572,7.9225809 9.27758311,8.70700355 L4.67413675,4.1038453 C6.7635871,2.14721853 9.5389805,0.917375887 12.596732,0.817181959 L12.596588,7.33086769 Z M4.10351396,4.67417996 L8.70696033,9.27733821 C7.92219193,10.1808123 7.41970966,11.3316379 7.33024823,12.5966312 L0.8165625,12.5966312 C0.916727615,9.53902371 2.14659907,6.76363032 4.10351396,4.6740359 L4.10351396,4.67417996 Z M0.8165625,13.4035129 L7.33024823,13.4035129 C7.41972407,14.6687943 7.92224956,15.8193318 8.70667221,16.7228059 L4.10322584,21.3259641 C2.14659907,19.2365137 0.916756427,16.4611203 0.8165625,13.4033688 L0.8165625,13.4035129 Z M21.8961835,21.3261082 L17.2927371,16.7229499 C18.0772174,15.8194758 18.5799878,14.6689384 18.6691611,13.4036569 L25.1828469,13.4036569 C25.0829627,16.4612644 23.8530984,19.2366578 21.8961835,21.3262522 L21.8961835,21.3261082 Z" stroke="#09095F" stroke-width="0.3" fill="none" stroke-miterlimit="10"></path></g><g transform="translate(13.0 13.0)"><g clip-path="url(#i3)"><polygon points="0,0 6,0 6,6 0,6 0,0" stroke="none" fill="#09095F"></polygon></g><path d="M3,0 C1.34583972,0 0,1.3457267 0,3 C0,4.6542733 1.34583972,6 3,6 C4.65416028,6 6,4.6542733 6,3 C6,1.3457267 4.65416028,0 3,0 L3,0 Z M3,5.29460668 C1.73484642,5.29460668 0.705389574,4.26498436 0.705389574,2.99993702 C0.705389574,1.73488968 1.73484642,0.705267357 3,0.705267357 C4.26515358,0.705267357 5.29461043,1.73488968 5.29461043,2.99993702 C5.29461043,4.26498436 4.26515358,5.29460668 3,5.29460668 Z" stroke="#09095F" stroke-width="0.3" fill="none" stroke-miterlimit="10"></path></g></g></g></g></g></svg>